<svg id="圖層_1" data-name="圖層 1" xmlns="http://www.w3.org/2000/svg" viewBox="0 0 68.35 80"><defs><style>.cls-1{fill:#47aae0;}</style></defs><title>icon</title><g id="car-maintance"><path class="cls-1" d="M65.63,46.53l-1.3-1.21,0,0L59.08,31.15A6.36,6.36,0,0,0,53.14,27h-37a6.35,6.35,0,0,0-5.94,4.12l-5.17,14-2,1.63A8.69,8.69,0,0,0,0,53.32V73.68A6.32,6.32,0,0,0,6.32,80H10a6.09,6.09,0,0,0,6.19-6V71.46h35V74a6.1,6.1,0,0,0,6.16,6H62a6.42,6.42,0,0,0,6.4-6.4V52.81A8.61,8.61,0,0,0,65.63,46.53ZM13.08,32.28a2.83,2.83,0,0,1,2.69-1.83H53.22a2.81,2.81,0,0,1,2.68,1.83l4.42,11.84H57.61a10.35,10.35,0,0,0-20.39,0H8.68ZM53.73,44.12h-13a6.72,6.72,0,0,1,13,0ZM12.82,73.92a2.67,2.67,0,0,1-2.68,2.66H6.31a2.9,2.9,0,0,1-2.89-2.89V70.84a6.77,6.77,0,0,0,2.87.62h6.53Zm49.45,2.66H58.14A2.62,2.62,0,0,1,55.53,74V71.46h6.53a6.74,6.74,0,0,0,2.87-.62v3.08A2.66,2.66,0,0,1,62.27,76.58ZM62,67.18H6.22a2.8,2.8,0,0,1-2.8-2.8V53.22a5.06,5.06,0,0,1,1.84-3.87l2.16-1.82H61.71L63.29,49a5.12,5.12,0,0,1,1.64,3.76V64.43h0A2.85,2.85,0,0,1,62,67.18ZM19.61,52.66h-11a1.76,1.76,0,0,0-1.76,1.75V62a1.76,1.76,0,0,0,1.76,1.76h11A1.76,1.76,0,0,0,21.36,62v-7.6A1.76,1.76,0,0,0,19.61,52.66Zm-1.67,7.69H10.25V56.08h7.69Zm41.82-7.69h-11A1.76,1.76,0,0,0,47,54.41V62a1.76,1.76,0,0,0,1.75,1.76h11A1.76,1.76,0,0,0,61.51,62v-7.6A1.75,1.75,0,0,0,59.76,52.66ZM58.1,60.35H50.41V56.08H58.1ZM40.85,58.64H27.36a1.82,1.82,0,0,0-1.83,1.45,1.72,1.72,0,0,0,1.69,2H40.73a1.79,1.79,0,0,0,1.81-1.44A1.71,1.71,0,0,0,40.85,58.64Zm0-4.27H27.31a1.77,1.77,0,0,0-1.7,1.14,1.72,1.72,0,0,0,1.62,2.28h13.5a1.8,1.8,0,0,0,1.81-1.45A1.71,1.71,0,0,0,40.85,54.37ZM61.63,10.05a1.72,1.72,0,0,0,1.85-1.56,1.42,1.42,0,0,0-.07-.61A10.48,10.48,0,0,0,59.34,2.1,11.65,11.65,0,0,0,52.66,0,10.81,10.81,0,0,0,42.3,6.53h-17A11.81,11.81,0,0,0,15.42.85,11.2,11.2,0,0,0,8.68,3a10.64,10.64,0,0,0-4,6.32A1.7,1.7,0,0,0,6,11.33a1.75,1.75,0,0,0,.51,0l5.57-.43a3.64,3.64,0,0,1,0,2.93l-5.6-.45A1.72,1.72,0,0,0,4.63,15a1.42,1.42,0,0,0,.07.61,10.86,10.86,0,0,0,10.8,7.79,10.85,10.85,0,0,0,10.36-6.59h17a11.32,11.32,0,0,0,9.7,5.69h.11a11.33,11.33,0,0,0,6.73-2.06,10.79,10.79,0,0,0,4-6.22,1.69,1.69,0,0,0-1.24-2.07,1.43,1.43,0,0,0-.55-.05L56,12.51a3.62,3.62,0,0,1,0-2.92Zm-7.88,5.27a1.66,1.66,0,0,0,1.48.67l3.86-.31a7.22,7.22,0,0,1-6.51,3.38,8.23,8.23,0,0,1-7.22-4.69,1.78,1.78,0,0,0-1.56-1H24.63A1.73,1.73,0,0,0,23,14.59,7.52,7.52,0,0,1,15.47,20a7.7,7.7,0,0,1-6.3-2.9l3.65.31a1.74,1.74,0,0,0,1.51-.67l0-.05a7,7,0,0,0,0-8.54,1.69,1.69,0,0,0-1.49-.65l-3.93.31A7.07,7.07,0,0,1,15.4,4.31,8.36,8.36,0,0,1,22.7,9a1.67,1.67,0,0,0,1.54.93H43.48a1.67,1.67,0,0,0,1.64-1.17,7.49,7.49,0,0,1,7.5-5.33,7.76,7.76,0,0,1,6.29,2.95l-3.66-.31a1.72,1.72,0,0,0-1.5.67l0,0A7,7,0,0,0,53.75,15.32Z"/></g></svg>