<svg id="圖層_1" data-name="圖層 1" xmlns="http://www.w3.org/2000/svg" xmlns:xlink="http://www.w3.org/1999/xlink" viewBox="0 0 228.28 250.15"><defs><style>.cls-1{fill:none;}.cls-2{clip-path:url(#clip-path);}.cls-3{stroke:#000;stroke-miterlimit:10;stroke-width:5px;}.cls-4{fill:#f8f8f9;}.cls-5{fill:#333;}.cls-6{font-size:9.4px;font-family:MicrosoftJhengHeiRegular, Microsoft JhengHei;}</style><clipPath id="clip-path"><path class="cls-1" d="M132.15,27.14h0a8.35,8.35,0,0,1-8.34-8.37h0a8.36,8.36,0,0,1,8.34-8.38h0a8.35,8.35,0,0,1,8.33,8.38h0A8.36,8.36,0,0,1,132.15,27.14Z"/></clipPath></defs><title>_</title><path d="M157.12,196.08,148,186.92a1,1,0,0,0-1.36,0,1,1,0,0,0,0,1.37l8.43,8.47-4.93,5a.38.38,0,0,1-.54,0l-9.73-9.78a.39.39,0,0,1,0-.55l3.28-3.3a1,1,0,0,0,.12-1.28,1,1,0,0,0-1.45-.11L138.52,190a2.31,2.31,0,0,0-.49,2.55l-1.12,1.12H129.1l-1.42-1.42a2.27,2.27,0,0,0,0-1.1,2.36,2.36,0,0,0-.66-1.18l-3.19-3.21a.94.94,0,0,0-1.35,0,1,1,0,0,0,0,1.37l3.21,3.23a.41.41,0,0,1,.12.28.39.39,0,0,1-.12.27l-.27.27L116,201.71h0a.36.36,0,0,1-.26.1.37.37,0,0,1-.27-.11l-4.93-5,8.52-8.56a1,1,0,0,0,.11-1.28,1,1,0,0,0-1.45-.11l-9.22,9.26a1,1,0,0,0,0,1.37l5.61,5.63a2.26,2.26,0,0,0,1.63.68,2.45,2.45,0,0,0,.8-.14l3.16,3.17a3.24,3.24,0,0,0-.39,1.55,3.3,3.3,0,0,0,3.29,3.3h0a3.3,3.3,0,0,0,3.27,3.3h0a3.3,3.3,0,0,0,3.29,3.3,3.34,3.34,0,0,0,1.54-.38l1.13,1.14a3,3,0,0,0,1.86.89,2.92,2.92,0,0,0,3.16-2.8,3,3,0,0,0,2.82-3h0a3.23,3.23,0,0,0,3-3.24,3.16,3.16,0,0,0,3.05-3.17,3.21,3.21,0,0,0-.33-1.41l3.15-2.89a2.34,2.34,0,0,0,1.32.41,2.29,2.29,0,0,0,1.63-.67l5.61-5.64A1,1,0,0,0,157.12,196.08Zm-34.56,13.59a1.37,1.37,0,1,1,1.36-1.37A1.37,1.37,0,0,1,122.56,209.67Zm4.31,2.84-.11.11a1.35,1.35,0,0,1-.9.35,1.37,1.37,0,1,1,1.36-1.37A1.34,1.34,0,0,1,126.87,212.51Zm3.23,3.35h0v0a1.36,1.36,0,0,1-1,.39,1.39,1.39,0,0,1-1.37-1.37,1.44,1.44,0,0,1,.35-.92l.12-.11a1.36,1.36,0,0,1,1.87,2Zm13.29-7.39a1.23,1.23,0,0,1-1.72,0l-2-2a.94.94,0,0,0-1.35,0,1,1,0,0,0,0,1.36l2,2h0a1.31,1.31,0,0,1,0,1.81,1.3,1.3,0,0,1-1.85.07l-1.91-1.83a1,1,0,0,0-1.32,1.4l2.09,2a1,1,0,0,1,.32.74,1,1,0,0,1-.3.76,1,1,0,0,1-1.48,0l-1-1a1,1,0,0,0-1.36,0,1,1,0,0,0-.28.68,1,1,0,0,0,.28.68l1,1a1,1,0,0,1-.7,1.7,1,1,0,0,1-.7-.3L132,216.4a3.34,3.34,0,0,0,.38-1.54,3.29,3.29,0,0,0-3.26-3.29h0a3.28,3.28,0,0,0-3.27-3.28h0a3.28,3.28,0,0,0-4.81-2.91l-3-3,8.46-8.51,1.47,1.48a1,1,0,0,0,.68.28h1.24l-3.78,3.8a3.07,3.07,0,1,0,4.33,4.35l3.2-3.22,3.51,0,6.2,6.16a1.2,1.2,0,0,1,.36.86A1.22,1.22,0,0,1,143.39,208.47Zm.82-3.6L138.29,199h0a1,1,0,0,0-.8-.28l-4.23-.05a1,1,0,0,0-.7.29L129,202.5a1.08,1.08,0,0,1-.61.33,1.14,1.14,0,0,1-1-.32,1.18,1.18,0,0,1-.32-1,1.16,1.16,0,0,1,.34-.61l5.2-5.23h4.71a1,1,0,0,0,.68-.28l1.3-1.31,8,8Z"/><ellipse cx="150.29" cy="197.17" rx="0.96" ry="0.96"/><ellipse cx="115.16" cy="197.27" rx="0.96" ry="0.96"/><ellipse cx="120.77" cy="185.24" rx="0.96" ry="0.96"/><ellipse cx="144.76" cy="185.16" rx="0.96" ry="0.96"/><path d="M152.81.12H119.06A2.86,2.86,0,0,0,116.22,3V6.22a1,1,0,0,0,1.9,0V3a1,1,0,0,1,.94-1h33.75a1,1,0,0,1,.95,1V46.05a1,1,0,0,1-.95,1H119.06a1,1,0,0,1-.94-1V43a.95.95,0,0,0-1.9,0v3.08a2.86,2.86,0,0,0,2.84,2.86h33.75a2.86,2.86,0,0,0,2.85-2.86V3A2.86,2.86,0,0,0,152.81.12Z"/><path d="M148.25,36.9H125.5a1,1,0,0,0,0,1.91h22.75a1,1,0,0,0,0-1.91Z"/><path d="M148.93,42.13a.94.94,0,0,0-.68-.27,1,1,0,0,0-.67.27.94.94,0,0,0-.27.68,1,1,0,0,0,.27.68.94.94,0,0,0,.67.27,1,1,0,0,0,.68-.27,1,1,0,0,0,.27-.68A1,1,0,0,0,148.93,42.13Z"/><path d="M144.38,41.86H125.5a1,1,0,0,0,0,1.9h18.88a1,1,0,0,0,0-1.9Z"/><path d="M132.15,3.93A14.85,14.85,0,0,0,123,30.43L112,41.49a1.75,1.75,0,0,1-2.5,0,1.77,1.77,0,0,1,0-2.51l5.63-5.66a1,1,0,0,0,0-1.35,1,1,0,0,0-1.34,0l-5.63,5.66a3.67,3.67,0,1,0,5.17,5.21l11.25-11.31a14.64,14.64,0,0,0,7.52,2.06,14.83,14.83,0,0,0,0-29.66Zm0,27.77A12.94,12.94,0,1,1,145,18.77,12.93,12.93,0,0,1,132.15,31.7Z"/><path d="M118.15,29a.94.94,0,0,0-.68-.27,1,1,0,0,0-.67.27,1,1,0,0,0-.28.68,1,1,0,0,0,.28.68.94.94,0,0,0,.67.27,1,1,0,0,0,.68-.27,1,1,0,0,0,0-1.36Z"/><path d="M132.15,8.48a10.3,10.3,0,0,0-7,17.77l.12.1a10.16,10.16,0,0,0,13.82,0l.11-.1a10.3,10.3,0,0,0-7-17.77Zm.75,18.63h-.05l-.32,0h-.76l-.32,0h0a8.35,8.35,0,0,1-7.46-6.9h0c0-.22-.07-.45-.09-.68a.13.13,0,0,0,0-.06c0-.1,0-.21,0-.31v-.07c0-.1,0-.21,0-.31h0c0-.21,0-.42,0-.63a8.36,8.36,0,0,1,8.29-7.75h0a8.35,8.35,0,0,1,8.33,8.38h0c0,.11,0,.23,0,.33v0c0,.11,0,.22,0,.32v0A8.37,8.37,0,0,1,132.9,27.11Z"/><g class="cls-2"><path class="cls-3" d="M120,27.59a1.72,1.72,0,1,0-1.7-1.71A1.72,1.72,0,0,0,120,27.59Zm0-2.7a1,1,0,0,1,0,2,1,1,0,0,1,0-2Z"/><path d="M130.6,23.92a2,2,0,1,0,2,2A2,2,0,0,0,130.6,23.92Zm.74,2a.74.74,0,1,1-1.48,0,.74.74,0,1,1,1.48,0Z"/><path d="M129.87,19.08l-1.51-3.26a1.67,1.67,0,0,0-1.3-.84h-4.94a.61.61,0,0,0-.61.61v3.14h-5l2-2.11a2,2,0,0,1,1-.42h1.16a.6.6,0,0,0,.6-.61.6.6,0,0,0-.6-.61h-1.16a3,3,0,0,0-1.84.8l-2.92,3.13a.6.6,0,0,0-.12.66.58.58,0,0,0,.55.37h14.16a.64.64,0,0,0,.51-.27h0A.58.58,0,0,0,129.87,19.08Zm-7.15-.34V16.2H127a1,1,0,0,1,.26.16l1.09,2.38Z"/><path d="M134.6,19.28l-1.71-.57a1.27,1.27,0,0,1-.65-.58l-1.51-3.21a3.13,3.13,0,0,0-2.63-1.68h-7.57a4.46,4.46,0,0,0-2.9,1.27l-3.37,3.6a2.73,2.73,0,0,0-.67,1.69v4.62a2.07,2.07,0,0,0,2.07,2.07h.47a3.89,3.89,0,0,0,7.7,0h2a.61.61,0,0,0,0-1.22h-2a3.89,3.89,0,0,0-7.7,0h-.48a.86.86,0,0,1-.86-.86V19.79a1.65,1.65,0,0,1,.33-.86l3.38-3.6a3.26,3.26,0,0,1,2-.88h7.57a1.92,1.92,0,0,1,1.54,1l1.51,3.21a2.48,2.48,0,0,0,1.36,1.21l1.2.4c0,.08,0,.17,0,.26a2.75,2.75,0,0,0,2.1,2.65v1.24a.78.78,0,0,1-.68.86h-.66a3.92,3.92,0,1,0,0,1.21h.66A2,2,0,0,0,137,24.4V22.63h0A3.76,3.76,0,0,0,134.6,19.28Zm1,2.51a1.47,1.47,0,0,1-.66-.92A2.92,2.92,0,0,1,135.61,21.79Zm-18.32,4.09a2.7,2.7,0,1,1,2.69,2.7A2.7,2.7,0,0,1,117.29,25.88Zm16,0a2.69,2.69,0,1,1-2.69-2.71A2.69,2.69,0,0,1,133.29,25.88Z"/><path class="cls-4" d="M134.66,20.37A1.67,1.67,0,0,0,136,22.18,2.8,2.8,0,0,0,134.66,20.37Z"/></g><g id="Page-1"><path id="Shape" d="M136.6,121l4.64,3.32a.59.59,0,0,0,.69,0l4.64-3.32a3.67,3.67,0,0,0,1.54-3v-7.06a.6.6,0,0,0-.35-.55l-5.94-2.58a.55.55,0,0,0-.47,0l-5.94,2.58a.59.59,0,0,0-.36.55V118A3.68,3.68,0,0,0,136.6,121Zm-.37-9.66,5.35-2.33,5.35,2.33V118a2.48,2.48,0,0,1-1.05,2l-4.3,3.07L137.29,120a2.52,2.52,0,0,1-1.06-2Z"/><path d="M140,119.35a.59.59,0,0,0,.82-.1l4.74-6a.59.59,0,0,0-.09-.84.6.6,0,0,0-.83.09l-4.39,5.51-1.91-1.44a.6.6,0,0,0-.71,1Z"/><path d="M116.09,136.74h.55v2.4a1.79,1.79,0,0,0,1.78,1.79H122a1.79,1.79,0,0,0,1.78-1.79v-2.4H138v2.4a1.79,1.79,0,0,0,1.78,1.79h3.53a1.79,1.79,0,0,0,1.78-1.79v-2.4h.55a1.19,1.19,0,0,0,1.18-1.2v-8.93a2.93,2.93,0,0,0-1-2.25l2-1.46a6.09,6.09,0,0,0,2.54-4.93v-8.61a.58.58,0,0,0-.36-.54l-8.26-3.59a.55.55,0,0,0-.47,0L133,108.82a.58.58,0,0,0-.35.54v2.37h-9a3,3,0,0,0-2.79,2l-3.5,10a3,3,0,0,0-2.53,2.94v8.92A1.2,1.2,0,0,0,116.09,136.74Zm5.86,3h-3.53a.6.6,0,0,1-.6-.6v-2.4h4.73v2.4A.6.6,0,0,1,122,139.74Zm-1.77-4.19H119v-1.19h1.18Zm23.17,4.19h-3.54a.6.6,0,0,1-.59-.6v-2.4H144v2.4A.6.6,0,0,1,143.35,139.74Zm-.59-4.19h-1.18v-1.19h1.18Zm-8.89-25.79,7.71-3.35,7.72,3.35V118a4.9,4.9,0,0,1-2.05,4L141.58,126,135.92,122a4.9,4.9,0,0,1-2-4Zm9.45,18.07V129a.58.58,0,0,1-.59.59h-3.54a.58.58,0,0,1-.59-.59,1.78,1.78,0,0,1,1.77-1.78h2.36A.59.59,0,0,1,143.32,127.83ZM132.69,115.3v1.18h-4.17V115.3Zm0-1.19h-1.18v-1.19h1.18Zm-10.67,0a1.78,1.78,0,0,1,1.68-1.2h6.56v1.19h-1.73a1.19,1.19,0,0,0-1.19,1.19v1.18a1.19,1.19,0,0,0,1.19,1.19h4.16V118a6.12,6.12,0,0,0,2.55,4.94l1,.73H118.67Zm-6,12.46a1.78,1.78,0,0,1,1.77-1.79h20.09l1.8,1.3A3,3,0,0,0,137.4,129a1.8,1.8,0,0,0,1.79,1.8h3.53A1.78,1.78,0,0,0,144.5,129v-1.18a1.77,1.77,0,0,0-1.13-1.65l1.46-1.05a1.74,1.74,0,0,1,.85,1.51v8.91H144v-1.18a1.2,1.2,0,0,0-1.19-1.2h-1.17a1.19,1.19,0,0,0-1.19,1.2v1.18h-19v-1.18a1.2,1.2,0,0,0-1.19-1.2H119a1.19,1.19,0,0,0-1.19,1.2v1.18H116Z"/><path d="M126.13,114.67a.61.61,0,0,0-.61-.56h-1a1.76,1.76,0,0,0-1.67,1.19l-2.21,6.31a.59.59,0,0,0,.32.76.58.58,0,0,0,.78-.35l2.22-6.33a.6.6,0,0,1,.56-.39h1A.59.59,0,0,0,126.13,114.67Z"/><path d="M117.27,129a1.78,1.78,0,0,0,1.78,1.79h3.53a1.78,1.78,0,0,0,1.77-1.78,3,3,0,0,0-2.95-3h-2.35a1.78,1.78,0,0,0-1.78,1.79Zm1.18-1.18a.59.59,0,0,1,.59-.59h2.36a1.78,1.78,0,0,1,1.77,1.78.58.58,0,0,1-.59.59H119a.58.58,0,0,1-.59-.59Z"/><path d="M126.72,134.36h8.33a1.18,1.18,0,0,0,1.18-1.19V130.8a1.19,1.19,0,0,0-1.18-1.19h-8.33a1.2,1.2,0,0,0-1.19,1.19v2.37A1.19,1.19,0,0,0,126.72,134.36Zm0-3.56H135v2.37h-8.26Z"/></g><path d="M77.22,92.05l0-.07c-.82-1.63-2.62-2-5.36-1.17l0,0c-1.75.68-4.37,1.84-6.28,2.7a1.14,1.14,0,0,0-.06-.25,2.82,2.82,0,0,0-1.7-1.64c-1.55-.74-5.36-2.44-7.49-3.38a6,6,0,0,0-4-.31l-1.84.48A3,3,0,0,0,47.49,86h-4a1.63,1.63,0,0,0-1.62,1.63v14.35a1.63,1.63,0,0,0,1.62,1.63h5.33a1.63,1.63,0,0,0,1.62-1.63v-.52L56,103.65A5.12,5.12,0,0,0,58,104a5.24,5.24,0,0,0,2.1-.44c2.24-1,5.63-2.67,8.92-4.27,2.23-1.1,4.35-2.13,5.89-2.85h0C76.92,95.45,77.84,93.72,77.22,92.05ZM49,101.94a.15.15,0,0,1-.15.15H43.53a.15.15,0,0,1-.15-.15V87.59a.15.15,0,0,1,.15-.15h4A1.53,1.53,0,0,1,49,89Zm25.22-6.83c-1.55.73-3.67,1.77-5.91,2.86-3.27,1.6-6.66,3.26-8.87,4.25a3.67,3.67,0,0,1-2.87,0l-6.1-2.45V90l2.17-.58a4.55,4.55,0,0,1,3,.24c2.12.94,5.91,2.63,7.45,3.36.79.38.9.65.92.7s0,.19-.13.37h0c-.1.12-.18.24-.27.33l-.52.24a1.63,1.63,0,0,1-.6-.14,6.51,6.51,0,0,1-1-.58,5.5,5.5,0,0,0-3.32-1.18,1.53,1.53,0,0,0-1.36.77,2.64,2.64,0,0,0,.31,2.29.79.79,0,0,0,1,.09A.62.62,0,0,0,58.4,95a1.87,1.87,0,0,1-.28-.8l.15,0a4.25,4.25,0,0,1,2.43,1,7.29,7.29,0,0,0,1.26.71,3.23,3.23,0,0,0,1.15.25,2.08,2.08,0,0,0,1.31-.46C66,94.91,70,93.12,72.3,92.22c2.8-.87,3.36,0,3.55.38C76.33,94,74.6,94.93,74.23,95.11Z"/><path d="M70.91,65.07a10.86,10.86,0,0,0-15.42,0,11,11,0,0,0,0,15.5,10.91,10.91,0,0,0,18.62-7.75A10.93,10.93,0,0,0,70.91,65.07ZM63.2,82.5a9.68,9.68,0,1,1,9.63-9.68A9.66,9.66,0,0,1,63.2,82.5Z"/><path d="M63.89,72.17H62.55a1.43,1.43,0,0,1-1.44-1.5,1.41,1.41,0,0,1,1.4-1.32h2.73a.66.66,0,0,0,.65-.57.65.65,0,0,0-.63-.72H63.84v-1.4a.64.64,0,1,0-1.28,0v1.42h0a2.7,2.7,0,1,0,0,5.39h1.34A1.42,1.42,0,0,1,65.29,75a1.4,1.4,0,0,1-1.4,1.32H61.17a.64.64,0,0,0-.65.57.63.63,0,0,0,.63.71h1.41V79a.66.66,0,0,0,.57.66.64.64,0,0,0,.71-.64V77.56h0a2.7,2.7,0,1,0,0-5.39Z"/><path d="M85.45,182.08,84,176.23a.89.89,0,0,0,.7-.87v-.9A3.71,3.71,0,0,0,81,170.74H74.29v-1.92A1.83,1.83,0,0,0,72.46,167H37.53a.92.92,0,0,0-.92.92v17.15a.44.44,0,0,0,.14.33.92.92,0,0,0,1.63-.57v-16a0,0,0,0,1,0,0H72.47a.06.06,0,0,1,.06.06v16a.89.89,0,0,0,.75.9.88.88,0,0,0,1-.87v-1H84.8a2.91,2.91,0,0,1,2.77,2H84.79a.88.88,0,0,0-.88.89v1.86a2.77,2.77,0,0,0,2.77,2.77h1v3.87H85.3a5.59,5.59,0,0,0-10.58,0h-.43v-6.64a.91.91,0,0,0-.75-.91.89.89,0,0,0-1,.88v6.67H54.14a5.61,5.61,0,0,0-10.61,0H38.44a.06.06,0,0,1-.06-.06v-1.93h3.8a.9.9,0,0,0,.9-.76.88.88,0,0,0-.87-1H33.75a.9.9,0,0,0-.9.76.88.88,0,0,0,.87,1h2.89v1.92A1.83,1.83,0,0,0,38.44,197H43v.06a5.65,5.65,0,0,0,11.29,0V197H74.35v.06a5.64,5.64,0,0,0,11.28,0V197h2.92a.87.87,0,0,0,.88-.88v-9.44A4.68,4.68,0,0,0,85.45,182.08Zm-11.16-9.57H81a1.94,1.94,0,0,1,2,1.94v0H74.29Zm0,9.49v-5.74h7.82L83.55,182ZM48.84,200.92a3.84,3.84,0,1,1,3.84-3.83A3.84,3.84,0,0,1,48.84,200.92Zm31.18,0a3.84,3.84,0,1,1,3.84-3.83A3.85,3.85,0,0,1,80,200.92Zm7.65-11.3h-1a1,1,0,0,1-1-1v-1h2v2Z"/><path d="M48.84,195.26a1.83,1.83,0,1,0,1.83,1.83A1.83,1.83,0,0,0,48.84,195.26Z"/><path d="M80,195.26a1.83,1.83,0,1,0,1.83,1.83A1.83,1.83,0,0,0,80,195.26Z"/><path d="M69.61,191.49H56.44a.9.9,0,0,0-.9.76.88.88,0,0,0,.87,1H69.59a.9.9,0,0,0,.9-.76A.88.88,0,0,0,69.61,191.49Z"/><path d="M46.94,187.74H35.65a.9.9,0,0,0-.9.75.88.88,0,0,0,.87,1H46.91a.9.9,0,0,0,.9-.76A.88.88,0,0,0,46.94,187.74Z"/><path d="M63.64,175.69a.89.89,0,0,0-1.25,0l-7.88,7.87-4.1-4.09a.88.88,0,0,0-1.25,1.25l4.72,4.72a.89.89,0,0,0,1.26,0l8.5-8.49A.89.89,0,0,0,63.64,175.69Z"/><path d="M186.36,158.82h1.15V160h-1.15Z"/><path d="M196.67,158.82h1.15V160h-1.15Z"/><path d="M209.83,158.52,207,157.8v-.72a2.89,2.89,0,0,0,1.14-2.3v-1.14h1.72v-1.15h-1.72a2.84,2.84,0,0,0-.84-2,2.76,2.76,0,0,0-1.45-.78v-1.22a1.68,1.68,0,0,0-.5-1.21,1.66,1.66,0,0,0-1.17-.51,1.75,1.75,0,0,0-1.76,1.77v6.29a2.88,2.88,0,0,0,1.14,2.3v.7l-2.85.72a2,2,0,0,0-.65.28,3,3,0,0,0-.51-1.13h0a1.72,1.72,0,0,0,1.72-1.72,1.75,1.75,0,0,0-1.75-1.73h-1.13l-.28-1.57a2.29,2.29,0,0,0-2.26-1.88h-7.44a2.29,2.29,0,0,0-2.25,1.89l-.29,1.56h-1.14a1.78,1.78,0,0,0-1.76,1.67,1.73,1.73,0,0,0,1.72,1.78h0a3,3,0,0,0-.58,1.73v1.73a1.16,1.16,0,0,0,1.15,1.15h.57v1.15h-4v-15a1.68,1.68,0,0,0-.5-1.21,1.62,1.62,0,0,0-1.27-.51,1.77,1.77,0,0,0-1.66,1.77V179h-.74a.38.38,0,0,0-.35.27l-.68,2.74a.35.35,0,0,0,.35.44h6.28a.36.36,0,0,0,.35-.44l-.68-2.74a.38.38,0,0,0-.35-.27h-.75V168h19.47v14.39h8V166.31h1.14a1.16,1.16,0,0,0,1.15-1.15v-4.41A2.29,2.29,0,0,0,209.83,158.52ZM207,154.8a1.73,1.73,0,0,1-.86,1.49,1.72,1.72,0,0,1-2.58-1.49v-1.16H207Zm0-2.31h-3.43a1.72,1.72,0,0,1,2.93-1.22A1.74,1.74,0,0,1,207,152.49Zm-3.46-4a.59.59,0,0,1,.51-.59.57.57,0,0,1,.47.17.53.53,0,0,1,.17.4v1.21a3,3,0,0,0-1.15.53ZM201,159.63l3.72-.93v-1.12a2.69,2.69,0,0,0,.57.06,3.55,3.55,0,0,0,.57-.06v1.12l3.72.92a1.15,1.15,0,0,1,.86,1.12v2.11h-1.14v-2.3h-1.15v2.3H207v-2.3h-3.44v2.3H202.4v-2.3h-1.15v2.3h-1.14v-2.1A1.16,1.16,0,0,1,201,159.63Zm4.29,3.68a1.47,1.47,0,0,0-.57-.35V161.7h1.14V163A1.83,1.83,0,0,0,205.26,163.31Zm-5.15,1.85V164h4a.52.52,0,0,1,.4.17.55.55,0,0,1,.17.45.6.6,0,0,1-.59.53ZM199,160.77v.36h-3.27l.85-3.46h.66a2.75,2.75,0,0,1,.81.19l0,0a1.67,1.67,0,0,1,.83,1.49v1.39Zm-4.5.36H189.7l-.86-3.46h6.55Zm-4.73,1.15h4.58v1.15H189.8Zm5.73,0h1.71v1.15h-1.71Zm2.86,0H199v1.15h-.57Zm1.15-6.91a.59.59,0,0,1,.59.51.6.6,0,0,1-.17.48.56.56,0,0,1-.4.16h-.77l-.21-1.15Zm-12.28-2.51a1.15,1.15,0,0,1,1.13-.94h7.45a1.14,1.14,0,0,1,1.13.94l.67,3.69-.36,0H187l-.36,0Zm-3,3.49a.52.52,0,0,1-.16-.45.59.59,0,0,1,.58-.53h1l-.21,1.15h-.77A.57.57,0,0,1,184.27,156.35Zm.95,3.05a1.72,1.72,0,0,1,.83-1.48l.07,0a1.82,1.82,0,0,1,.82-.21h.7l.86,3.46h-3.28Zm1.72,2.88h1.71v1.15h-1.71Zm-5.18,19h-3.34a.36.36,0,0,1-.35-.44l.11-.43a.36.36,0,0,1,.35-.28h3.13a.37.37,0,0,1,.35.28l.11.43A.37.37,0,0,1,181.76,181.27Zm-2.27-2.3V148.48a.6.6,0,0,1,.51-.59.57.57,0,0,1,.47.17.54.54,0,0,1,.17.4V179Zm2.29-12.09v-2.3H199v.58a1.16,1.16,0,0,0,1.15,1.15h1.14v.57Zm20.62,2.31h2.29v12.08H202.4Zm3.43,12.08V169.19h2.29v12.08ZM208.12,168H202.4v-1.72h1.72a1.68,1.68,0,0,0,1.14-.45,1.69,1.69,0,0,0,1.15.45h1.71Zm-1.7-2.87a.58.58,0,0,1-.58-.51.55.55,0,0,1,.17-.48.52.52,0,0,1,.4-.16h4v1.15Z"/><path d="M194.55,176.81l.81.81.74-.74v.28a4,4,0,1,1-4-4V172a5.18,5.18,0,1,0,5.15,5.18v-.34l.74.74.81-.81-2.13-2.14Z"/><path d="M191.54,177l-1.31-1.31-.81.81,2.13,2.14,7.28-7.32-.81-.81Z"/><path d="M210.13,206a.69.69,0,0,1,0-1.37.69.69,0,0,1,0,1.37Z"/><path d="M222.31,142.27c10.57,20.86,2.76,46.42-11.7,63.5-.57.67-1.52-.3-1-1,14-16.58,21.76-41.58,11.49-61.85-.4-.78.77-1.47,1.17-.68Z"/><path d="M27.58,107.72c12.23,17.81,33.2,28.87,52.76,36.58,17.25,6.8,36.8,12.7,55.54,11.84.87,0,.87,1.33,0,1.37-19.63.9-40.18-5.45-58.14-12.79C58.6,136.9,38.42,125.9,26.41,108.41c-.5-.72.68-1.41,1.17-.69Z"/><path d="M27,108.75a.69.69,0,0,1,0-1.37.69.69,0,0,1,0,1.37Z"/><path d="M125.12,68.06A240.63,240.63,0,0,0,89.51,57.9c-15.67-3.15-33.66-5.5-49,.22a29.11,29.11,0,0,0-18,18c-.28.82-1.59.47-1.31-.37,11.53-33.27,60.77-22,85.66-15q9.44,2.67,18.66,6c.81.3.46,1.62-.36,1.32Z"/><path d="M174.54,62.44c-8.24,14-26.66,14.4-40.45,9.47-.82-.29-.47-1.61.36-1.31,13.18,4.71,31,4.57,38.92-8.84a.68.68,0,0,1,1.17.68Z"/><path d="M23.92,103.13a.67.67,0,0,0,.52-1.11C19,95.4,21.12,80.75,21.14,80.6a.68.68,0,0,0-1.34-.2c-.09.62-2.28,15.4,3.6,22.49A.67.67,0,0,0,23.92,103.13Z"/><path d="M153.23,156.86c.39,0,9.63-.13,18.23-11.33,20.22-26.36,41.42-12.5,42.31-11.89a.68.68,0,0,0,.76-1.13c-.23-.16-23.13-15.21-44.15,12.18-8.16,10.64-17.06,10.81-17.15,10.81a.68.68,0,0,0,0,1.36Z"/><path d="M205.53,210.59a.67.67,0,0,0,.48-.2l1.15-1.16a.68.68,0,1,0-1-1l-1.15,1.16a.68.68,0,0,0,.48,1.16Z"/><path d="M130.82,70.78a.66.66,0,0,0,.6-.38.67.67,0,0,0-.3-.91l-2.3-1.16a.69.69,0,0,0-.91.31.67.67,0,0,0,.31.91l2.29,1.16A.7.7,0,0,0,130.82,70.78Z"/><path d="M202.43,212.81c-21.25,15.62-47.13,25.08-73,29.17-24.31,3.85-51.15,3.34-73.55-8a63.93,63.93,0,0,1-27.16-25.66c-.43-.77.74-1.46,1.17-.69,25.82,45.93,93.26,39.21,134.86,23.65a152.23,152.23,0,0,0,37-19.64c.71-.52,1.38.66.69,1.18Z"/><path d="M27.94,214.63a.67.67,0,0,0,.67-.57l1-6,6.08,3.06a.68.68,0,0,0,.6-1.22l-6.9-3.47a.66.66,0,0,0-.61,0,.7.7,0,0,0-.36.5l-1.15,6.93a.68.68,0,0,0,.56.78Z"/><path class="cls-5" d="M218.67,118.25a.33.33,0,0,1-.33-.33V114.2a.34.34,0,0,1,.67,0v3.72A.33.33,0,0,1,218.67,118.25Z"/><path class="cls-5" d="M218.67,125.24a.33.33,0,0,1-.33-.33v-3.72a.34.34,0,0,1,.67,0v3.72A.34.34,0,0,1,218.67,125.24Z"/><path class="cls-5" d="M224,119.89h-3.7a.34.34,0,0,1,0-.67H224a.34.34,0,0,1,0,.67Z"/><path class="cls-5" d="M217.05,119.89h-3.7a.34.34,0,0,1,0-.67h3.7a.34.34,0,0,1,0,.67Z"/><path class="cls-5" d="M99.82,6.41a.33.33,0,0,1-.33-.34V2.35A.33.33,0,0,1,99.82,2a.33.33,0,0,1,.33.33V6.07A.34.34,0,0,1,99.82,6.41Z"/><path class="cls-5" d="M99.82,13.4a.33.33,0,0,1-.33-.34V9.34A.33.33,0,0,1,99.82,9a.33.33,0,0,1,.33.33v3.72A.34.34,0,0,1,99.82,13.4Z"/><path class="cls-5" d="M105.14,8h-3.69a.34.34,0,1,1,0-.67h3.69a.34.34,0,1,1,0,.67Z"/><path class="cls-5" d="M98.19,8h-3.7a.34.34,0,0,1,0-.67h3.7a.34.34,0,0,1,0,.67Z"/><path class="cls-5" d="M5.66,100.41a.33.33,0,0,1-.33-.33V96.36A.33.33,0,0,1,5.66,96a.34.34,0,0,1,.33.34v3.72A.33.33,0,0,1,5.66,100.41Z"/><path class="cls-5" d="M5.66,107.4a.33.33,0,0,1-.33-.33v-3.72a.33.33,0,0,1,.33-.34.34.34,0,0,1,.33.34v3.72A.33.33,0,0,1,5.66,107.4Z"/><path class="cls-5" d="M11,102.05H7.29a.34.34,0,1,1,0-.67H11a.34.34,0,1,1,0,.67Z"/><path class="cls-5" d="M4,102.05H.33a.34.34,0,0,1,0-.67H4a.34.34,0,0,1,0,.67Z"/><path class="cls-5" d="M165.42,243.16a.33.33,0,0,1-.33-.33v-3.72a.33.33,0,0,1,.66,0v3.72A.33.33,0,0,1,165.42,243.16Z"/><path class="cls-5" d="M165.42,250.15a.33.33,0,0,1-.33-.33V246.1a.33.33,0,1,1,.66,0v3.72A.33.33,0,0,1,165.42,250.15Z"/><path class="cls-5" d="M170.75,244.8h-3.7a.34.34,0,1,1,0-.67h3.7a.34.34,0,0,1,0,.67Z"/><path class="cls-5" d="M163.79,244.8H160.1a.34.34,0,1,1,0-.67h3.69a.34.34,0,1,1,0,.67Z"/><path d="M188,193.37l-.29.26a12.94,12.94,0,0,0-.91-1.61V197h-.37v-5.31a8.8,8.8,0,0,1-1,2.67l-.27-.27a11.53,11.53,0,0,0,1.24-3.24h-1.17v-.34h1.21v-1.62h.37v1.62h.84v.34h-.84v.71A14,14,0,0,1,188,193.37Zm2.43,2.73-.26.25a6.11,6.11,0,0,0-1-1,6,6,0,0,1-1.33,1.63l-.27-.25a5.7,5.7,0,0,0,1.75-2.61h-1V192h1.81v2.12h-.78l.28.16a6.81,6.81,0,0,1-.34.78A7.56,7.56,0,0,1,190.39,196.1Zm3-5-.27.29a10.23,10.23,0,0,1-2.63-2,8.5,8.5,0,0,1-2.6,2l-.23-.29a7.72,7.72,0,0,0,2.94-2.35l.29.16-.18.23A8.94,8.94,0,0,0,193.35,191.11Zm-3.62,2.67v-1.44h-1.1v1.44Zm2.09-2.55h-2.75v-.35h2.75Zm1.47,5.52L193,197a10.83,10.83,0,0,0-1.39-1.41,5.91,5.91,0,0,1-1.2,1.4l-.26-.25a5.42,5.42,0,0,0,1.73-2.61h-1V192h1.8v2.12h-.77l.29.16a6.14,6.14,0,0,1-.43,1A13,13,0,0,1,193.29,196.75Zm-.94-3v-1.44h-1.1v1.44Z"/><path d="M195.12,194.09a11.13,11.13,0,0,1-.29,2.3l-.32-.09a10.66,10.66,0,0,0,.29-2.22Zm2.73-4.7H196.7v1h1v.34h-1v1h1v.34h-1v1h1v.16a15.72,15.72,0,0,1-.17,3.29c-.11.25-.38.37-.81.37h-.39l-.11-.35.5,0a.93.93,0,0,0,.44-.08,2.43,2.43,0,0,0,.16-1.12c0-.7,0-1.21,0-1.55v-.4H195v-4.42h2.83Zm-1.51,1v-1h-1v1Zm0,1.35v-1h-1v1Zm0,1.38v-1h-1v1Zm-.89,3.16c0-.22,0-.44,0-.66a13.58,13.58,0,0,0-.08-1.56l.28,0a16,16,0,0,1,.12,2v.21Zm1-.49-.31.09a11,11,0,0,0-.25-1.84l.28-.06A10.9,10.9,0,0,1,196.49,195.8Zm.61-.46-.28.09a12,12,0,0,0-.32-1.47l.26-.08A9.91,9.91,0,0,1,197.1,195.34Zm3.06.73-.29.24a7.12,7.12,0,0,0-.79-.88,4.29,4.29,0,0,1-1.2,1.55l-.26-.25a4.22,4.22,0,0,0,1.51-2.61h-.93V192h1.72v2.12h-.7l.26.13a7,7,0,0,1-.26.85A6.57,6.57,0,0,1,200.16,196.07Zm2.52-5-.25.29a8.63,8.63,0,0,1-2.31-2,7.11,7.11,0,0,1-2.21,2l-.26-.26a7,7,0,0,0,2.56-2.38l.28.16-.16.25A6.78,6.78,0,0,0,202.68,191.11Zm-3.12,2.67v-1.44h-1v1.44Zm1.85-2.55H199v-.35h2.43Zm1.23,5.52-.29.24a12.25,12.25,0,0,0-1.15-1.4,5.28,5.28,0,0,1-1.06,1.39l-.29-.25a4.64,4.64,0,0,0,1.51-2.61h-.88V192h1.71v2.12h-.74l.26.13a6.4,6.4,0,0,1-.37,1A12.19,12.19,0,0,1,202.64,196.75Zm-.8-3v-1.44h-1v1.44Z"/><path d="M132.19,231.57a6.56,6.56,0,0,1-.22,1.09,1.47,1.47,0,0,1-.29.61.5.5,0,0,1-.34.11c-.31,0-.62-.23-.94-.69a6,6,0,0,1-.66-1.21,11.07,11.07,0,0,1-2.28,1.94l-.2-.3a11.1,11.1,0,0,0,2.35-2,16.06,16.06,0,0,1-.58-3.91h-3.54v1.42H128c0,.68,0,1.33-.09,2a3.89,3.89,0,0,1-.2,1.12,1.26,1.26,0,0,1-.29.32,1.55,1.55,0,0,1-.83.14l-.48,0-.12-.37a3.84,3.84,0,0,0,.5,0,1.65,1.65,0,0,0,.62-.07.55.55,0,0,0,.23-.17,3,3,0,0,0,.19-.92,15.21,15.21,0,0,0,.09-1.68h-2.1v.82a6.66,6.66,0,0,1-1.1,3.68l-.31-.28a6,6,0,0,0,1-3.43v-2.9H129c0-.52,0-1.05,0-1.58h.39v1.58H132v.35h-2.62a15.65,15.65,0,0,0,.52,3.55,9.38,9.38,0,0,0,1.36-2.66l.34.13a10.16,10.16,0,0,1-1.57,2.94,4.6,4.6,0,0,0,.69,1.39c.27.33.47.49.61.49a.17.17,0,0,0,.13-.07,2.32,2.32,0,0,0,.18-.55,6.33,6.33,0,0,0,.17-1Zm-.58-5.2-.3.25a4.25,4.25,0,0,0-1-1.05l.26-.24A6.16,6.16,0,0,1,131.61,226.37Z"/><path d="M141.53,233.07l-.19.34a9.8,9.8,0,0,1-3.88-1.78,10.54,10.54,0,0,1-3.82,1.78l-.21-.34a9.79,9.79,0,0,0,3.75-1.68,7.2,7.2,0,0,1-1.62-2.26l.34-.16a6.47,6.47,0,0,0,1.57,2.19,7.49,7.49,0,0,0,1.69-2.19l.36.16a8.59,8.59,0,0,1-1.77,2.26A9.82,9.82,0,0,0,141.53,233.07Zm-.09-6.38h-7.91v-.34h4a6,6,0,0,0-.49-1l.37-.12a7.75,7.75,0,0,1,.53,1.16h3.52Zm-5,.75A14.16,14.16,0,0,1,133.8,230l-.25-.3a13,13,0,0,0,2.61-2.46Zm4.91,2.28-.29.25a16.86,16.86,0,0,0-2.58-2.5l.27-.27A17.23,17.23,0,0,1,141.39,229.72Z"/><path d="M60.8,213.21l-.14.33H57.53a7.14,7.14,0,0,1-2.1-.26,4.1,4.1,0,0,1-1.46-.83,6.57,6.57,0,0,1-1.11,1.14l-.28-.24a5.13,5.13,0,0,0,1.9-3H52.87V210a18.83,18.83,0,0,0,1.54-2H52.65v-.35h2.2v.35q-.66,1-1.53,2h1.54v.35a5.8,5.8,0,0,1-.69,1.84,3.83,3.83,0,0,0,1.83.9,30.39,30.39,0,0,0,3.8.15Zm-6.27-6.37-.26.28A9.42,9.42,0,0,0,53,205.8l.22-.28A13.7,13.7,0,0,1,54.53,206.84Zm5.78,5a.63.63,0,0,1-.72.7h-.78l-.14-.38c.3,0,.61,0,.93,0s.34-.1.34-.31v-2.92h-4v3.59h-.37v-3.94h.63v-2.77h3.5v2.77h.62Zm-1-4.71v-1H56.57v2.43h1.09v-1.47ZM59,211.59H56.88v-1.78H59Zm-.36-.34v-1.09H57.25v1.09Zm.68-2.67v-1.13H58v1.13Z"/><path d="M69.69,205.92a25.07,25.07,0,0,1-3.14.52c-1.12.11-2.09.17-2.88.17V208h6v2.85H63.57a5.48,5.48,0,0,1-1.3,2.93l-.3-.3a4.45,4.45,0,0,0,1-1.68,8.41,8.41,0,0,0,.33-2.64v-2.89a29,29,0,0,0,6.19-.68Zm-.41,4.57v-2.13h-5.6c0,.87,0,1.58-.07,2.13Z"/><text class="cls-6" transform="translate(122.25 151.88) scale(0.99 1)">看車</text><text class="cls-6" transform="translate(50.3 116.34) scale(0.99 1)">出價</text><text class="cls-6" transform="translate(127.23 61.5) scale(0.99 1)">找車</text></svg>