<?xml version="1.0" encoding="utf-8"?>
<!-- Generator: Adobe Illustrator 23.0.0, SVG Export Plug-In . SVG Version: 6.00 Build 0)  -->
<svg version="1.1" id="圖層_1" xmlns="http://www.w3.org/2000/svg" xmlns:xlink="http://www.w3.org/1999/xlink" x="0px" y="0px"
	 viewBox="0 0 228.3 250.1" style="enable-background:new 0 0 228.3 250.1;" xml:space="preserve">
<style type="text/css">
	.st0{clip-path:url(#SVGID_2_);}
	.st1{stroke:#000000;stroke-width:5;stroke-miterlimit:10;}
	.st2{fill:#F8F8F9;}
	.st3{fill:#333333;}
	.st4{stroke:#000000;stroke-width:0.25;stroke-linecap:round;stroke-linejoin:round;stroke-miterlimit:10;}
	.st5{enable-background:new    ;}
</style>
<title>_</title>
<path d="M157.1,196.1l-9.1-9.2c-0.4-0.4-1-0.4-1.4,0c-0.4,0.4-0.4,1,0,1.4l8.4,8.5l-4.9,5c-0.1,0.1-0.4,0.2-0.5,0c0,0,0,0,0,0
	l-9.7-9.8c-0.2-0.2-0.2-0.4,0-0.6l3.3-3.3c0.3-0.3,0.4-0.9,0.1-1.3c-0.3-0.4-1-0.5-1.4-0.1c0,0,0,0,0,0l-3.3,3.3
	c-0.7,0.7-0.9,1.7-0.5,2.6l-1.1,1.1h-7.8l-1.4-1.4c0.1-0.4,0.1-0.7,0-1.1c-0.1-0.4-0.3-0.9-0.7-1.2l-3.2-3.2c-0.4-0.4-1-0.4-1.3,0
	c0,0,0,0,0,0c-0.4,0.4-0.4,1,0,1.4l3.2,3.2c0.1,0.1,0.1,0.2,0.1,0.3c0,0.1,0,0.2-0.1,0.3l-0.3,0.3l-9.4,9.5l0,0
	c-0.1,0.1-0.2,0.1-0.3,0.1c-0.1,0-0.2,0-0.3-0.1l-4.9-5l8.5-8.6c0.3-0.3,0.4-0.9,0.1-1.3c-0.3-0.4-1-0.5-1.4-0.1c0,0,0,0,0,0
	l-9.2,9.3c-0.4,0.4-0.4,1,0,1.4l5.6,5.6c0.4,0.4,1,0.7,1.6,0.7c0.3,0,0.5,0,0.8-0.1l3.2,3.2c-0.3,0.5-0.4,1-0.4,1.6
	c0,1.8,1.5,3.3,3.3,3.3l0,0c0,1.8,1.5,3.3,3.3,3.3l0,0c0,1.8,1.5,3.3,3.3,3.3c0.5,0,1.1-0.1,1.5-0.4l1.1,1.1
	c0.5,0.5,1.2,0.8,1.9,0.9c1.6,0.1,3-1.1,3.2-2.7c0,0,0-0.1,0-0.1c1.6-0.1,2.8-1.4,2.8-3l0,0c1.7-0.1,3-1.5,3-3.2
	c1.7-0.1,3.1-1.5,3.1-3.2c0-0.5-0.1-1-0.3-1.4l3.1-2.9c0.4,0.3,0.8,0.4,1.3,0.4c0.6,0,1.2-0.2,1.6-0.7l5.6-5.6
	C157.4,197,157.5,196.5,157.1,196.1z M122.6,209.7c-0.8,0-1.4-0.6-1.4-1.4c0-0.8,0.6-1.4,1.4-1.4c0.8,0,1.4,0.6,1.4,1.4c0,0,0,0,0,0
	C123.9,209.1,123.3,209.7,122.6,209.7z M126.9,212.5l-0.1,0.1c-0.2,0.2-0.6,0.3-0.9,0.4c-0.8,0-1.4-0.6-1.4-1.4
	c0-0.8,0.6-1.4,1.4-1.4c0.8,0,1.4,0.6,1.4,1.4c0,0,0,0,0,0C127.2,211.9,127.1,212.3,126.9,212.5z M130.1,215.9L130.1,215.9
	L130.1,215.9c-0.3,0.3-0.6,0.4-1,0.4c-0.8,0-1.4-0.6-1.4-1.4c0-0.3,0.1-0.7,0.3-0.9l0.1-0.1c0.6-0.5,1.4-0.5,1.9,0.1
	S130.6,215.3,130.1,215.9L130.1,215.9z M143.4,208.5c-0.5,0.5-1.2,0.5-1.7,0l-2-2c-0.4-0.4-1-0.4-1.3,0c0,0,0,0,0,0
	c-0.4,0.4-0.4,1,0,1.4l2,2l0,0c0.5,0.5,0.5,1.3,0,1.8c-0.5,0.5-1.3,0.6-1.8,0.1c0,0,0,0,0,0l-1.9-1.8c-0.5-0.3-1.1-0.1-1.3,0.4
	c-0.2,0.3-0.1,0.7,0,1l2.1,2c0.2,0.2,0.3,0.5,0.3,0.7c0,0.3-0.1,0.6-0.3,0.8c-0.4,0.4-1,0.4-1.4,0.1c0,0,0,0-0.1-0.1l-1-1
	c-0.4-0.4-1-0.4-1.4,0c-0.2,0.2-0.3,0.4-0.3,0.7c0,0.3,0.1,0.5,0.3,0.7l1,1c0.4,0.4,0.4,1,0,1.4c-0.2,0.2-0.4,0.3-0.7,0.3
	c-0.3,0-0.5-0.1-0.7-0.3l-1.1-1.1c0.2-0.5,0.4-1,0.4-1.5c0-1.8-1.5-3.3-3.3-3.3l0,0c0-1.8-1.5-3.3-3.3-3.3l0,0
	c0-1.8-1.5-3.3-3.3-3.3c-0.5,0-1.1,0.1-1.5,0.4l-3-3l8.5-8.5l1.5,1.5c0.2,0.2,0.4,0.3,0.7,0.3h1.2l-3.8,3.8
	c-1.2,1.2-1.3,3.1-0.1,4.3c1.2,1.2,3.1,1.3,4.3,0.1c0,0,0.1-0.1,0.1-0.1l3.2-3.2h3.5l6.2,6.2c0.2,0.2,0.4,0.5,0.4,0.9
	C143.7,207.9,143.6,208.2,143.4,208.5L143.4,208.5z M144.2,204.9l-5.9-5.9l0,0c-0.2-0.2-0.5-0.3-0.8-0.3l-4.2-0.1
	c-0.3,0-0.5,0.1-0.7,0.3l-3.6,3.5c-0.2,0.2-0.4,0.3-0.6,0.3c-0.4,0.1-0.7-0.1-1-0.3c-0.3-0.3-0.4-0.6-0.3-1c0-0.2,0.2-0.4,0.3-0.6
	l5.2-5.2h4.7c0.3,0,0.5-0.1,0.7-0.3l1.3-1.3l8,8L144.2,204.9z"/>
<ellipse cx="150.3" cy="197.2" rx="1" ry="1"/>
<ellipse cx="115.2" cy="197.3" rx="1" ry="1"/>
<ellipse cx="120.8" cy="185.2" rx="1" ry="1"/>
<ellipse cx="144.8" cy="185.2" rx="1" ry="1"/>
<path d="M152.8,0.1h-33.8c-1.6,0-2.9,1.3-2.8,2.9c0,0,0,0,0,0v3.2c0.2,0.5,0.7,0.8,1.3,0.6c0.3-0.1,0.5-0.3,0.6-0.6V3
	c0-0.5,0.4-1,0.9-1h33.7c0.5,0,1,0.5,0.9,1v43c0,0.5-0.4,1-0.9,1h-33.8c-0.5,0-0.9-0.5-0.9-1v-3c0-0.5-0.4-1-0.9-1c-0.5,0-1,0.4-1,1
	v3.1c0,1.6,1.3,2.8,2.8,2.9h33.8c1.6,0,2.9-1.3,2.9-2.9V3C155.7,1.4,154.4,0.1,152.8,0.1C152.8,0.1,152.8,0.1,152.8,0.1z"/>
<path d="M148.3,36.9h-22.8c-0.5,0.2-0.8,0.7-0.7,1.3c0.1,0.3,0.3,0.6,0.7,0.7h22.8c0.5-0.2,0.8-0.7,0.7-1.3
	C148.8,37.2,148.6,37,148.3,36.9z"/>
<path d="M148.9,42.1c-0.2-0.2-0.4-0.3-0.7-0.3c-0.2,0-0.5,0.1-0.7,0.3c-0.2,0.2-0.3,0.4-0.3,0.7c0,0.3,0.1,0.5,0.3,0.7
	c0.2,0.2,0.4,0.3,0.7,0.3c0.3,0,0.5-0.1,0.7-0.3c0.2-0.2,0.3-0.4,0.3-0.7C149.2,42.6,149.1,42.3,148.9,42.1z"/>
<path d="M144.4,41.9h-18.9c-0.5,0.2-0.8,0.7-0.6,1.3c0.1,0.3,0.3,0.5,0.6,0.6h18.9c0.5-0.2,0.8-0.7,0.6-1.3
	C144.9,42.2,144.7,42,144.4,41.9z"/>
<path d="M132.1,3.9c-8.2,0-14.8,6.7-14.8,14.9c0,4.5,2.1,8.8,5.6,11.6l-11,11.1c-0.7,0.7-1.8,0.7-2.5,0c0,0,0,0,0,0
	c-0.7-0.7-0.7-1.8,0-2.5c0,0,0,0,0,0l5.6-5.7c0.3-0.4,0.3-1,0-1.4c-0.4-0.3-1-0.3-1.3,0l-5.6,5.7c-1.4,1.4-1.5,3.7-0.1,5.2
	c1.4,1.4,3.7,1.5,5.2,0.1c0,0,0,0,0,0l11.3-11.3c2.3,1.4,4.9,2.1,7.5,2.1c8.2,0,14.8-6.6,14.8-14.8S140.3,3.9,132.1,3.9L132.1,3.9
	L132.1,3.9z M132.1,31.7c-7.1,0-13-5.7-13-12.8c0-7.1,5.7-13,12.8-13c7.1,0,13,5.7,13,12.8c0,0,0,0.1,0,0.1
	C145,25.9,139.3,31.7,132.1,31.7z"/>
<path d="M118.2,29c-0.2-0.2-0.4-0.3-0.7-0.3c-0.2,0-0.5,0.1-0.7,0.3c-0.2,0.2-0.3,0.4-0.3,0.7c0,0.3,0.1,0.5,0.3,0.7
	c0.2,0.2,0.4,0.3,0.7,0.3c0.3,0,0.5-0.1,0.7-0.3C118.5,30,118.5,29.4,118.2,29z"/>
<path d="M132.1,8.5c-5.7,0.1-10.3,4.7-10.2,10.4c0,2.8,1.2,5.5,3.2,7.4l0.1,0.1c3.9,3.6,9.9,3.6,13.8,0l0.1-0.1
	c4.1-3.9,4.3-10.4,0.4-14.6C137.7,9.7,135,8.5,132.1,8.5L132.1,8.5z M132.9,27.1L132.9,27.1h-0.4h-0.8h-0.3l0,0
	c-3.8-0.3-6.8-3.2-7.5-6.9l0,0c0-0.2-0.1-0.5-0.1-0.7c0,0,0,0,0-0.1c0-0.1,0-0.2,0-0.3v-0.1c0-0.1,0-0.2,0-0.3l0,0
	c0-0.2,0-0.4,0-0.6c0.3-4.4,3.9-7.7,8.3-7.8l0,0c4.6,0,8.3,3.8,8.3,8.4c0,0,0,0,0,0l0,0c0,0.1,0,0.2,0,0.3l0,0c0,0.1,0,0.2,0,0.3
	l0,0C140.2,23.5,137,26.8,132.9,27.1z"/>
<g>
	<defs>
		<path id="SVGID_1_" d="M132.1,27.1L132.1,27.1c-4.6,0-8.3-3.7-8.3-8.4c0,0,0,0,0,0l0,0c0-4.6,3.7-8.4,8.3-8.4c0,0,0,0,0,0l0,0
			c4.6,0,8.3,3.8,8.3,8.4c0,0,0,0,0,0l0,0C140.5,23.4,136.8,27.1,132.1,27.1z"/>
	</defs>
	<clipPath id="SVGID_2_">
		<use xlink:href="#SVGID_1_"  style="overflow:visible;"/>
	</clipPath>
	<g class="st0">
		<path class="st1" d="M120,27.6c0.9,0,1.7-0.8,1.7-1.7s-0.8-1.7-1.7-1.7s-1.7,0.8-1.7,1.7c0,0,0,0,0,0
			C118.3,26.8,119.1,27.6,120,27.6z M120,24.9c0.6,0,1,0.4,1,1s-0.4,1-1,1s-1-0.4-1-1S119.4,24.9,120,24.9z"/>
		<path d="M130.6,23.9c-1.1,0-2,0.9-2,2s0.9,2,2,2s2-0.9,2-2S131.7,23.9,130.6,23.9z M131.3,25.9c0,0.4-0.3,0.7-0.7,0.7
			c-0.4,0-0.7-0.3-0.7-0.7c0,0,0,0,0,0c0-0.4,0.3-0.7,0.7-0.7C131,25.2,131.3,25.5,131.3,25.9C131.3,25.9,131.3,25.9,131.3,25.9z"/>
		<path d="M129.9,19.1l-1.5-3.3c-0.3-0.5-0.8-0.8-1.3-0.8h-4.9c-0.3,0-0.6,0.3-0.6,0.6l0,0v3.1h-5l2-2.1c0.3-0.2,0.6-0.4,1-0.4h1.2
			c0.3,0,0.6-0.3,0.6-0.6c0,0,0,0,0,0c0-0.3-0.3-0.6-0.6-0.6c0,0,0,0,0,0h-1.2c-0.7,0-1.3,0.3-1.8,0.8l-2.9,3.1
			c-0.2,0.2-0.2,0.4-0.1,0.7c0.1,0.2,0.3,0.4,0.6,0.4h14.2c0.2,0,0.4-0.1,0.5-0.3l0,0C130,19.5,130,19.3,129.9,19.1z M122.7,18.7
			v-2.5h4.3c0.1,0,0.2,0.1,0.3,0.2l1.1,2.4L122.7,18.7z"/>
		<path d="M134.6,19.3l-1.7-0.6c-0.3-0.1-0.5-0.3-0.6-0.6l-1.5-3.2c-0.5-1-1.5-1.6-2.6-1.7h-7.6c-1.1,0.1-2.1,0.5-2.9,1.3l-3.4,3.6
			c-0.4,0.5-0.6,1.1-0.7,1.7v4.6c0,1.1,0.9,2.1,2.1,2.1h0.5c0.3,2.1,2.3,3.6,4.4,3.3c1.7-0.2,3-1.6,3.3-3.3h2c0.3,0,0.6-0.3,0.6-0.6
			c0-0.3-0.3-0.6-0.6-0.6h-2c-0.3-2.1-2.3-3.6-4.4-3.3c-1.7,0.2-3,1.6-3.3,3.3h-0.5c-0.5,0-0.9-0.4-0.9-0.9c0,0,0,0,0,0v-4.6
			c0-0.3,0.1-0.6,0.3-0.9l3.4-3.6c0.5-0.5,1.3-0.8,2-0.9h7.6c0.6,0.1,1.2,0.4,1.5,1l1.5,3.2c0.3,0.6,0.8,1,1.4,1.2l1.2,0.4
			c0,0.1,0,0.2,0,0.3c0,1.3,0.9,2.4,2.1,2.6v1.2c0,0.4-0.3,0.8-0.7,0.9h-0.7c-0.3-2.1-2.3-3.6-4.5-3.3c-2.1,0.3-3.6,2.3-3.3,4.5
			s2.3,3.6,4.5,3.3c1.7-0.3,3-1.6,3.3-3.3h0.7c1.1-0.1,2-1,1.9-2.1v-1.8l0,0C136.9,21.1,136,19.8,134.6,19.3z M135.6,21.8
			c-0.3-0.2-0.6-0.5-0.7-0.9C135.2,21.1,135.4,21.4,135.6,21.8L135.6,21.8z M117.3,25.9c0-1.5,1.2-2.7,2.7-2.7
			c1.5,0,2.7,1.2,2.7,2.7c0,1.5-1.2,2.7-2.7,2.7c0,0,0,0,0,0C118.5,28.6,117.3,27.4,117.3,25.9L117.3,25.9z M133.3,25.9
			c0,1.5-1.2,2.7-2.7,2.7c-1.5,0-2.7-1.2-2.7-2.7c0-1.5,1.2-2.7,2.7-2.7C132.1,23.2,133.3,24.4,133.3,25.9
			C133.3,25.9,133.3,25.9,133.3,25.9L133.3,25.9z"/>
		<path class="st2" d="M134.7,20.4c-0.1,0.9,0.5,1.6,1.3,1.8C135.8,21.4,135.3,20.8,134.7,20.4z"/>
	</g>
</g>
<g id="Page-1">
	<path id="Shape" d="M136.6,121l4.6,3.3c0.2,0.1,0.5,0.1,0.7,0l4.6-3.3c1-0.7,1.5-1.8,1.5-3v-7.1c0-0.2-0.1-0.5-0.4-0.6l-5.9-2.6
		c-0.1-0.1-0.3-0.1-0.5,0l-5.9,2.6c-0.2,0.1-0.4,0.3-0.4,0.6v7.1C135.1,119.2,135.6,120.3,136.6,121z M136.2,111.3l5.4-2.3l5.4,2.3
		v6.7c0,0.8-0.4,1.5-1.1,2l-4.3,3.1l-4.3-3.1c-0.6-0.5-1-1.2-1.1-2L136.2,111.3z"/>
	<path d="M140,119.3c0.3,0.2,0.6,0.2,0.8-0.1l4.7-6c0.2-0.3,0.2-0.6-0.1-0.8c0,0,0,0,0,0c-0.3-0.2-0.6-0.2-0.8,0.1l-4.4,5.5
		l-1.9-1.4c-0.3-0.2-0.7-0.1-0.9,0.1c-0.2,0.3-0.1,0.7,0.1,0.9l0,0L140,119.3z"/>
	<path d="M116.1,136.7h0.6v2.4c0,1,0.8,1.8,1.8,1.8h3.6c1,0,1.8-0.8,1.8-1.8v-2.4H138v2.4c0,1,0.8,1.8,1.8,1.8h3.5
		c1,0,1.8-0.8,1.8-1.8v-2.4h0.6c0.7,0,1.2-0.5,1.2-1.2c0,0,0,0,0,0v-8.9c0-0.9-0.4-1.7-1-2.3l2-1.5c1.6-1.1,2.5-3,2.5-4.9v-8.6
		c0-0.2-0.1-0.5-0.4-0.5l-8.3-3.6c-0.1-0.1-0.3-0.1-0.5,0l-8.3,3.6c-0.2,0.1-0.4,0.3-0.4,0.5v2.4h-9c-1.3,0-2.4,0.8-2.8,2l-3.5,10
		c-1.4,0.2-2.5,1.5-2.5,2.9v8.9C114.9,136.3,115.4,136.8,116.1,136.7C116.1,136.7,116.1,136.7,116.1,136.7z M121.9,139.7h-3.5
		c-0.3,0-0.6-0.3-0.6-0.6l0,0v-2.4h4.7v2.4C122.6,139.5,122.3,139.7,121.9,139.7L121.9,139.7z M120.2,135.6H119v-1.2h1.2V135.6z
		 M143.4,139.7h-3.5c-0.3,0-0.6-0.3-0.6-0.6v-2.4h4.8v2.4C144,139.5,143.7,139.7,143.4,139.7C143.4,139.7,143.4,139.7,143.4,139.7z
		 M142.8,135.6h-1.2v-1.2h1.2V135.6z M133.9,109.8l7.7-3.3l7.7,3.3v8.2c0,1.6-0.8,3.1-2.1,4l-5.7,4l-5.7-4c-1.3-0.9-2-2.4-2-4
		L133.9,109.8z M143.3,127.8v1.2c0,0.3-0.2,0.6-0.6,0.6c0,0,0,0,0,0h-3.5c-0.3,0-0.6-0.2-0.6-0.6c0,0,0,0,0,0c0-1,0.8-1.8,1.8-1.8
		h2.4C143.1,127.2,143.3,127.5,143.3,127.8C143.3,127.8,143.3,127.8,143.3,127.8z M132.7,115.3v1.2h-4.2v-1.2H132.7z M132.7,114.1
		h-1.2v-1.2h1.2V114.1z M122,114.1c0.2-0.7,0.9-1.2,1.7-1.2h6.6v1.2h-1.7c-0.7,0-1.2,0.5-1.2,1.2c0,0,0,0,0,0v1.2
		c0,0.7,0.5,1.2,1.2,1.2l0,0h4.2v0.3c0,2,1,3.8,2.6,4.9l1,0.7h-17.6L122,114.1z M116,126.6c0-1,0.8-1.8,1.8-1.8c0,0,0,0,0,0h20.1
		l1.8,1.3c-1.3,0.3-2.3,1.5-2.3,2.9c0,1,0.8,1.8,1.8,1.8h3.5c1,0,1.8-0.8,1.8-1.8c0,0,0,0,0,0v-1.2c0-0.7-0.4-1.4-1.1-1.7l1.5-1.1
		c0.5,0.3,0.9,0.9,0.9,1.5v8.9H144v-1.2c0-0.7-0.5-1.2-1.2-1.2h-1.2c-0.7,0-1.2,0.5-1.2,1.2c0,0,0,0,0,0v1.2h-19v-1.2
		c0-0.7-0.5-1.2-1.2-1.2H119c-0.7,0-1.2,0.5-1.2,1.2c0,0,0,0,0,0v1.2H116L116,126.6z"/>
	<path d="M126.1,114.7c0-0.3-0.3-0.6-0.6-0.6h-1c-0.8,0-1.4,0.5-1.7,1.2l-2.2,6.3c-0.1,0.3,0,0.6,0.3,0.8c0.3,0.1,0.6,0,0.8-0.3
		c0,0,0,0,0,0l2.2-6.3c0.1-0.2,0.3-0.4,0.6-0.4h1C125.8,115.3,126.1,115.1,126.1,114.7C126.1,114.7,126.1,114.7,126.1,114.7z"/>
	<path d="M117.3,129c0,1,0.8,1.8,1.8,1.8c0,0,0,0,0,0h3.5c1,0,1.8-0.8,1.8-1.8c0-1.6-1.3-3-2.9-3H119c-1,0-1.8,0.8-1.8,1.8
		c0,0,0,0,0,0V129z M118.4,127.8c0-0.3,0.3-0.6,0.6-0.6h2.4c1,0,1.8,0.8,1.8,1.8c0,0.3-0.2,0.6-0.6,0.6c0,0,0,0,0,0H119
		c-0.3,0-0.6-0.2-0.6-0.6c0,0,0,0,0,0L118.4,127.8z"/>
	<path d="M126.7,134.4h8.3c0.7,0,1.2-0.5,1.2-1.2c0,0,0,0,0,0v-2.4c0-0.7-0.5-1.2-1.2-1.2h-8.3c-0.7,0-1.2,0.5-1.2,1.2v2.4
		C125.5,133.8,126.1,134.4,126.7,134.4C126.7,134.4,126.7,134.4,126.7,134.4z M126.7,130.8h8.3v2.4h-8.3L126.7,130.8z"/>
</g>
<path d="M77.2,92.1L77.2,92.1c-0.8-1.7-2.6-2.1-5.4-1.2l0,0c-1.8,0.7-4.4,1.8-6.3,2.7c0-0.1,0-0.2-0.1-0.3c-0.3-0.8-0.9-1.4-1.7-1.6
	c-1.5-0.7-5.4-2.4-7.5-3.4c-1.3-0.6-2.7-0.7-4-0.3l-1.8,0.5c-0.3-1.4-1.5-2.4-3-2.4h-4c-0.9,0-1.6,0.7-1.6,1.6V102
	c0,0.9,0.7,1.6,1.6,1.6h5.3c0.9,0,1.6-0.7,1.6-1.6v-0.5l5.6,2.2c0.6,0.2,1.3,0.4,2,0.3c0.7,0,1.4-0.2,2.1-0.4c2.2-1,5.6-2.7,8.9-4.3
	c2.2-1.1,4.3-2.1,5.9-2.8l0,0C76.9,95.4,77.8,93.7,77.2,92.1z M49,101.9c0,0.1-0.1,0.2-0.1,0.2h0h-5.3c-0.1,0-0.2-0.1-0.2-0.2l0,0
	V87.6c0-0.1,0.1-0.2,0.1-0.2h0h4c0.8,0,1.5,0.7,1.5,1.6V101.9z M74.2,95.1c-1.6,0.7-3.7,1.8-5.9,2.9c-3.3,1.6-6.7,3.3-8.9,4.3
	c-0.9,0.4-2,0.4-2.9,0l-6.1-2.4V90l2.2-0.6c1-0.3,2.1-0.2,3,0.2c2.1,0.9,5.9,2.6,7.5,3.4c0.8,0.4,0.9,0.7,0.9,0.7c0,0,0,0.2-0.1,0.4
	l0,0c-0.1,0.1-0.2,0.2-0.3,0.3l-0.5,0.2c-0.2,0-0.4-0.1-0.6-0.1c-0.3-0.2-0.7-0.4-1-0.6c-0.9-0.7-2.1-1.2-3.3-1.2
	c-0.6,0-1.1,0.3-1.4,0.8c-0.3,0.8-0.1,1.6,0.3,2.3c0.3,0.3,0.7,0.3,1,0.1c0.3-0.1,0.5-0.5,0.3-0.8c0,0,0-0.1-0.1-0.1
	c-0.2-0.2-0.2-0.5-0.3-0.8h0.2c0.9,0.1,1.7,0.4,2.4,1c0.4,0.3,0.8,0.5,1.3,0.7c0.4,0.2,0.8,0.2,1.2,0.3c0.5,0,0.9-0.2,1.3-0.5
	c1.6-0.8,5.6-2.6,7.9-3.5c2.8-0.9,3.4,0,3.6,0.4C76.3,94,74.6,94.9,74.2,95.1L74.2,95.1z"/>
<path d="M70.9,65.1c-4.2-4.3-11.1-4.3-15.4-0.1c0,0,0,0-0.1,0.1c-4.3,4.3-4.3,11.2,0,15.5c4.3,4.3,11.2,4.3,15.4,0
	c2.1-2.1,3.2-4.8,3.2-7.7C74.1,69.9,73,67.1,70.9,65.1z M63.2,82.5c-5.3,0-9.7-4.3-9.7-9.6c0-5.3,4.3-9.7,9.6-9.7
	c5.3,0,9.7,4.3,9.7,9.6c0,0,0,0,0,0C72.8,78.2,68.5,82.5,63.2,82.5z"/>
<path d="M63.9,72.2h-1.3c-0.8,0-1.4-0.6-1.4-1.4c0,0,0-0.1,0-0.1c0-0.7,0.7-1.3,1.4-1.3h2.7c0.3,0,0.6-0.2,0.7-0.6
	c0-0.4-0.2-0.7-0.6-0.7c0,0,0,0-0.1,0h-1.4v-1.4c0-0.4-0.3-0.6-0.6-0.6c-0.4,0-0.6,0.3-0.6,0.6c0,0,0,0,0,0v1.4l0,0
	c-1.5-0.1-2.8,1-2.9,2.5c-0.1,1.5,1,2.8,2.5,2.9c0.1,0,0.2,0,0.3,0h1.3c0.8,0,1.4,0.7,1.4,1.4c0,0,0,0.1,0,0.1
	c0,0.7-0.7,1.3-1.4,1.3h-2.7c-0.3,0-0.6,0.2-0.7,0.6c0,0.3,0.2,0.7,0.5,0.7c0,0,0.1,0,0.1,0h1.4V79c0,0.3,0.2,0.6,0.6,0.7
	c0.4,0,0.7-0.2,0.7-0.6c0,0,0,0,0-0.1v-1.5l0,0c1.5,0.1,2.8-1,2.9-2.5c0.1-1.5-1-2.8-2.5-2.9C64.1,72.2,63.9,72.2,63.9,72.2
	L63.9,72.2z"/>
<path d="M85.4,182.1l-1.4-5.9c0.4-0.1,0.7-0.5,0.7-0.9v-0.9c0-2-1.7-3.7-3.7-3.7c0,0,0,0,0,0h-6.7v-1.9c0-1-0.8-1.8-1.8-1.8H37.5
	c-0.5,0-0.9,0.4-0.9,0.9v17.1c0,0.1,0,0.2,0.1,0.3c0.3,0.4,0.9,0.4,1.3,0.1c0.2-0.2,0.3-0.4,0.3-0.7v-16l0,0h34.1c0,0,0.1,0,0.1,0.1
	v16c0,0.4,0.3,0.8,0.8,0.9c0.5,0.1,0.9-0.3,1-0.8c0,0,0-0.1,0-0.1v-1h10.5c1.3,0,2.4,0.8,2.8,2h-2.8c-0.5,0-0.9,0.4-0.9,0.9
	c0,0,0,0,0,0v1.9c0,1.5,1.2,2.8,2.8,2.8l0,0h1v3.9h-2.4c-1-2.9-4.2-4.5-7.1-3.5c-1.6,0.6-2.9,1.8-3.5,3.5h-0.4v-6.6
	c0-0.4-0.3-0.8-0.8-0.9c-0.5-0.1-0.9,0.3-1,0.8c0,0,0,0.1,0,0.1v6.7H54.1c-1-2.9-4.2-4.5-7.1-3.5c-1.6,0.6-2.9,1.8-3.5,3.5h-5.1
	c0,0-0.1,0-0.1-0.1v-1.9h3.8c0.4,0,0.8-0.3,0.9-0.8c0.1-0.5-0.3-0.9-0.8-1c0,0-0.1,0-0.1,0h-8.5c-0.4,0-0.8,0.3-0.9,0.8
	c-0.1,0.5,0.3,0.9,0.8,1c0,0,0.1,0,0.1,0h2.9v1.9c0,1,0.8,1.8,1.8,1.8H43v0.1c0.1,3.1,2.8,5.5,5.9,5.4c2.9-0.1,5.3-2.5,5.4-5.4V197
	h20.1v0.1c0,3.1,2.5,5.6,5.6,5.6c3.1,0,5.6-2.5,5.6-5.6V197h2.9c0.5,0,0.9-0.4,0.9-0.9c0,0,0,0,0,0v-9.4
	C89.4,184.4,87.7,182.4,85.4,182.1z M74.3,172.5H81c1.1,0,2,0.8,2,1.9c0,0,0,0,0,0.1l0,0h-8.7L74.3,172.5z M74.3,182v-5.7h7.8
	l1.4,5.7L74.3,182z M48.8,200.9c-2.1,0-3.8-1.7-3.8-3.8c0-2.1,1.7-3.8,3.8-3.8c2.1,0,3.8,1.7,3.8,3.8c0,0,0,0,0,0
	C52.7,199.2,51,200.9,48.8,200.9z M80,200.9c-2.1,0-3.8-1.7-3.8-3.8c0-2.1,1.7-3.8,3.8-3.8c2.1,0,3.8,1.7,3.8,3.8c0,0,0,0,0,0
	C83.8,199.2,82.1,200.9,80,200.9L80,200.9z M87.7,189.6h-1c-0.6,0-1-0.4-1-1v-1h2V189.6z"/>
<path d="M48.8,195.3c-1,0-1.8,0.8-1.8,1.8s0.8,1.8,1.8,1.8s1.8-0.8,1.8-1.8S49.9,195.3,48.8,195.3L48.8,195.3z"/>
<path d="M80,195.3c-1,0-1.8,0.8-1.8,1.8c0,1,0.8,1.8,1.8,1.8s1.8-0.8,1.8-1.8S81,195.3,80,195.3L80,195.3z"/>
<path d="M69.6,191.5H56.4c-0.4,0-0.8,0.3-0.9,0.8c-0.1,0.5,0.3,0.9,0.8,1c0,0,0.1,0,0.1,0h13.2c0.4,0,0.8-0.3,0.9-0.8
	c0.1-0.5-0.3-0.9-0.8-1C69.7,191.5,69.7,191.5,69.6,191.5z"/>
<path d="M46.9,187.7H35.7c-0.4,0-0.8,0.3-0.9,0.8c-0.1,0.5,0.3,0.9,0.8,1c0,0,0.1,0,0.1,0h11.3c0.4,0,0.8-0.3,0.9-0.8
	c0.1-0.5-0.3-0.9-0.8-1C47,187.7,47,187.7,46.9,187.7z"/>
<path d="M63.6,175.7c-0.3-0.3-0.9-0.3-1.3,0l-7.9,7.9l-4.1-4.1c-0.3-0.3-0.9-0.3-1.3,0s-0.3,0.9,0,1.3l4.7,4.7
	c0.3,0.3,0.9,0.3,1.3,0c0,0,0,0,0,0l8.5-8.5C64,176.6,64,176,63.6,175.7C63.6,175.7,63.6,175.7,63.6,175.7z"/>
<path d="M186.4,158.8h1.1v1.2h-1.1V158.8z"/>
<path d="M196.7,158.8h1.1v1.2h-1.1V158.8z"/>
<path d="M209.8,158.5l-2.8-0.7v-0.7c0.7-0.5,1.1-1.4,1.1-2.3v-1.1h1.7v-1.1h-1.7c0-0.8-0.3-1.5-0.8-2c-0.4-0.4-0.9-0.7-1.4-0.8v-1.2
	c0-0.5-0.2-0.9-0.5-1.2c-0.3-0.3-0.7-0.5-1.2-0.5c-1,0-1.8,0.8-1.8,1.7c0,0,0,0,0,0v6.3c0,0.9,0.4,1.8,1.1,2.3v0.7l-2.9,0.7
	c-0.2,0.1-0.5,0.1-0.6,0.3c-0.1-0.4-0.3-0.8-0.5-1.1l0,0c0.9,0,1.7-0.8,1.7-1.7l0,0c0-1-0.8-1.7-1.8-1.7h-1.1l-0.3-1.6
	c-0.2-1.1-1.2-1.9-2.3-1.9h-7.4c-1.1,0-2.1,0.8-2.3,1.9l-0.3,1.6h-1.1c-0.9,0-1.7,0.7-1.8,1.7c0,1,0.7,1.8,1.7,1.8c0,0,0,0,0,0l0,0
	c-0.4,0.5-0.6,1.1-0.6,1.7v1.7c0,0.6,0.5,1.1,1.1,1.1h0.6v1.1h-4v-15c0-0.5-0.2-0.9-0.5-1.2c-0.3-0.3-0.8-0.5-1.3-0.5
	c-0.9,0.1-1.7,0.8-1.7,1.8V179h-0.7c-0.2,0-0.3,0.1-0.4,0.3l-0.7,2.7c0,0.2,0.1,0.4,0.2,0.4c0,0,0.1,0,0.1,0h6.3
	c0.2,0,0.4-0.2,0.4-0.4c0,0,0-0.1,0-0.1l-0.7-2.7c0-0.2-0.2-0.3-0.4-0.3h-0.8v-11h19.5v14.4h8v-16.1h1.1c0.6,0,1.1-0.5,1.1-1.1v-4.4
	C211.6,159.7,210.9,158.8,209.8,158.5z M207,154.8c0,0.6-0.3,1.2-0.9,1.5c-0.8,0.5-1.9,0.2-2.3-0.6c-0.2-0.3-0.2-0.6-0.2-0.9v-1.2
	h3.4V154.8z M207,152.5h-3.4c0-0.9,0.8-1.7,1.7-1.7c0.5,0,0.9,0.2,1.2,0.5C206.8,151.6,207,152,207,152.5z M203.5,148.5
	c0-0.3,0.2-0.5,0.5-0.6c0.2,0,0.3,0,0.5,0.2c0.1,0.1,0.2,0.2,0.2,0.4v1.2c-0.4,0.1-0.8,0.3-1.1,0.5V148.5z M201,159.6l3.7-0.9v-1.1
	c0.2,0,0.4,0.1,0.6,0.1c0.2,0,0.4,0,0.6-0.1v1.1l3.7,0.9c0.5,0.1,0.9,0.6,0.9,1.1v2.1h-1.1v-2.3h-1.1v2.3H207v-2.3h-3.4v2.3h-1.2
	v-2.3h-1.1v2.3h-1.1v-2.1C200.1,160.2,200.5,159.8,201,159.6z M205.3,163.3c-0.2-0.2-0.4-0.3-0.6-0.4v-1.3h1.1v1.3
	C205.6,163.1,205.4,163.2,205.3,163.3L205.3,163.3z M200.1,165.2V164h4c0.2,0,0.3,0.1,0.4,0.2c0.1,0.1,0.2,0.3,0.2,0.4
	c0,0.3-0.3,0.5-0.6,0.5L200.1,165.2z M199,160.8v0.4h-3.3l0.9-3.5h0.7c0.3,0,0.6,0.1,0.8,0.2l0,0c0.5,0.3,0.8,0.9,0.8,1.5v1.4
	L199,160.8z M194.5,161.1h-4.8l-0.9-3.5h6.6L194.5,161.1z M189.8,162.3h4.6v1.1h-4.6L189.8,162.3z M195.5,162.3h1.7v1.1h-1.7V162.3z
	 M198.4,162.3h0.6v1.1h-0.6L198.4,162.3z M199.5,155.4c0.3,0,0.5,0.2,0.6,0.5c0,0.2,0,0.4-0.2,0.5c-0.1,0.1-0.3,0.2-0.4,0.2h-0.8
	l-0.2-1.1H199.5z M187.2,152.9c0.1-0.5,0.6-0.9,1.1-0.9h7.4c0.6,0,1,0.4,1.1,0.9l0.7,3.7h-0.4H187h-0.4L187.2,152.9z M184.2,156.4
	c-0.1-0.1-0.2-0.3-0.2-0.4c0-0.3,0.3-0.5,0.6-0.5h1l-0.2,1.1h-0.8C184.5,156.5,184.4,156.5,184.2,156.4L184.2,156.4z M185.2,159.4
	c0-0.6,0.3-1.2,0.8-1.5h0.1c0.3-0.1,0.5-0.2,0.8-0.2h0.7l0.9,3.5h-3.3L185.2,159.4z M186.9,162.3h1.7v1.1h-1.7V162.3z M181.7,181.3
	h-3.3c-0.2,0-0.4-0.2-0.4-0.4c0,0,0-0.1,0-0.1l0.1-0.4c0-0.2,0.2-0.3,0.4-0.3h3.1c0.2,0,0.3,0.1,0.4,0.3l0.1,0.4
	C182.1,181,182,181.2,181.7,181.3C181.8,181.3,181.8,181.3,181.7,181.3L181.7,181.3z M179.4,179v-30.5c0-0.3,0.2-0.5,0.5-0.6
	c0.2,0,0.3,0,0.5,0.2c0.1,0.1,0.2,0.2,0.2,0.4V179L179.4,179z M181.7,166.9v-2.3H199v0.6c0,0.6,0.5,1.1,1.1,1.1h1.1v0.6H181.7z
	 M202.4,169.2h2.3v12.1h-2.2L202.4,169.2z M205.8,181.3v-12.1h2.3v12.1L205.8,181.3z M208.1,168h-5.7v-1.7h1.7
	c0.4,0,0.8-0.2,1.1-0.4c0.3,0.3,0.7,0.5,1.1,0.4h1.7V168z M206.4,165.1c-0.3,0-0.5-0.2-0.6-0.5c0-0.2,0-0.4,0.2-0.5
	c0.1-0.1,0.2-0.2,0.4-0.2h4v1.1H206.4z"/>
<path d="M194.6,176.8l0.8,0.8l0.7-0.7v0.3c0,2.2-1.8,4-4,4s-4-1.8-4-4s1.8-4,4-4V172c-2.9,0-5.2,2.3-5.2,5.1c0,2.9,2.3,5.2,5.1,5.2
	c2.9,0,5.2-2.3,5.2-5.1c0,0,0,0,0,0v-0.3l0.7,0.7l0.8-0.8l-2.1-2.1L194.6,176.8z"/>
<path d="M191.5,177l-1.3-1.3l-0.8,0.8l2.1,2.1l7.3-7.3l-0.8-0.8L191.5,177z"/>
<path d="M210.1,206c-0.4,0-0.6-0.4-0.6-0.8c0-0.3,0.3-0.6,0.6-0.6c0.4,0,0.6,0.4,0.6,0.8C210.7,205.7,210.4,206,210.1,206z"/>
<path d="M222.3,142.3c10.6,20.9,2.8,46.4-11.7,63.5c-0.6,0.7-1.5-0.3-1-1c14-16.6,21.8-41.6,11.5-61.8
	C220.7,142.1,221.9,141.5,222.3,142.3L222.3,142.3z"/>
<path d="M27.6,107.7c12.2,17.8,33.2,28.9,52.8,36.6c17.3,6.8,36.8,12.7,55.5,11.8c0.9,0,0.9,1.3,0,1.4c-19.6,0.9-40.2-5.4-58.1-12.8
	c-19.1-7.8-39.3-18.8-51.3-36.3C25.9,107.7,27.1,107,27.6,107.7z"/>
<path d="M27,108.8c-0.4,0-0.6-0.4-0.6-0.8c0-0.3,0.3-0.6,0.6-0.6c0.4,0,0.6,0.4,0.6,0.8C27.6,108.5,27.3,108.7,27,108.8z"/>
<path d="M125.1,68.1c-11.6-4.3-23.5-7.7-35.6-10.2c-15.7-3.2-33.7-5.5-49,0.2c-8.4,2.9-15.1,9.6-18,18c-0.3,0.8-1.6,0.5-1.3-0.4
	c11.5-33.3,60.8-22,85.7-15c6.3,1.8,12.5,3.8,18.7,6C126.3,67.1,126,68.4,125.1,68.1L125.1,68.1z"/>
<path d="M174.5,62.4c-8.2,14-26.7,14.4-40.4,9.5c-0.8-0.3-0.5-1.6,0.4-1.3c13.2,4.7,31,4.6,38.9-8.8c0.2-0.3,0.6-0.4,0.9-0.2
	C174.6,61.8,174.7,62.1,174.5,62.4z"/>
<path d="M23.9,103.1c0.4,0,0.7-0.3,0.7-0.7c0-0.2-0.1-0.3-0.2-0.5c-5.4-6.6-3.3-21.3-3.3-21.4c0-0.4-0.3-0.7-0.6-0.7
	c-0.3,0-0.6,0.2-0.7,0.5c-0.1,0.6-2.3,15.4,3.6,22.5C23.5,103,23.7,103.1,23.9,103.1z"/>
<path d="M153.2,156.9c0.4,0,9.6-0.1,18.2-11.3c20.2-26.4,41.4-12.5,42.3-11.9c0.3,0.2,0.7,0.1,0.9-0.2c0.2-0.3,0.1-0.7-0.2-0.9l0,0
	c-0.2-0.2-23.1-15.2-44.2,12.2c-8.2,10.6-17.1,10.8-17.1,10.8c-0.4,0-0.7,0.3-0.7,0.7C152.5,156.6,152.9,156.9,153.2,156.9
	L153.2,156.9z"/>
<path d="M205.5,210.6c0.2,0,0.4-0.1,0.5-0.2l1.1-1.2c0.3-0.3,0.3-0.7,0-1s-0.7-0.3-1,0l-1.1,1.2c-0.3,0.3-0.3,0.7,0,1
	C205.1,210.5,205.3,210.5,205.5,210.6L205.5,210.6z"/>
<path d="M130.8,70.8c0.3,0,0.5-0.1,0.6-0.4c0.2-0.3,0-0.7-0.3-0.9c0,0,0,0,0,0l-2.3-1.2c-0.3-0.2-0.7,0-0.9,0.3
	c-0.2,0.3,0,0.7,0.3,0.9c0,0,0,0,0,0l2.3,1.2C130.6,70.8,130.7,70.8,130.8,70.8z"/>
<path d="M202.4,212.8c-21.3,15.6-47.1,25.1-73,29.2c-24.3,3.9-51.2,3.3-73.6-8c-11.4-5.7-20.9-14.6-27.2-25.7
	c-0.4-0.8,0.7-1.5,1.2-0.7c25.8,45.9,93.3,39.2,134.9,23.6c13.2-4.8,25.6-11.4,37-19.6C202.5,211.1,203.1,212.3,202.4,212.8
	L202.4,212.8z"/>
<path d="M27.9,214.6c0.3,0,0.6-0.2,0.7-0.6l1-6l6.1,3.1c0.3,0.2,0.7,0,0.9-0.3c0.2-0.3,0-0.7-0.3-0.9l-6.9-3.5
	c-0.2-0.1-0.4-0.1-0.6,0c-0.2,0.1-0.3,0.3-0.4,0.5l-1.1,6.9c-0.1,0.4,0.2,0.7,0.6,0.8L27.9,214.6z"/>
<path class="st3" d="M218.7,118.3c-0.2,0-0.3-0.1-0.3-0.3l0,0v-3.7c0-0.2,0.2-0.3,0.4-0.3c0.1,0,0.3,0.1,0.3,0.3v3.7
	C219,118.1,218.9,118.3,218.7,118.3C218.7,118.3,218.7,118.3,218.7,118.3z"/>
<path class="st3" d="M218.7,125.2c-0.2,0-0.3-0.1-0.3-0.3l0,0v-3.7c0-0.2,0.2-0.3,0.4-0.3c0.1,0,0.3,0.1,0.3,0.3v3.7
	C219,125.1,218.9,125.2,218.7,125.2z"/>
<path class="st3" d="M224,119.9h-3.7c-0.2,0-0.3-0.2-0.3-0.4c0-0.1,0.1-0.3,0.3-0.3h3.7c0.2,0,0.3,0.2,0.3,0.4
	C224.3,119.8,224.1,119.9,224,119.9z"/>
<path class="st3" d="M217.1,119.9h-3.7c-0.2,0-0.3-0.2-0.3-0.4c0-0.1,0.1-0.3,0.3-0.3h3.7c0.2,0,0.3,0.2,0.3,0.4
	C217.3,119.8,217.2,119.9,217.1,119.9z"/>
<path class="st3" d="M99.8,6.4c-0.2,0-0.3-0.1-0.3-0.3c0,0,0,0,0,0V2.3c0-0.2,0.1-0.3,0.3-0.3c0,0,0,0,0,0c0.2,0,0.3,0.1,0.3,0.3
	c0,0,0,0,0,0v3.7C100.2,6.3,100,6.4,99.8,6.4z"/>
<path class="st3" d="M99.8,13.4c-0.2,0-0.3-0.1-0.3-0.3c0,0,0,0,0,0V9.3c0-0.2,0.1-0.3,0.3-0.3c0,0,0,0,0,0c0.2,0,0.3,0.1,0.3,0.3
	c0,0,0,0,0,0v3.7C100.2,13.2,100,13.4,99.8,13.4C99.8,13.4,99.8,13.4,99.8,13.4z"/>
<path class="st3" d="M105.1,8h-3.7c-0.2,0-0.4-0.1-0.4-0.3c0-0.2,0.1-0.4,0.3-0.4c0,0,0.1,0,0.1,0h3.7c0.2,0,0.4,0.1,0.4,0.3
	c0,0.2-0.1,0.4-0.3,0.4C105.2,8,105.2,8,105.1,8z"/>
<path class="st3" d="M98.2,8h-3.7c-0.2,0-0.3-0.2-0.3-0.4c0-0.1,0.1-0.3,0.3-0.3h3.7c0.2,0,0.3,0.2,0.3,0.4C98.4,7.9,98.3,8,98.2,8z
	"/>
<path class="st3" d="M5.7,100.4c-0.2,0-0.3-0.1-0.3-0.3l0,0v-3.7c0-0.2,0.1-0.3,0.3-0.4c0,0,0,0,0,0C5.8,96,6,96.2,6,96.3v3.7
	C6,100.2,5.9,100.4,5.7,100.4C5.7,100.4,5.7,100.4,5.7,100.4z"/>
<path class="st3" d="M5.7,107.4c-0.2,0-0.3-0.1-0.3-0.3l0,0v-3.7c0-0.2,0.1-0.3,0.3-0.3c0,0,0,0,0,0c0.2,0,0.3,0.2,0.3,0.3v3.7
	C6,107.3,5.8,107.4,5.7,107.4C5.7,107.4,5.7,107.4,5.7,107.4z"/>
<path class="st3" d="M11,102.1H7.3c-0.2,0-0.4-0.1-0.4-0.3c0-0.2,0.1-0.4,0.3-0.4c0,0,0.1,0,0.1,0H11c0.2,0,0.4,0.1,0.4,0.3
	c0,0.2-0.1,0.4-0.3,0.4C11.1,102.1,11,102.1,11,102.1z"/>
<path class="st3" d="M4,102.1H0.3c-0.2,0-0.3-0.2-0.3-0.4c0-0.1,0.1-0.3,0.3-0.3H4c0.2,0,0.3,0.2,0.3,0.4C4.3,101.9,4.1,102,4,102.1
	z"/>
<path class="st3" d="M165.4,243.2c-0.2,0-0.3-0.1-0.3-0.3l0,0v-3.7c0-0.2,0.1-0.3,0.3-0.3s0.3,0.1,0.3,0.3v3.7
	C165.8,243,165.6,243.2,165.4,243.2L165.4,243.2z"/>
<path class="st3" d="M165.4,250.1c-0.2,0-0.3-0.1-0.3-0.3l0,0v-3.7c0-0.2,0.1-0.3,0.3-0.3s0.3,0.1,0.3,0.3v3.7
	C165.8,250,165.6,250.1,165.4,250.1z"/>
<path class="st3" d="M170.8,244.8h-3.7c-0.2,0-0.4-0.1-0.4-0.3s0.1-0.4,0.3-0.4c0,0,0.1,0,0.1,0h3.7c0.2,0,0.3,0.2,0.3,0.4
	C171,244.7,170.9,244.8,170.8,244.8z"/>
<path class="st3" d="M163.8,244.8h-3.7c-0.2,0-0.4-0.1-0.4-0.3s0.1-0.4,0.3-0.4c0,0,0.1,0,0.1,0h3.7c0.2,0,0.4,0.1,0.4,0.3
	s-0.1,0.4-0.3,0.4C163.9,244.8,163.8,244.8,163.8,244.8L163.8,244.8z"/>
<path class="st4" d="M188,193.4l-0.3,0.3c-0.3-0.6-0.6-1.1-0.9-1.6v5h-0.4v-5.3c-0.2,0.9-0.5,1.8-1,2.7l-0.3-0.3
	c0.6-1,1-2.1,1.2-3.2h-1.2v-0.3h1.2v-1.6h0.4v1.6h0.8v0.3h-0.8v0.7C187.3,192.1,187.7,192.7,188,193.4z M190.4,196.1l-0.3,0.3
	c-0.3-0.4-0.6-0.7-1-1c-0.3,0.6-0.8,1.2-1.3,1.6l-0.3-0.3c0.8-0.7,1.4-1.6,1.8-2.6h-1V192h1.8v2.1h-0.8l0.3,0.2
	c-0.1,0.3-0.2,0.5-0.3,0.8C189.7,195.4,190.1,195.7,190.4,196.1L190.4,196.1z M193.4,191.1l-0.3,0.3c-1-0.5-1.9-1.2-2.6-2
	c-0.7,0.8-1.6,1.5-2.6,2l-0.2-0.3c1.2-0.5,2.2-1.3,2.9-2.4l0.3,0.2l-0.2,0.2C191.5,190,192.4,190.6,193.4,191.1L193.4,191.1z
	 M189.8,193.8v-1.4h-1.1v1.4H189.8z M191.9,191.2h-2.8v-0.4h2.8V191.2z M193.4,196.7L193,197c-0.4-0.5-0.9-1-1.4-1.4
	c-0.3,0.5-0.7,1-1.2,1.4l-0.3-0.3c0.8-0.7,1.4-1.6,1.7-2.6h-1V192h1.8v2.1h-0.8l0.3,0.2c-0.1,0.3-0.3,0.7-0.4,1
	C192.3,195.7,192.8,196.2,193.4,196.7L193.4,196.7z M192.4,193.7v-1.4h-1.1v1.4H192.4z"/>
<path class="st4" d="M195.1,194.1c0,0.8-0.1,1.5-0.3,2.3l-0.3-0.1c0.2-0.7,0.3-1.5,0.3-2.2L195.1,194.1z M197.8,189.4h-1.1v1h1v0.3
	h-1v1h1v0.3h-1v1h1v0.2c0.1,1.1,0,2.2-0.2,3.3c-0.1,0.3-0.4,0.4-0.8,0.4h-0.4l-0.1-0.4h0.5c0.2,0,0.3,0,0.4-0.1
	c0.1-0.4,0.2-0.7,0.2-1.1c0-0.7,0-1.2,0-1.6v-0.4H195V189h2.8L197.8,189.4z M196.3,190.4v-1h-1v1H196.3z M196.3,191.7v-1h-1v1H196.3
	z M196.3,193.1v-1h-1v1H196.3z M195.4,196.3c0-0.2,0-0.4,0-0.7c0-0.5,0-1-0.1-1.6h0.3c0.1,0.7,0.1,1.3,0.1,2v0.2L195.4,196.3z
	 M196.4,195.8l-0.3,0.1c0-0.6-0.1-1.2-0.3-1.8l0.3-0.1C196.3,194.6,196.4,195.2,196.4,195.8L196.4,195.8z M197.1,195.3l-0.3,0.1
	c-0.1-0.5-0.2-1-0.3-1.5l0.3-0.1C196.9,194.3,197,194.8,197.1,195.3L197.1,195.3z M200.1,196.1l-0.3,0.2c-0.2-0.3-0.5-0.6-0.8-0.9
	c-0.3,0.6-0.7,1.1-1.2,1.6l-0.3-0.3c0.8-0.7,1.3-1.6,1.5-2.6h-0.9V192h1.7v2.1h-0.7l0.3,0.1c-0.1,0.3-0.2,0.6-0.3,0.9
	C199.5,195.4,199.9,195.7,200.1,196.1L200.1,196.1z M202.6,191.1l-0.3,0.3c-0.9-0.5-1.7-1.2-2.3-2c-0.6,0.8-1.3,1.5-2.2,2l-0.3-0.3
	c1-0.6,1.9-1.4,2.6-2.4l0.3,0.2l-0.2,0.3C200.9,190,201.7,190.6,202.6,191.1L202.6,191.1z M199.5,193.7v-1.4h-1v1.4H199.5z
	 M201.4,191.2H199v-0.4h2.4L201.4,191.2z M202.6,196.7l-0.3,0.2c-0.3-0.5-0.7-1-1.1-1.4c-0.3,0.5-0.6,1-1.1,1.4l-0.3-0.3
	c0.8-0.7,1.3-1.6,1.5-2.6h-0.9V192h1.7v2.1h-0.7l0.3,0.1c-0.1,0.3-0.2,0.7-0.4,1C201.8,195.7,202.2,196.2,202.6,196.7L202.6,196.7z
	 M201.8,193.7v-1.4h-1v1.4H201.8z"/>
<path class="st4" d="M132.2,231.6c0,0.4-0.1,0.7-0.2,1.1c0,0.2-0.1,0.4-0.3,0.6c-0.1,0.1-0.2,0.1-0.3,0.1c-0.3,0-0.6-0.2-0.9-0.7
	c-0.3-0.4-0.5-0.8-0.7-1.2c-0.7,0.7-1.4,1.4-2.3,1.9l-0.2-0.3c0.9-0.6,1.7-1.2,2.4-2c-0.4-1.3-0.5-2.6-0.6-3.9h-3.5v1.4h2.5
	c0,0.7,0,1.3-0.1,2c0,0.4-0.1,0.8-0.2,1.1c-0.1,0.1-0.2,0.2-0.3,0.3c-0.3,0.1-0.5,0.2-0.8,0.1h-0.5l-0.1-0.4c0.2,0,0.3,0,0.5,0
	c0.2,0,0.4,0,0.6-0.1c0.1,0,0.2-0.1,0.2-0.2c0.1-0.3,0.2-0.6,0.2-0.9c0.1-0.6,0.1-1.1,0.1-1.7h-2.1v0.8c0,1.3-0.4,2.6-1.1,3.7
	l-0.3-0.3c0.7-1,1-2.2,1-3.4v-2.9h3.9c0-0.5,0-1.1,0-1.6h0.4v1.6h2.6v0.4h-2.6c0,1.2,0.2,2.4,0.5,3.6c0.6-0.8,1.1-1.7,1.4-2.7
	l0.3,0.1c-0.4,1.1-0.9,2.1-1.6,2.9c0.1,0.5,0.4,1,0.7,1.4c0.3,0.3,0.5,0.5,0.6,0.5c0.1,0,0.1,0,0.1-0.1c0.1-0.2,0.1-0.4,0.2-0.6
	c0.1-0.3,0.1-0.7,0.2-1L132.2,231.6z M131.6,226.4l-0.3,0.3c-0.3-0.4-0.6-0.8-1-1.1l0.3-0.2C131,225.6,131.3,226,131.6,226.4
	L131.6,226.4z"/>
<path class="st4" d="M141.5,233.1l-0.2,0.3c-1.4-0.3-2.7-0.9-3.9-1.8c-1.1,0.8-2.4,1.4-3.8,1.8l-0.2-0.3c1.4-0.3,2.6-0.9,3.8-1.7
	c-0.7-0.6-1.2-1.4-1.6-2.3l0.3-0.2c0.4,0.8,0.9,1.6,1.6,2.2c0.7-0.6,1.3-1.4,1.7-2.2l0.4,0.2c-0.5,0.8-1.1,1.6-1.8,2.3
	C138.9,232.2,140.2,232.8,141.5,233.1z M141.4,226.7h-7.9v-0.3h4c-0.1-0.3-0.3-0.7-0.5-1l0.4-0.1c0.2,0.4,0.4,0.8,0.5,1.2h3.5
	L141.4,226.7z M136.4,227.4c-0.8,1-1.7,1.8-2.6,2.6l-0.3-0.3c1-0.7,1.9-1.5,2.6-2.5L136.4,227.4z M141.4,229.7l-0.3,0.3
	c-0.8-0.9-1.6-1.8-2.6-2.5l0.3-0.3C139.7,227.9,140.6,228.8,141.4,229.7L141.4,229.7z"/>
<path class="st4" d="M60.8,213.2l-0.1,0.3h-3.1c-0.7,0-1.4-0.1-2.1-0.3c-0.5-0.2-1-0.5-1.5-0.8c-0.3,0.4-0.7,0.8-1.1,1.1l-0.3-0.2
	c1-0.7,1.6-1.8,1.9-3h-1.6V210c0.6-0.6,1.1-1.3,1.5-2h-1.8v-0.4h2.2v0.4c-0.4,0.7-0.9,1.3-1.5,2h1.5v0.4c-0.1,0.6-0.4,1.3-0.7,1.8
	c0.5,0.5,1.1,0.8,1.8,0.9c1.3,0.1,2.5,0.2,3.8,0.1L60.8,213.2z M54.5,206.8l-0.3,0.3c-0.4-0.5-0.8-0.9-1.3-1.3l0.2-0.3
	C53.7,205.9,54.1,206.4,54.5,206.8L54.5,206.8z M60.3,211.8c0,0.3-0.2,0.7-0.5,0.7c-0.1,0-0.1,0-0.2,0h-0.8l-0.1-0.4
	c0.3,0,0.6,0,0.9,0s0.3-0.1,0.3-0.3v-2.9h-4v3.6h-0.4v-3.9h0.6v-2.8h3.5v2.8h0.6L60.3,211.8z M59.3,207.1v-1h-2.7v2.4h1.1v-1.5
	L59.3,207.1z M59,211.6h-2.1v-1.8H59V211.6z M58.6,211.3v-1.1h-1.4v1.1H58.6z M59.3,208.6v-1.1H58v1.1H59.3z"/>
<path class="st4" d="M69.7,205.9c-1,0.2-2.1,0.4-3.1,0.5c-1.1,0.1-2.1,0.2-2.9,0.2v1.4h6v2.9h-6.1c-0.1,1.1-0.6,2.1-1.3,2.9
	l-0.3-0.3c0.5-0.5,0.8-1.1,1-1.7c0.2-0.9,0.4-1.7,0.3-2.6v-2.9c2.1,0,4.2-0.2,6.2-0.7L69.7,205.9z M69.3,210.5v-2.1h-5.6
	c0,0.9,0,1.6-0.1,2.1H69.3z"/>
<g class="st5">
	<path class="st4" d="M130.8,147.4h-4.8c-0.2,0.3-0.4,0.6-0.5,0.7h4.3v4.2h-0.5v-0.5h-3.9v0.5H125v-3.4c-0.5,0.6-1.1,1.1-1.7,1.6
		l-0.4-0.4c1.1-0.9,2-1.8,2.6-2.7H123V147h2.8c0.2-0.3,0.3-0.5,0.4-0.7h-2.8v-0.4h3c0.1-0.2,0.2-0.5,0.3-0.7c-1.2,0.1-2.2,0.1-3,0.1
		l-0.1-0.5c2.6,0,4.7-0.2,6.4-0.6l0.3,0.4c-0.9,0.2-2,0.3-3.1,0.5c-0.1,0.3-0.2,0.6-0.3,0.8h3.6v0.4h-3.8c-0.1,0.3-0.2,0.5-0.4,0.7
		h4.5V147.4z M129.4,149.2v-0.6h-3.9v0.6H129.4z M129.4,150.3v-0.6h-3.9v0.6H129.4z M129.4,151.4v-0.6h-3.9v0.6H129.4z"/>
	<path class="st4" d="M140.3,151.1h-3.8v1.3H136v-1.3h-3.8v-0.5h3.8v-0.8h-3v-3.4h3v-0.8h-3.6V145h3.6v-0.9h0.5v0.9h3.6v0.5h-3.6
		v0.8h3v3.4h-3v0.8h3.8V151.1z M136,147.8v-1h-2.5v1H136z M136,149.3v-1h-2.5v1H136z M139,147.8v-1h-2.5v1H139z M139,148.2h-2.5v1
		h2.5L139,148.2z"/>
</g>
<g class="st5">
	<path class="st4" d="M58.5,116.8H58v-0.4h-6.6v-3.2H52v2.7h2.8v-3.6h-2.9v-3.1h0.5v2.6h2.4v-3.2h0.5v3.2h2.4v-2.6h0.5v3.1h-2.8v3.6
		H58v-2.7h0.5V116.8z"/>
	<path class="st4" d="M62.3,108.7c-0.1,0.3-0.2,0.7-0.4,1.1l-0.2,0.7v6.4h-0.5v-5.4c-0.3,0.5-0.5,0.9-0.8,1.3l-0.3-0.5
		c0.7-1,1.3-2.2,1.6-3.7L62.3,108.7z M67.8,115.4h-3.3l0.3,0.3c-0.5,0.5-1.2,0.9-2.1,1.2l-0.3-0.4c0.9-0.3,1.5-0.7,2-1.1H63v-3.3
		h4.8V115.4z M68.4,109.3h-2v0.6H68v1.7h-5.3v-1.7h1.6v-0.6h-1.8v-0.4h5.8V109.3z M64.3,111.2v-0.9h-1.2v0.9H64.3z M67.3,113v-0.6
		h-3.8v0.6H67.3z M67.3,114v-0.6h-3.8v0.6H67.3z M67.3,115v-0.6h-3.8v0.6H67.3z M65.9,109.9v-0.6h-1.2v0.6H65.9z M65.9,111.2v-0.9
		h-1.2v0.9H65.9z M68.4,116.4l-0.3,0.4c-0.6-0.3-1.3-0.6-2.1-0.8l0.2-0.4C67.2,115.9,67.9,116.1,68.4,116.4z M67.6,111.2v-0.9h-1.2
		v0.9H67.6z"/>
</g>
<g class="st5">
	<path class="st4" d="M131.2,58c-0.4,0.2-0.8,0.3-1.3,0.5v2.7c0,0.2-0.1,0.3-0.2,0.5c-0.1,0.1-0.4,0.2-0.8,0.2c-0.1,0-0.3,0-0.5,0
		l-0.2-0.5c0.6,0,0.9,0,1,0s0.2-0.1,0.2-0.2v-2.6c-0.3,0.1-0.8,0.3-1.4,0.4l-0.2-0.5c0.6-0.1,1.1-0.3,1.6-0.4v-2.4h-1.5v-0.5h1.5
		v-1.7h0.5v1.7h1.2v0.5h-1.2V58c0.4-0.1,0.8-0.3,1.2-0.5L131.2,58z M136,60c-0.1,0.6-0.2,1.1-0.4,1.5s-0.4,0.6-0.7,0.6
		c-0.6,0-1.2-0.7-1.7-2c-0.7,0.5-1.5,0.9-2.3,1.3l-0.3-0.4c1-0.4,1.9-0.9,2.5-1.4c-0.2-0.9-0.4-1.8-0.4-2.6l-1.7,0.2l0-0.5l1.7-0.2
		c-0.1-0.8-0.1-1.5-0.1-2.2c0-0.2,0-0.4,0-0.6h0.5c0,0.2,0,0.4,0,0.6c0,0.6,0,1.3,0.1,2.1l2.8-0.3l0.1,0.5l-2.8,0.4
		c0.1,0.8,0.2,1.6,0.4,2.3c0.7-0.6,1.3-1.3,1.8-2l0.4,0.3c-0.7,0.9-1.4,1.7-2.1,2.2c0.2,0.6,0.4,1,0.7,1.3c0.2,0.3,0.4,0.4,0.6,0.4
		c0.1,0,0.2,0,0.2-0.1c0.1-0.1,0.1-0.3,0.2-0.6s0.2-0.7,0.2-1L136,60z M135.3,55.3l-0.4,0.3c-0.4-0.5-0.8-0.9-1.2-1.2l0.4-0.3
		C134.5,54.5,135,54.9,135.3,55.3z"/>
	<path class="st4" d="M145.3,60.7h-3.8V62H141v-1.3h-3.8v-0.5h3.8v-0.8h-3V56h3v-0.8h-3.6v-0.5h3.6v-0.9h0.5v0.9h3.6v0.5h-3.6V56h3
		v3.4h-3v0.8h3.8V60.7z M141,57.4v-1h-2.5v1H141z M141,58.9v-1h-2.5v1H141z M144,57.4v-1h-2.5v1H144z M144,57.9h-2.5v1h2.5L144,57.9
		z"/>
</g>
</svg>
