<?xml version="1.0" encoding="utf-8"?>
<!-- Generator: Adobe Illustrator 23.0.0, SVG Export Plug-In . SVG Version: 6.00 Build 0)  -->
<svg version="1.1" id="圖層_1" xmlns="http://www.w3.org/2000/svg" xmlns:xlink="http://www.w3.org/1999/xlink" x="0px" y="0px"
	 viewBox="0 0 238.4 250.1" style="enable-background:new 0 0 238.4 250.1;" xml:space="preserve">
<style type="text/css">
	.st0{fill:#333333;}
	.st1{stroke:#000000;stroke-width:0.25;stroke-linecap:round;stroke-linejoin:round;stroke-miterlimit:10;}
</style>
<title>_</title>
<path d="M134.4,108.4L134.4,108.4c-1-2.1-3.3-2.6-6.8-1.6h-0.1c-2.2,0.9-5.5,2.3-8,3.4c0-0.1,0-0.2-0.1-0.3c-0.4-1-1.2-1.7-2.2-2.1
	c-2-0.9-6.8-3.1-9.5-4.3c-1.6-0.7-3.4-0.8-5.1-0.4l-2.3,0.6c-0.3-1.8-1.9-3.1-3.7-3.1h-5c-1.1,0-2.1,0.9-2.1,2.1v18.1
	c0,1.1,0.9,2.1,2,2.1c0,0,0,0,0.1,0h6.8c1.1,0,2.1-0.9,2.1-2.1v-0.7l7,2.8c1.6,0.7,3.5,0.6,5.1-0.1c2.8-1.3,7.2-3.4,11.3-5.4
	c2.8-1.4,5.5-2.7,7.5-3.6l0,0C134,112.7,135.2,110.5,134.4,108.4z M98.6,120.9c0,0.1-0.1,0.2-0.2,0.2h-6.8c-0.1,0-0.2-0.1-0.2-0.2
	c0,0,0,0,0,0v-18.1c0-0.1,0.1-0.2,0.2-0.2c0,0,0,0,0,0h5c1.1,0,1.9,0.9,1.9,1.9L98.6,120.9z M130.6,112.3c-2,0.9-4.6,2.2-7.5,3.6
	c-4.2,2-8.4,4.1-11.3,5.4c-1.2,0.5-2.5,0.5-3.6,0.1l-7.7-3.1v-12.4l2.8-0.7c1.3-0.3,2.6-0.2,3.8,0.3c2.7,1.2,7.5,3.3,9.4,4.2
	c1,0.5,1.2,0.8,1.2,0.9c0,0.2-0.1,0.3-0.2,0.5l0,0c-0.1,0.2-0.2,0.3-0.3,0.4l-0.7,0.3c-0.3,0-0.5-0.1-0.8-0.2
	c-0.4-0.2-0.9-0.5-1.3-0.7c-1.2-0.9-2.7-1.5-4.2-1.5c-0.7,0-1.4,0.4-1.7,1c-0.6,1.1,0.2,2.6,0.4,2.9c0.3,0.3,0.9,0.4,1.3,0.1
	c0.4-0.2,0.5-0.6,0.4-1c0,0,0,0,0,0c-0.2-0.3-0.3-0.6-0.3-1h0.2c1.1,0.1,2.2,0.5,3.1,1.2c0.5,0.4,1,0.7,1.6,0.9
	c0.5,0.2,1,0.3,1.4,0.3c0.6,0,1.2-0.2,1.7-0.6c2-0.9,7-3.2,10-4.3c3.6-1.1,4.3,0,4.5,0.5C133.3,110.9,131.1,112.1,130.6,112.3
	L130.6,112.3z"/>
<path d="M105.5,97l6.8-6.8c0.6-0.6,0.6-1.6,0-2.2l-1.4-1.4c-0.3-0.3-0.7-0.5-1.1-0.5c-0.4,0-0.8,0.2-1.1,0.5l-1.9,1.9V79
	c0-0.9-0.7-1.6-1.6-1.6h-1.9c-0.8,0-1.5,0.8-1.5,1.6v9.4l-1.8-1.8c-0.3-0.3-0.7-0.5-1.1-0.5c-0.4,0-0.8,0.2-1.1,0.5L96.4,88
	c-0.3,0.3-0.4,0.6-0.5,1c0,0.4,0.2,0.8,0.5,1.1l6.8,6.8c0.3,0.3,0.7,0.5,1.1,0.5C104.8,97.4,105.2,97.3,105.5,97z M104.1,96.2
	l-6.9-6.9c-0.1-0.1-0.1-0.2,0-0.3l1.4-1.4c0.1-0.1,0.1-0.1,0.2-0.1c0.1,0,0.1,0,0.2,0.1l3,3c0.2,0.2,0.5,0.3,0.7,0.1
	c0.2-0.1,0.4-0.3,0.4-0.6V79c0-0.1,0.1-0.3,0.1-0.3h2c0.1,0,0.3,0.1,0.3,0.3v11.2c0,0.3,0.1,0.5,0.4,0.6c0.3,0.1,0.5,0,0.7-0.1l3-3
	c0,0,0.1-0.1,0.1-0.1c0.1,0,0.1,0,0.1,0.1l1.4,1.4c0.1,0.1,0.1,0.2,0,0.3c0,0,0,0,0,0l-6.9,6.9c-0.1,0.1-0.1,0.1-0.2,0.1
	C104.3,96.2,104.2,96.2,104.1,96.2L104.1,96.2z"/>
<path d="M122.3,77.8l-6.8,6.8c-0.6,0.6-0.6,1.6,0,2.2l1.4,1.4c0.3,0.3,0.7,0.5,1.1,0.5c0.4,0,0.8-0.2,1.1-0.5l1.9-1.9v9.4
	c0,0.9,0.7,1.6,1.6,1.6h1.9c0.8,0,1.5-0.8,1.5-1.6v-9.4l1.8,1.8c0.6,0.6,1.6,0.6,2.3,0l1.4-1.4c0.3-0.3,0.5-0.7,0.5-1.1
	c0-0.4-0.2-0.8-0.5-1.1l-6.8-6.8c-0.3-0.3-0.7-0.5-1.1-0.5C123,77.3,122.6,77.5,122.3,77.8z M123.6,78.6l6.9,6.9
	c0.1,0.1,0.1,0.2,0,0.3l-1.4,1.4c-0.1,0.1-0.1,0.1-0.2,0.1c-0.1,0-0.1,0-0.2-0.1l-3-3c-0.2-0.2-0.5-0.3-0.7-0.1
	c-0.2,0.1-0.4,0.3-0.4,0.6v11c0,0.1-0.1,0.3-0.1,0.3h-2c-0.1,0-0.3-0.1-0.3-0.3V84.6c0-0.3-0.2-0.5-0.4-0.6c-0.3-0.1-0.5,0-0.7,0.1
	l-3,3c0,0-0.1,0.1-0.1,0.1c-0.1,0-0.1,0-0.1-0.1l-1.4-1.4c-0.1-0.1-0.1-0.2,0-0.3c0,0,0,0,0,0l6.9-6.9c0.1,0,0.1-0.1,0.2-0.1
	C123.5,78.5,123.5,78.5,123.6,78.6z"/>
<path d="M146.1,178.3l-9.7-9.7c-0.4-0.4-1-0.4-1.4,0s-0.4,1,0,1.4l9,9l-5.2,5.2c-0.2,0.2-0.4,0.2-0.6,0c0,0,0,0,0,0L127.9,174
	c-0.2-0.1-0.2-0.4,0-0.6c0,0,0,0,0,0l3.5-3.5c0.4-0.4,0.4-0.9,0.1-1.4c-0.3-0.5-0.9-0.6-1.4-0.3c-0.1,0-0.1,0.1-0.2,0.1l-3.5,3.5
	c-0.7,0.7-0.9,1.8-0.5,2.7l-1.2,1.2h-8.3l-1.5-1.5c0.2-0.9,0-1.8-0.7-2.4l-3.4-3.4c-0.4-0.4-1-0.4-1.4,0c0,0,0,0,0,0
	c-0.4,0.4-0.4,1,0,1.4c0,0,0,0,0,0l3.4,3.4c0.2,0.2,0.2,0.4,0,0.6c0,0,0,0,0,0l-0.3,0.3l-10.1,10.1l0,0c-0.1,0.1-0.2,0.1-0.3,0.1
	c-0.1,0-0.2,0-0.3-0.1l-5.3-5.3l9-9.1c0.4-0.4,0.4-0.9,0.1-1.4c-0.3-0.5-0.9-0.6-1.4-0.2c-0.1,0-0.1,0.1-0.1,0.1l-9.8,9.8
	c-0.4,0.4-0.4,1,0,1.4c0,0,0,0,0,0l6,6c0.5,0.5,1.1,0.7,1.7,0.7c0.3,0,0.6-0.1,0.8-0.1l3.4,3.4c-0.3,0.5-0.4,1.1-0.4,1.6
	c0,1.9,1.6,3.5,3.5,3.5l0,0l0,0c0,1.9,1.6,3.5,3.5,3.5l0,0c0,1.9,1.6,3.5,3.5,3.5c0.6,0,1.1-0.1,1.6-0.4l1.2,1.2
	c0.5,0.5,1.2,0.9,2,0.9c1.7,0.1,3.2-1.1,3.3-2.8c0-0.1,0-0.1,0-0.2c0.8,0,1.5-0.4,2.1-0.9c0.6-0.6,0.9-1.4,0.9-2.3l0,0
	c0.9,0,1.7-0.4,2.3-1.1c0.6-0.6,0.9-1.5,0.9-2.3c1.8-0.1,3.2-1.5,3.2-3.4c0-0.5-0.1-1-0.4-1.5l3.3-3c1,0.7,2.3,0.6,3.1-0.3l6-6
	C146.5,179.3,146.5,178.7,146.1,178.3z M109.4,192.7c-0.8,0-1.4-0.6-1.4-1.5c0-0.8,0.6-1.4,1.5-1.4c0.8,0,1.4,0.6,1.4,1.5
	c0,0,0,0,0,0C110.9,192,110.2,192.7,109.4,192.7C109.4,192.7,109.4,192.7,109.4,192.7z M114,195.7l-0.1,0.1c-0.3,0.2-0.6,0.4-1,0.4
	c-0.8,0-1.5-0.6-1.5-1.4s0.6-1.4,1.4-1.4c0.8,0,1.5,0.6,1.5,1.4l0,0C114.3,195.1,114.2,195.4,114,195.7L114,195.7z M117.4,199.2
	L117.4,199.2L117.4,199.2c-0.6,0.6-1.5,0.5-2.1,0c-0.3-0.3-0.4-0.6-0.4-1c0-0.4,0.1-0.7,0.4-1l0.1-0.1c0.3-0.2,0.6-0.4,1-0.4
	c0.8,0,1.4,0.7,1.4,1.5C117.8,198.6,117.7,198.9,117.4,199.2L117.4,199.2z M131.5,191.4c-0.5,0.5-1.3,0.5-1.8,0l-2.1-2.1
	c-0.4-0.4-1-0.4-1.4,0c0,0,0,0,0,0c-0.4,0.4-0.4,1,0,1.4c0,0,0,0,0,0l2.1,2.1l0,0c0.5,0.5,0.5,1.4,0,2c-0.2,0.2-0.6,0.4-0.9,0.4
	c-0.4,0-0.7-0.1-1-0.4l-2-1.9c-0.4-0.4-1.1-0.4-1.4,0c-0.4,0.4-0.4,1.1,0,1.4l2.2,2.1c0.4,0.4,0.4,1.1,0,1.6c0,0,0,0,0,0
	c-0.4,0.4-1.1,0.4-1.6,0l-1-1c-0.4-0.4-1-0.4-1.4,0c0,0,0,0,0,0c-0.4,0.4-0.4,1,0,1.4c0,0,0,0,0,0l1.1,1.1c0.2,0.2,0.3,0.5,0.3,0.7
	c0,0.6-0.4,1-1,1c-0.3,0-0.5-0.1-0.8-0.3l-1.2-1.3c0.3-0.5,0.4-1.1,0.4-1.6c0-1.9-1.6-3.5-3.5-3.5l0,0c0-1.9-1.6-3.5-3.5-3.5l0,0
	c0-1.9-1.6-3.5-3.5-3.5c-0.6,0-1.1,0.1-1.6,0.4l-3.3-3.1l9-9l1.6,1.6c0.2,0.2,0.5,0.3,0.7,0.3h1.3l-4,4c-1.3,1.3-1.3,3.3,0,4.6
	c1.3,1.3,3.3,1.3,4.6,0l3.4-3.4h3.7l6.6,6.5c0.2,0.2,0.4,0.6,0.4,0.9C131.9,190.8,131.8,191.2,131.5,191.4L131.5,191.4z
	 M132.4,187.6l-6.3-6.2l0,0c-0.2-0.2-0.5-0.3-0.8-0.3h-4.5c-0.3,0-0.5,0.1-0.7,0.3l-3.8,3.8c-0.2,0.2-0.4,0.3-0.7,0.4
	c-0.7,0.1-1.3-0.3-1.5-0.9c-0.1-0.4,0-0.9,0.4-1.2l5.5-5.5h5c0.3,0,0.5-0.1,0.7-0.3l1.4-1.4l8.5,8.5L132.4,187.6z"/>
<circle cx="137.9" cy="187.5" r="1"/>
<circle cx="100.5" cy="187.6" r="1"/>
<circle cx="106.5" cy="174.9" r="1"/>
<circle cx="132" cy="174.8" r="1"/>
<path d="M39.8,144h1.5v1.5h-1.5V144z"/>
<path d="M53,144h1.5v1.5H53V144z"/>
<path d="M69.9,143.6l-3.7-0.9v-0.9c0.9-0.7,1.5-1.8,1.5-2.9v-1.4H70v-1.5h-2.3c0-1-0.4-1.9-1.1-2.6c-0.5-0.5-1.2-0.9-1.9-1v-1.6
	c0-0.6-0.2-1.1-0.6-1.6c-0.4-0.4-0.9-0.6-1.5-0.6c-1.2,0-2.3,1-2.3,2.2c0,0,0,0,0,0v8c0,1.2,0.6,2.2,1.5,2.9v0.9l-3.7,0.9
	c-0.3,0.1-0.6,0.2-0.8,0.4c-0.1-0.5-0.3-1-0.7-1.4l0,0c1.2,0,2.2-1,2.2-2.2c0-1.2-1-2.2-2.3-2.2h-1.4l-0.4-2
	c-0.3-1.4-1.5-2.4-2.9-2.4h-9.6c-1.4,0-2.6,1-2.9,2.4l-0.4,2h-1.5c-1.2,0-2.2,0.9-2.3,2.1c0,1.2,0.9,2.3,2.1,2.3c0,0,0,0,0.1,0l0,0
	c-0.5,0.6-0.7,1.4-0.7,2.2v2.2c0,0.8,0.7,1.5,1.5,1.5c0,0,0,0,0,0H39v1.5h-5.1v-19.1c0-0.6-0.2-1.1-0.6-1.6c-0.4-0.4-1-0.7-1.6-0.6
	c-1.2,0.1-2.1,1.1-2.1,2.3v39h-1c-0.2,0-0.4,0.1-0.5,0.4l-0.9,3.5c-0.1,0.2,0.1,0.5,0.3,0.6c0,0,0.1,0,0.1,0h8.1
	c0.3,0,0.5-0.2,0.5-0.5c0,0,0-0.1,0-0.1l-0.9-3.5c-0.1-0.2-0.2-0.3-0.5-0.4h-1v-14h25v18.4h10.4v-20.7h1.5c0.8,0,1.5-0.7,1.5-1.5
	v-5.6C72.2,145.1,71.3,143.9,69.9,143.6z M66.3,138.8c0,0.8-0.4,1.5-1.1,1.9c-1.1,0.6-2.4,0.2-3-0.8c-0.2-0.3-0.3-0.7-0.3-1.1v-1.5
	h4.4V138.8z M66.3,135.9h-4.4c0-1.2,1-2.2,2.2-2.2h0C65.3,133.7,66.3,134.7,66.3,135.9L66.3,135.9z M61.8,130.7
	c0-0.4,0.3-0.7,0.7-0.8c0.2,0,0.4,0.1,0.6,0.2c0.1,0.1,0.2,0.3,0.2,0.5v1.6c-0.5,0.1-1,0.3-1.5,0.7L61.8,130.7z M58.5,145l4.8-1.2
	v-1.4c0.2,0.1,0.5,0.1,0.7,0.1c0.2,0,0.5,0,0.7-0.1v1.4l4.8,1.2c0.7,0.2,1.1,0.8,1.1,1.4v2.7h-1.5v-2.9h-1.5v2.9h-1.5v-2.9h-4.4v2.9
	h-1.5v-2.9h-1.5v2.9h-1.5v-2.7C57.4,145.8,57.9,145.2,58.5,145z M64.1,149.7c-0.2-0.2-0.5-0.3-0.7-0.4v-1.6h1.5v1.6
	C64.5,149.4,64.3,149.5,64.1,149.7L64.1,149.7z M57.4,152.1v-1.5h5.2c0.4,0,0.7,0.3,0.7,0.7c0,0,0,0,0,0.1c0,0.4-0.4,0.7-0.8,0.7
	L57.4,152.1z M56.1,146.4v0.5h-4.2l1.2-4.4h0.8c0.4,0,0.7,0.1,1,0.2H55c0.7,0.4,1.1,1.2,1,2L56.1,146.4L56.1,146.4z M50.3,146.9
	h-6.2l-1.1-4.4h8.4L50.3,146.9z M44.2,148.4h5.9v1.5h-5.9L44.2,148.4z M51.5,148.4h2.2v1.5h-2.2L51.5,148.4z M55.2,148.4H56v1.5
	h-0.7L55.2,148.4z M56.7,139.6c0.4,0,0.7,0.3,0.8,0.7c0,0.2-0.1,0.4-0.2,0.6c-0.1,0.1-0.3,0.2-0.5,0.2h-1l-0.3-1.5H56.7z
	 M40.9,136.3c0.1-0.7,0.7-1.2,1.5-1.2H52c0.7,0,1.3,0.5,1.5,1.2l0.9,4.7c-0.2,0-0.3,0-0.5,0H40.5h-0.5L40.9,136.3z M37.1,140.8
	c-0.2-0.1-0.2-0.4-0.2-0.6c0-0.4,0.4-0.7,0.8-0.7h1.2l-0.3,1.4h-1C37.4,141,37.2,140.9,37.1,140.8L37.1,140.8z M38.3,144.7
	c0-0.8,0.4-1.5,1.1-1.9h0.1c0.3-0.2,0.7-0.3,1-0.3h0.9l1.1,4.4h-4.2L38.3,144.7z M40.5,148.4h2.2v1.5h-2.2L40.5,148.4z M33.8,172.7
	h-4.3c-0.3,0-0.5-0.2-0.5-0.5c0,0,0-0.1,0-0.1l0.1-0.6c0.1-0.2,0.2-0.4,0.5-0.4h4c0.2,0,0.4,0.1,0.5,0.4l0.1,0.6
	C34.3,172.4,34.2,172.6,33.8,172.7C33.9,172.7,33.9,172.7,33.8,172.7L33.8,172.7z M30.9,169.7v-39c0-0.4,0.3-0.7,0.7-0.8
	c0.2,0,0.4,0.1,0.6,0.2c0.1,0.1,0.2,0.3,0.2,0.5v39L30.9,169.7z M33.9,154.3v-2.9H56v0.7c0,0.8,0.7,1.5,1.5,1.5c0,0,0,0,0,0h1.5v0.7
	L33.9,154.3z M60.4,157.2h3v15.5h-2.9L60.4,157.2z M64.8,172.7v-15.5h3v15.5H64.8z M67.8,155.8h-7.4v-2.2h2.2c0.5,0,1.1-0.2,1.5-0.6
	c0.4,0.4,0.9,0.6,1.5,0.6h2.2L67.8,155.8z M65.6,152.1c-0.4,0-0.7-0.3-0.8-0.6c0-0.2,0-0.5,0.2-0.6c0.1-0.1,0.3-0.2,0.5-0.2h5.2v1.5
	H65.6z"/>
<path d="M50.3,167l1,1l0.9-0.9v0.4c0,2.8-2.2,5.2-5.1,5.2c-2.8,0-5.2-2.2-5.2-5.1c0-2.8,2.2-5.2,5.1-5.2c0,0,0.1,0,0.1,0v-1.5
	c-3.7,0-6.6,3-6.6,6.6c0,3.7,3,6.6,6.6,6.6s6.6-3,6.6-6.6v-0.4l0.9,0.9l1-1l-2.7-2.7L50.3,167z"/>
<path d="M46.4,167.2l-1.7-1.7l-1,1l2.7,2.7l9.4-9.4l-1-1L46.4,167.2z"/>
<path d="M176.5,66.3c2.8,0,5-2.2,5-5c0-2.8-2.2-5-5-5s-5,2.2-5,5C171.5,64.1,173.7,66.3,176.5,66.3z M176.5,57.4
	c2.2,0,3.9,1.8,3.9,3.9c0,2.2-1.8,3.9-3.9,3.9s-3.9-1.8-3.9-3.9c0,0,0,0,0,0C172.6,59.1,174.3,57.4,176.5,57.4
	C176.5,57.4,176.5,57.4,176.5,57.4z"/>
<path d="M176.5,63c-0.3,0-0.5-0.2-0.5-0.5c0-0.3-0.2-0.5-0.5-0.5c-0.3,0-0.5,0.2-0.5,0.5c0,0.6,0.4,1.2,0.9,1.5v0.2
	c0,0.3,0.2,0.6,0.6,0.6l0,0c0.3,0,0.5-0.3,0.5-0.6l0,0V64c0.8-0.2,1.3-1.1,1.1-2c-0.2-0.7-0.8-1.2-1.5-1.2c-0.3,0-0.5-0.2-0.5-0.5
	c0,0,0,0,0,0c-0.1-0.3,0.1-0.5,0.4-0.6c0.3-0.1,0.5,0.1,0.6,0.4c0,0.1,0,0.1,0,0.2l0,0c0,0.3,0.2,0.5,0.5,0.5c0.3,0,0.5-0.2,0.5-0.5
	c0-0.7-0.4-1.3-1.1-1.5v-0.2c0-0.3-0.2-0.5-0.5-0.5c-0.3,0-0.5,0.2-0.6,0.5v0.3c-0.8,0.3-1.3,1.2-1,2c0.2,0.7,0.9,1.1,1.6,1.1
	c0.3,0,0.5,0.2,0.5,0.5c0,0,0,0,0,0C177,62.8,176.8,63,176.5,63z"/>
<path d="M184.7,77.5c0.1,0.1,0.2,0.2,0.4,0.2l0,0c0.1,0,0.3-0.1,0.4-0.2l2.5-2.5c0.2-0.2,0.2-0.6,0-0.8c-0.2-0.2-0.6-0.2-0.8,0l0,0
	l0,0l-2.1,2.1l-1-1c-0.2-0.2-0.6-0.2-0.8,0c-0.2,0.2-0.2,0.6,0,0.8l0,0L184.7,77.5z"/>
<path d="M197.4,61h-11.3v-1.2h4.4c0.3,0,0.5-0.2,0.5-0.5c0,0,0,0,0,0v-2.9c0-1.7-1.3-3-3-3H170c-1.6,0-2.9,1.3-2.9,2.9c0,0,0,0,0,0
	V61h-7.6c-0.3,0-0.5,0.3-0.5,0.6v30.3c0,0.3,0.2,0.6,0.5,0.6h13.2l-1.4,4.9h-2.4c-0.3,0-0.5,0.2-0.5,0.5s0.2,0.5,0.5,0.5H188
	c0.3,0,0.5-0.2,0.5-0.5s-0.2-0.5-0.5-0.5h-2.4l-1.4-4.9h13.2c0.3,0,0.5-0.3,0.5-0.6V61.6C198,61.3,197.8,61,197.4,61
	C197.5,61,197.5,61,197.4,61z M186.1,56.5c0-1.1,0.8-2,1.9-2c0,0,0,0,0,0l0,0c1.1,0,2,0.9,2,2v2.3h-3.9L186.1,56.5z M168.2,56.3
	c0-1,0.8-1.8,1.8-1.8h15.7c-0.5,0.6-0.7,1.3-0.7,2v13.2c-0.5,0-0.9,0.1-1.4,0.3l0,0c-0.7,0.2-1.3,0.5-1.8,0.9
	c-0.5,0.3-0.8,0.7-1.2,1.2c-0.2,0.3-0.5,0.7-0.6,1.1c-0.1,0.1-0.1,0.3-0.2,0.4c-0.3,0.8-0.4,1.5-0.4,2.3c0,0.6,0.1,1.3,0.3,1.9
	h-11.7L168.2,56.3z M190.6,75.8c0,2.8-2.2,5-5,5s-5-2.2-5-5s2.2-5,5-5C188.4,70.8,190.6,73.1,190.6,75.8z M184.5,97.3h-12l1.4-4.9
	h9.3L184.5,97.3z M196.9,91.3H160v-5.2h36.9V91.3z M196.9,85H160V62h7.1L167,78.3c0,0.1,0.1,0.3,0.2,0.4c0.1,0.1,0.2,0.2,0.4,0.2
	h12.8c1.7,2.9,5.4,4,8.4,2.3c2.9-1.7,4-5.4,2.3-8.4c-1-1.7-2.8-2.9-4.8-3.1v-7.6h10.7V85z"/>
<path d="M173.5,75.9c0.6,0,1-0.4,1-1s-0.4-1-1-1s-1,0.4-1,1S172.9,75.9,173.5,75.9z M173.5,74.4c0.3,0,0.6,0.2,0.6,0.6
	c0,0.3-0.2,0.6-0.6,0.6c-0.3,0-0.6-0.2-0.6-0.6c0,0,0,0,0,0C172.9,74.7,173.2,74.4,173.5,74.4z"/>
<path d="M179.2,75.2c0-0.1-0.1-0.1-0.1-0.2c0-0.1,0-0.2,0.1-0.3c0-0.3,0.1-0.5,0.2-0.8c-0.6,0.1-1,0.6-1,1.2c0,0.4,0.3,0.8,0.7,0.9
	v-0.3C179.1,75.5,179.1,75.3,179.2,75.2z"/>
<path d="M178,75c0-0.8,0.7-1.5,1.5-1.5l0,0c0.1-0.2,0.2-0.4,0.3-0.7c-0.1,0-0.2,0-0.3,0c-1.2,0-2.2,1-2.2,2.2c0,1.1,0.8,2,1.9,2.2
	c0-0.2-0.1-0.5-0.1-0.7C178.5,76.3,178,75.7,178,75z"/>
<path d="M181.2,71l-0.4-0.1c-0.2-0.1-0.3-0.2-0.4-0.3l-0.9-1.8c-0.3-0.6-0.9-1-1.5-1h-4.3c-0.6,0-1.2,0.3-1.6,0.7l-1.9,2
	c-0.2,0.3-0.4,0.6-0.4,1v2.6c0,0.6,0.4,1.2,1.1,1.2c0,0,0,0,0.1,0h0.3c0.2,1.2,1.3,2,2.5,1.9c1-0.1,1.7-0.9,1.9-1.9h1.1
	c0.2,0,0.3-0.2,0.3-0.3c0-0.2-0.2-0.3-0.3-0.3h-1.1c-0.2-1.2-1.3-2-2.5-1.9c-1,0.1-1.7,0.9-1.9,1.9H171c-0.3,0-0.5-0.2-0.5-0.5l0,0
	v-2.6c0-0.2,0.1-0.3,0.2-0.5l1.9-2c0.3-0.3,0.7-0.5,1.1-0.5h4.3c0.4,0,0.7,0.2,0.9,0.6l0.9,1.8c0.2,0.3,0.4,0.6,0.8,0.7h0.1
	C180.8,71.4,181,71.2,181.2,71z M173.5,73.4c0.9,0,1.6,0.7,1.6,1.5s-0.7,1.6-1.5,1.6c-0.8,0-1.5-0.6-1.6-1.5
	C172,74.1,172.7,73.4,173.5,73.4C173.5,73.4,173.5,73.4,173.5,73.4L173.5,73.4z"/>
<path d="M179.6,71.1l-0.9-1.8c-0.2-0.3-0.4-0.4-0.8-0.5h-2.8c-0.2,0-0.3,0.2-0.3,0.3v1.8h-2.8l1.1-1.2c0.2-0.1,0.3-0.2,0.6-0.2h0.7
	c0.2,0,0.3-0.2,0.3-0.3c0-0.2-0.2-0.3-0.3-0.3h-0.7c-0.4,0-0.8,0.2-1.1,0.4L171,71c-0.1,0.1-0.1,0.3,0,0.5c0.1,0.1,0.1,0.1,0.2,0.1
	h8.1c0.1,0,0.2-0.1,0.3-0.2l0,0C179.7,71.3,179.7,71.2,179.6,71.1z M175.6,70.9v-1.4h2.4c0.1,0,0.1,0,0.1,0.1l0.6,1.3L175.6,70.9z"
	/>
<path d="M125.1,10.5c-0.5,0-0.9,0.4-0.9,0.9s0.4,0.9,0.9,0.9s0.9-0.4,0.9-0.9S125.6,10.5,125.1,10.5L125.1,10.5z"/>
<path d="M132.1,7h-9.6l-2.8-5.6c-0.4-0.9-1.4-1.4-2.4-1.4h-10.1c-1,0-1.9,0.6-2.3,1.5L102,7h-1.8V6.2c0-1.5-1.2-2.6-2.6-2.6h-1.7
	c-1.5,0-2.6,1.2-2.6,2.6V7h-0.9c-1.5,0-2.6,1.2-2.6,2.6v24.6c0,1.5,1.2,2.6,2.6,2.6h39.7c1.5,0,2.6-1.2,2.6-2.6V9.7
	C134.7,8.2,133.6,7,132.1,7C132.1,7,132.1,7,132.1,7z M107.2,1.8h10.1c0.3,0,0.6,0.2,0.8,0.5l2.4,4.8H104l2.4-4.8
	C106.6,1.9,106.9,1.8,107.2,1.8z M95.9,5.3h1.8c0.5,0,0.9,0.4,0.9,0.9V7H95V6.2C95,5.7,95.4,5.3,95.9,5.3z M91.5,15.8h11.1
	c-2.4,3.8-2.4,8.5,0,12.3H91.5V15.8z M112.2,12.3c5.3,0,9.7,4.3,9.7,9.7c0,5.3-4.3,9.7-9.7,9.7c-5.3,0-9.6-4.3-9.7-9.6
	C102.5,16.7,106.9,12.3,112.2,12.3C112.2,12.3,112.2,12.3,112.2,12.3z M132.1,35.2H92.4c-0.5,0-0.9-0.4-0.9-0.9v-4.4H104
	c4.4,4.6,11.6,4.7,16.1,0.4c0.1-0.1,0.2-0.2,0.4-0.4H133v4.4C133,34.8,132.6,35.2,132.1,35.2C132.1,35.2,132.1,35.2,132.1,35.2z
	 M133,28.2h-11.1c2.4-3.7,2.4-8.6,0-12.3H133L133,28.2z M133,14.1h-12.5c-4.4-4.6-11.6-4.7-16.2-0.3c-0.1,0.1-0.2,0.2-0.3,0.3H91.5
	V9.7c0-0.5,0.4-0.9,0.9-0.9c0,0,0,0,0,0h39.7c0.5,0,0.9,0.4,0.9,0.9c0,0,0,0,0,0V14.1z"/>
<path d="M114.9,3.5h-5.3c-0.4,0-0.8,0.3-0.9,0.7c-0.1,0.5,0.3,0.9,0.8,1c0,0,0.1,0,0.1,0h5.3c0.4,0,0.8-0.3,0.9-0.8
	c0.1-0.5-0.3-0.9-0.8-1C115,3.5,114.9,3.5,114.9,3.5z"/>
<path d="M112.2,14.1c-4.4,0-7.9,3.5-7.9,7.9c0,4.4,3.5,7.9,7.9,7.9c4.4,0,7.9-3.5,7.9-7.9C120.2,17.6,116.6,14.1,112.2,14.1
	C112.3,14.1,112.2,14.1,112.2,14.1z M112.2,28.1c-3.4,0-6.1-2.8-6.1-6.2c0-3.4,2.8-6.1,6.2-6.1c3.4,0,6.1,2.8,6.1,6.2c0,0,0,0,0,0
	C118.4,25.4,115.6,28.1,112.2,28.1z"/>
<path d="M112.2,17.6c-2.4,0-4.4,2-4.4,4.4c-0.1,0.5,0.3,0.9,0.8,1c0.5,0.1,0.9-0.3,1-0.8c0-0.1,0-0.1,0-0.2c0-1.5,1.2-2.6,2.6-2.6
	c0.5,0,0.9-0.4,0.9-0.9C113.1,18,112.7,17.6,112.2,17.6L112.2,17.6z"/>
<path d="M130.4,10.6h-1.7c-0.4,0-0.8,0.3-0.9,0.8c-0.1,0.5,0.3,0.9,0.7,1c0,0,0.1,0,0.1,0h1.7c0.4,0,0.8-0.3,0.9-0.7
	c0.1-0.5-0.3-0.9-0.8-1C130.4,10.6,130.4,10.6,130.4,10.6z"/>
<path d="M32.4,191.6c0.4,0,0.6-0.4,0.6-0.8c0-0.3-0.3-0.6-0.6-0.6c-0.4,0-0.6,0.4-0.6,0.8C31.8,191.4,32.1,191.6,32.4,191.6z"/>
<path d="M20.1,127.5c-10.7,21-2.8,46.8,11.8,63.9c0.6,0.7,1.5-0.3,1-1c-14.2-16.7-22-41.9-11.6-62.3
	C21.7,127.4,20.5,126.7,20.1,127.5L20.1,127.5z"/>
<path d="M217.2,92.7c-12.4,17.9-33.6,29.1-53.4,36.8c-17.5,6.9-37.3,12.8-56.2,11.9c-0.9,0-0.9,1.3,0,1.4
	c19.9,0.9,40.7-5.5,58.9-12.9c19.4-7.9,39.8-18.9,52-36.6C218.9,92.7,217.7,92,217.2,92.7L217.2,92.7z"/>
<path d="M217.8,93.8c0.4,0,0.6-0.4,0.6-0.8c0-0.3-0.3-0.6-0.6-0.6c-0.4,0-0.6,0.4-0.6,0.8C217.2,93.5,217.5,93.7,217.8,93.8z"/>
<path d="M118.4,52.8c11.7-4.3,23.8-7.7,36-10.2c15.9-3.2,34.1-5.5,49.7,0.2c8.6,3.2,15.2,9.4,18.2,18.1c0.3,0.8,1.6,0.5,1.3-0.4
	C212,27,162.2,38.3,137,45.4c-6.4,1.8-12.7,3.8-18.9,6.1C117.3,51.8,117.6,53.1,118.4,52.8L118.4,52.8z"/>
<path d="M68.4,47.1c8.3,14,27,14.5,41,9.5c0.8-0.3,0.5-1.6-0.4-1.3c-13.3,4.7-31.4,4.6-39.4-8.9c-0.2-0.3-0.7-0.4-1-0.1
	C68.4,46.5,68.3,46.8,68.4,47.1z"/>
<path d="M220.9,88.1c-0.2,0-0.3-0.1-0.4-0.2c-0.3-0.2-0.4-0.7-0.1-1c0,0,0,0,0,0c5.6-6.7,3.4-21.4,3.3-21.6c0-0.4,0.3-0.7,0.6-0.7
	c0.3,0,0.6,0.2,0.7,0.5c0.1,0.6,2.3,15.5-3.6,22.7C221.3,88,221.1,88.1,220.9,88.1z"/>
<path d="M90,142.2c-0.4,0-9.8-0.1-18.4-11.4c-20.5-26.6-41.9-12.6-42.8-12c-0.3,0.2-0.7,0.2-1-0.1c0,0,0,0,0,0
	c-0.2-0.3-0.1-0.7,0.2-0.9c0.2-0.2,23.4-15.3,44.7,12.3c8.3,10.7,17.3,10.9,17.4,10.9c0.4,0,0.6,0.4,0.6,0.8
	C90.6,141.9,90.3,142.2,90,142.2z"/>
<path d="M37.1,196.3c-0.2,0-0.4-0.1-0.5-0.2l-1.2-1.2c-0.3-0.3-0.3-0.7,0-1s0.7-0.3,1,0l1.2,1.2c0.3,0.3,0.3,0.7,0,1c0,0,0,0,0,0
	C37.4,196.2,37.3,196.3,37.1,196.3z"/>
<path d="M112.7,55.5c-0.4,0-0.7-0.3-0.7-0.7c0-0.3,0.1-0.5,0.4-0.6l2.3-1.2c0.3-0.2,0.7-0.1,1,0.2c0.2,0.3,0.1,0.7-0.2,1
	c0,0-0.1,0-0.1,0.1l-2.3,1.2C112.9,55.5,112.8,55.5,112.7,55.5z"/>
<path d="M40.2,198.5c21.5,15.7,47.7,25.3,73.9,29.4c24.6,3.9,51.8,3.4,74.4-8.1c11.5-5.7,21.1-14.7,27.4-25.8c0.2-0.3,0-0.8-0.3-0.9
	c-0.3-0.1-0.7,0-0.9,0.2c-26.1,46.3-94.4,39.5-136.5,23.8c-13.3-4.8-25.9-11.5-37.4-19.8C40.2,196.8,39.5,198,40.2,198.5L40.2,198.5
	z"/>
<path d="M216.8,200.4c-0.3,0-0.6-0.2-0.7-0.6l-1-6.1l-6.1,3.1c-0.4,0.1-0.8,0-0.9-0.4c-0.1-0.3,0-0.7,0.3-0.8l7-3.5
	c0.2-0.1,0.4-0.1,0.6,0c0.2,0.1,0.3,0.3,0.4,0.5l1.2,7c0.1,0.4-0.2,0.7-0.6,0.8H216.8z"/>
<path d="M220.9,164l-1.6-6.2c0.4-0.1,0.7-0.5,0.8-0.9v-0.9c0-2.2-1.8-3.9-3.9-3.9c0,0,0,0-0.1,0H209v-2c0-1.1-0.9-1.9-1.9-1.9
	c0,0,0,0-0.1,0h-37c-0.6,0-1,0.4-1,1v18.1c0,0.1,0.1,0.3,0.1,0.4c0.4,0.4,1,0.4,1.4,0.1c0.2-0.2,0.3-0.4,0.3-0.7v-17l0,0h36.2
	c0,0,0.1,0,0.1,0.1V167c0,0.5,0.3,0.9,0.8,0.9c0.5,0.1,1-0.3,1.1-0.8c0-0.1,0-0.1,0-0.2v-1h11.2c1.3,0,2.5,0.8,2.9,2.1h-2.9
	c-0.5,0-0.9,0.4-0.9,0.9v2c0,1.6,1.3,2.9,2.9,2.9c0,0,0,0,0,0h1v4.1h-2.5c-1.2-3.1-4.6-4.7-7.7-3.5c-1.6,0.6-2.9,1.9-3.5,3.5H209v-7
	c0-0.5-0.3-0.9-0.8-1c-0.6,0-1,0.4-1.1,0.9c0,0,0,0,0,0v7h-19.5c-1.1-3.1-4.6-4.7-7.7-3.6c-1.7,0.6-3,1.9-3.6,3.6h-5.4
	c0,0-0.1,0-0.1-0.1v-2h4c0.5,0,0.9-0.3,1-0.8c0.1-0.5-0.3-1-0.8-1.1c0,0-0.1,0-0.1,0h-9c-0.5,0-0.9,0.3-1,0.8
	c-0.1,0.5,0.3,1,0.8,1.1c0,0,0.1,0,0.1,0h3.1v2c0,1.1,0.9,1.9,1.9,1.9c0,0,0,0,0,0h4.8v0.1c0,3.3,2.7,6,6,6s6-2.7,6-6v-0.1h21.3v0.1
	c0,3.3,2.7,6,6,6s6-2.7,6-6v-0.1h3.1c0.5,0,0.9-0.4,0.9-0.9l0,0v-10C225.1,166.5,223.3,164.4,220.9,164z M209.1,153.9h7.1
	c1.1,0,2,0.9,2.1,2v0.1h-9.2V153.9z M209.1,163.9v-6.1h8.3l1.5,6.1L209.1,163.9z M182,183.9c-2.2,0-4.1-1.8-4-4.1s1.8-4.1,4.1-4
	s4.1,1.8,4,4.1c0,0,0,0,0,0C186,182.1,184.2,183.9,182,183.9z M215.1,183.9c-2.2,0-4.1-1.8-4-4.1s1.8-4.1,4.1-4s4.1,1.8,4,4.1
	c0,0,0,0,0,0C219.2,182.1,217.4,183.9,215.1,183.9z M223.3,171.9h-1c-0.6,0-1.1-0.5-1.1-1.1v-1h2.1L223.3,171.9L223.3,171.9z"/>
<path d="M182,177.9c-1.1,0-1.9,0.9-1.9,1.9s0.9,1.9,1.9,1.9c1.1,0,1.9-0.9,1.9-1.9S183.1,177.9,182,177.9L182,177.9z"/>
<path d="M215.1,177.9c-1.1,0-1.9,0.9-1.9,2s0.9,1.9,2,1.9c1,0,1.9-0.9,1.9-1.9C217.1,178.8,216.3,177.9,215.1,177.9
	C215.2,177.9,215.2,177.9,215.1,177.9z"/>
<path d="M204.1,173.9h-14c-0.5,0-0.9,0.3-1,0.8c-0.1,0.5,0.3,1,0.8,1.1c0,0,0.1,0,0.1,0h14c0.5,0,0.9-0.3,1-0.8
	c0.1-0.5-0.3-1-0.8-1.1C204.2,173.9,204.1,173.9,204.1,173.9z"/>
<path d="M180,169.9h-12c-0.5,0-0.9,0.3-1,0.8c-0.1,0.5,0.3,1,0.8,1.1c0,0,0.1,0,0.1,0h12c0.5,0,0.9-0.3,1-0.8c0.1-0.5-0.3-1-0.8-1.1
	C180.1,169.9,180,169.9,180,169.9z"/>
<path d="M197.7,157.2c-0.4-0.4-1-0.4-1.3,0c0,0,0,0,0,0l-8.4,8.3l-4.4-4.3c-0.4-0.4-1-0.4-1.3,0c0,0,0,0,0,0c-0.4,0.4-0.4,0.9,0,1.3
	c0,0,0,0,0,0l5,5c0.2,0.2,0.4,0.3,0.7,0.3c0.3,0,0.5-0.1,0.7-0.3l9-9C198,158.2,198.1,157.6,197.7,157.2
	C197.7,157.2,197.7,157.2,197.7,157.2z"/>
<path class="st0" d="M232.4,119.9c-0.2,0-0.4-0.2-0.4-0.4l0,0v-3.9c0-0.2,0.2-0.3,0.4-0.3c0.2,0,0.3,0.1,0.3,0.3v3.9
	C232.8,119.7,232.6,119.9,232.4,119.9z"/>
<path class="st0" d="M232.4,127.3c-0.2,0-0.4-0.2-0.4-0.4l0,0V123c0-0.2,0.2-0.3,0.4-0.3c0.2,0,0.3,0.1,0.3,0.3v3.9
	C232.8,127.1,232.6,127.3,232.4,127.3z"/>
<path class="st0" d="M238.1,121.6h-3.9c-0.2,0-0.4-0.1-0.4-0.3s0.1-0.4,0.3-0.4c0,0,0.1,0,0.1,0h3.9c0.2,0,0.3,0.2,0.3,0.4
	C238.3,121.5,238.2,121.6,238.1,121.6z"/>
<path class="st0" d="M230.7,121.6h-3.9c-0.2,0-0.4-0.1-0.4-0.3s0.1-0.4,0.3-0.4c0,0,0.1,0,0.1,0h3.9c0.2,0,0.3,0.2,0.3,0.4
	C231,121.5,230.8,121.6,230.7,121.6z"/>
<path class="st0" d="M147.5,82.2c-0.2,0-0.4-0.2-0.4-0.3c0,0,0,0,0,0v-3.9c0-0.2,0.1-0.4,0.3-0.4c0.2,0,0.4,0.1,0.4,0.3
	c0,0,0,0.1,0,0.1v3.9C147.9,82,147.7,82.2,147.5,82.2z"/>
<path class="st0" d="M147.5,89.5c-0.2,0-0.4-0.2-0.4-0.3c0,0,0,0,0,0v-3.9c0-0.2,0.1-0.4,0.3-0.4c0.2,0,0.4,0.1,0.4,0.3
	c0,0,0,0.1,0,0.1v3.9C147.9,89.4,147.7,89.5,147.5,89.5z"/>
<path class="st0" d="M153.2,83.9h-3.9c-0.2,0-0.3-0.2-0.3-0.4c0-0.2,0.1-0.3,0.3-0.3h3.9c0.2,0,0.3,0.2,0.3,0.4
	C153.4,83.7,153.3,83.9,153.2,83.9z"/>
<path class="st0" d="M145.8,83.9h-3.9c-0.2,0-0.3-0.2-0.3-0.4c0-0.2,0.1-0.3,0.3-0.3h3.9c0.2,0,0.3,0.2,0.3,0.4
	C146.1,83.7,145.9,83.9,145.8,83.9z"/>
<path class="st0" d="M147.5,17.1c-0.2,0-0.4-0.2-0.4-0.3c0,0,0,0,0,0v-3.9c0-0.2,0.1-0.4,0.3-0.4c0.2,0,0.4,0.1,0.4,0.3
	c0,0,0,0.1,0,0.1v3.9C147.9,16.9,147.7,17.1,147.5,17.1z"/>
<path class="st0" d="M147.5,24.5c-0.2,0-0.4-0.2-0.4-0.3c0,0,0,0,0,0v-3.9c0-0.2,0.1-0.4,0.3-0.4c0.2,0,0.4,0.1,0.4,0.3
	c0,0,0,0.1,0,0.1v3.9C147.9,24.3,147.7,24.5,147.5,24.5z"/>
<path class="st0" d="M153.2,18.8h-3.9c-0.2,0-0.3-0.2-0.3-0.4c0-0.2,0.1-0.3,0.3-0.3h3.9c0.2,0,0.3,0.2,0.3,0.4
	C153.4,18.6,153.3,18.8,153.2,18.8z"/>
<path class="st0" d="M145.8,18.8h-3.9c-0.2,0-0.3-0.2-0.3-0.4c0-0.2,0.1-0.3,0.3-0.3h3.9c0.2,0,0.3,0.2,0.3,0.4
	C146.1,18.6,145.9,18.8,145.8,18.8z"/>
<path class="st0" d="M6,101c-0.2,0-0.3-0.2-0.3-0.3v-3.9c0-0.2,0.2-0.3,0.4-0.3c0.2,0,0.3,0.1,0.3,0.3v3.9C6.3,100.9,6.2,101,6,101z
	"/>
<path class="st0" d="M6,108.4c-0.2,0-0.4-0.2-0.3-0.4v-3.9c0-0.2,0.2-0.3,0.4-0.3c0.2,0,0.3,0.1,0.3,0.3v3.9
	C6.4,108.2,6.2,108.4,6,108.4C6,108.4,6,108.4,6,108.4z"/>
<path class="st0" d="M11.7,102.8H7.7c-0.2,0-0.3-0.2-0.3-0.4c0-0.2,0.1-0.3,0.3-0.3h3.9c0.2,0,0.4,0.1,0.4,0.3
	c0,0.2-0.1,0.4-0.3,0.4C11.8,102.8,11.7,102.8,11.7,102.8z"/>
<path class="st0" d="M4.3,102.8H0.3c-0.2,0-0.3-0.2-0.3-0.4c0-0.2,0.1-0.3,0.3-0.3h3.9c0.2,0,0.4,0.1,0.4,0.3s-0.1,0.4-0.3,0.4
	C4.4,102.8,4.3,102.8,4.3,102.8z"/>
<path class="st0" d="M147.5,242.5c-0.2,0-0.4-0.2-0.4-0.3v0v-3.9c0-0.2,0.1-0.4,0.3-0.4c0.2,0,0.4,0.1,0.4,0.3c0,0,0,0.1,0,0.1v3.9
	C147.9,242.4,147.7,242.5,147.5,242.5z"/>
<path class="st0" d="M147.5,249.9c-0.2,0-0.4-0.2-0.4-0.3v0v-3.9c0-0.2,0.2-0.3,0.4-0.3c0.2,0,0.3,0.1,0.3,0.3v3.9
	C147.9,249.8,147.7,249.9,147.5,249.9z"/>
<path class="st0" d="M153.2,244.3h-3.9c-0.2,0-0.3-0.2-0.3-0.4c0-0.2,0.1-0.3,0.3-0.3h3.9c0.2,0,0.3,0.2,0.3,0.4
	C153.4,244.1,153.3,244.2,153.2,244.3z"/>
<path class="st0" d="M145.8,244.3h-3.9c-0.2,0-0.3-0.2-0.3-0.4c0-0.2,0.1-0.3,0.3-0.3h3.9c0.2,0,0.3,0.2,0.3,0.4
	C146.1,244.1,145.9,244.2,145.8,244.3z"/>
<path class="st1" d="M107.6,43.8l-1.3,0.5v2.7c0,0.1,0,0.2-0.1,0.3c-0.1,0.1-0.1,0.2-0.2,0.2c-0.2,0.1-0.4,0.1-0.6,0.1h-0.4
	l-0.1-0.3h0.7c0.3,0,0.4-0.1,0.4-0.3v-2.5l-1.3,0.4l-0.1-0.3c0.5-0.1,0.9-0.3,1.4-0.4v-2.2h-1.3v-0.3h1.3v-1.8h0.3v1.8h1.2v0.3h-1.2
	v2.1c0.3-0.1,0.8-0.3,1.2-0.4L107.6,43.8z M112,47.5h-0.4v-0.7h-3.3v0.7h-0.4v-6.4h1.2c0.3-0.5,0.5-0.9,0.6-1.4l0.3,0.1
	c-0.2,0.5-0.3,0.9-0.6,1.3h2.5L112,47.5z M111.6,43.8v-2.3h-3.3v2.3H111.6z M111.6,46.5v-2.4h-3.3v2.4H111.6z"/>
<path class="st1" d="M115.2,45.7c-0.4,0.7-0.8,1.3-1.3,1.8l-0.3-0.2c0.5-0.5,1-1.1,1.3-1.8L115.2,45.7z M116.2,45H114v-4.9h2.2
	L116.2,45z M115.8,42.3v-1.9h-1.5v1.8L115.8,42.3z M115.8,44.7v-2.1h-1.5v2.1H115.8z M116.8,47.4l-0.4,0.1c-0.1-0.6-0.2-1.2-0.4-1.8
	l0.3-0.1C116.6,46.2,116.7,46.8,116.8,47.4L116.8,47.4z M120.8,40c0,0.5-0.1,1-0.1,1.4c0,0.3-0.1,0.5-0.2,0.8
	c-0.1,0.1-0.1,0.2-0.3,0.2c-0.2,0.1-0.4,0.1-0.6,0.1c-0.2,0-0.5,0-0.7,0l-0.1-0.3c0.2,0,0.4,0,0.7,0c0.2,0,0.3,0,0.5-0.1
	c0.1,0,0.1-0.1,0.2-0.2c0.1-0.2,0.1-0.4,0.1-0.6c0-0.3,0.1-0.7,0.1-1h-1.6c-0.2,1.1-0.9,2-2,2.4l-0.2-0.3c0.9-0.3,1.6-1.1,1.8-2.1
	h-1.7V40L120.8,40z M120.6,45.1h-3.5V43h3.5V45.1z M120.2,44.8v-1.5h-2.7v1.5L120.2,44.8z M119.1,47.4l-0.3,0.1
	c-0.2-0.6-0.4-1.3-0.8-1.8l0.3-0.1C118.6,46.2,118.9,46.8,119.1,47.4L119.1,47.4z M121.3,47.4l-0.3,0.2c-0.2-0.7-0.6-1.3-1-1.9
	l0.3-0.2C120.7,46.1,121,46.7,121.3,47.4L121.3,47.4z"/>
<path class="st1" d="M177.8,110h-7.8v-0.3h3.4v-7.2h0.4v2.8h3.6v0.3h-3.6v4h4L177.8,110z"/>
<path class="st1" d="M181.8,108.3c-0.8,0.7-1.6,1.3-2.6,1.7l-0.3-0.3c0.9-0.4,1.8-1,2.6-1.7L181.8,108.3z M186.8,107.5h-3.7v2.8
	h-0.4v-2.8H179v-0.3h3.8v-0.9h0.4v0.9h3.7L186.8,107.5z M182.7,103.5c0,0.5-0.1,1.1-0.1,1.6c0,0.3-0.1,0.7-0.2,1
	c-0.1,0.1-0.2,0.3-0.4,0.3c-0.2,0.1-0.5,0.1-0.8,0.1h-0.3l-0.1-0.3h0.6c0.2,0,0.3,0,0.5-0.1c0.1,0,0.2-0.1,0.2-0.2
	c0.1-0.2,0.2-0.5,0.2-0.8c0.1-0.4,0.1-0.8,0.1-1.2h-1.5c-0.1,1.1-0.7,2-1.6,2.6l-0.3-0.3c0.9-0.5,1.4-1.4,1.5-2.4H179v-0.3h1.4
	c0-0.4,0.1-0.7,0.1-0.9h0.4c0,0.3,0,0.6,0,0.9L182.7,103.5z M186.2,106.1h-2.6v-3h2.6V106.1z M185.8,105.8v-2.3H184v2.3H185.8z
	 M186.8,109.9l-0.3,0.3c-0.8-0.7-1.6-1.3-2.5-1.8l0.3-0.3C185.2,108.6,186.1,109.2,186.8,109.9L186.8,109.9z"/>
<path class="st1" d="M106.2,129.3h-2.5V129h1.2c-0.1-0.3-0.2-0.6-0.4-0.9l0.3-0.1c0.2,0.3,0.3,0.7,0.4,1h0.9L106.2,129.3z
	 M106.1,130.6H104v-0.3h2.1L106.1,130.6z M106.1,132H104v-0.3h2.1L106.1,132z M106,135.7h-0.3v-0.5h-1.2v0.7h-0.3V133h1.9L106,135.7
	z M105.6,134.8v-1.5h-1.2v1.5L105.6,134.8z M111.6,134.8c-0.1,0.7-0.4,1.1-0.8,1.1s-0.7-0.3-0.9-0.9c-0.4,0.3-0.9,0.6-1.4,0.8
	l-0.2-0.3c0.5-0.2,1-0.5,1.4-0.8c-0.1-0.5-0.2-1.1-0.3-1.6H108v0.8c0.4-0.1,0.7-0.2,1-0.3l0.1,0.3l-1.1,0.3v1c0,0.4-0.2,0.5-0.6,0.5
	h-0.6l-0.1-0.4h0.6c0.1,0,0.2,0,0.3,0c0.1,0,0.1-0.1,0.1-0.2v-1c-0.4,0.1-0.8,0.2-1.2,0.3l-0.1-0.3c0.5-0.1,0.9-0.2,1.3-0.3v-1h-1.2
	v-0.3h1.2V132c-0.4,0.1-0.7,0.1-1.1,0.1l-0.1-0.3c0.8,0,1.6-0.1,2.3-0.4l0.2,0.3c-0.3,0.1-0.6,0.2-0.9,0.2v0.8h1.5
	c0-0.4,0-0.8,0-1.2h0.3c0,0.4,0,0.8,0,1.2h1.7v0.3h-1.7c0,0.5,0.1,0.9,0.2,1.4c0.3-0.3,0.6-0.6,0.9-1l0.3,0.2
	c-0.3,0.4-0.6,0.8-1,1.2c0.2,0.5,0.4,0.8,0.6,0.8s0.2-0.1,0.3-0.3c0.1-0.2,0.2-0.4,0.2-0.7L111.6,134.8z M111.5,131.3h-5V131h2.3
	v-0.6h-2V130h2v-0.6h-2.2V129h4.7v0.3h-2.2v0.7h2v0.3h-2v0.7h2.4L111.5,131.3z M108.4,128.7l-0.3,0.2c-0.2-0.2-0.4-0.5-0.7-0.6
	l0.3-0.2C108,128.2,108.2,128.4,108.4,128.7L108.4,128.7z M110.5,128.3c-0.2,0.2-0.5,0.4-0.8,0.6l-0.3-0.2c0.3-0.2,0.6-0.4,0.8-0.6
	L110.5,128.3z M111.2,132.4l-0.3,0.2c-0.1-0.3-0.3-0.5-0.5-0.7l0.3-0.2C110.9,131.9,111,132.1,111.2,132.4L111.2,132.4z"/>
<path class="st1" d="M114.7,128.2c-0.1,0.5-0.3,1-0.6,1.7v6h-0.3v-5.2c-0.3,0.5-0.6,1-0.9,1.5l-0.3-0.3c0.8-1.2,1.4-2.5,1.7-3.8
	L114.7,128.2z M119.9,134.6h-3l0.2,0.3c-0.7,0.5-1.5,0.8-2.3,1.1l-0.2-0.3c0.8-0.2,1.5-0.5,2.1-1h-1.4v-3.1h4.5V134.6z M120.5,128.6
	h-1.9v0.7h1.6v1.5h-5v-1.5h1.6v-0.7h-1.9v-0.3h5.7L120.5,128.6z M116.7,130.5v-0.9h-1.2v0.9H116.7z M119.5,132.4v-0.6h-3.8v0.6
	H119.5z M119.5,133.3v-0.6h-3.8v0.6H119.5z M119.5,134.3v-0.6h-3.8v0.6H119.5z M118.2,129.3v-0.7H117v0.7H118.2z M118.2,130.5v-0.9
	H117v0.9H118.2z M120.5,135.5l-0.2,0.3c-0.7-0.3-1.4-0.6-2.1-0.8l0.2-0.3C119.1,134.9,119.8,135.2,120.5,135.5L120.5,135.5z
	 M119.8,130.5v-0.9h-1.2v0.9H119.8z"/>
<path class="st1" d="M44,183.6l-0.3,0.2c-0.3-0.5-0.5-1-0.9-1.5v4.7h-0.4v-5.1c-0.2,0.9-0.5,1.8-1,2.6l-0.3-0.3c0.6-1,1-2,1.2-3.1
	h-1.1v-0.3h1.2v-1.6h0.4v1.6h0.8v0.3h-0.8v0.7C43.3,182.4,43.7,183,44,183.6z M46.3,186.2l-0.3,0.2c-0.3-0.4-0.6-0.7-1-1
	c-0.3,0.6-0.8,1.1-1.3,1.6l-0.3-0.2c0.8-0.7,1.4-1.5,1.7-2.5h-0.9v-2H46v2h-0.8l0.3,0.1c-0.1,0.3-0.2,0.5-0.3,0.8
	C45.6,185.5,46,185.8,46.3,186.2L46.3,186.2z M49.2,181.4l-0.3,0.3c-0.9-0.5-1.8-1.1-2.5-1.9c-0.7,0.8-1.6,1.4-2.5,1.9l-0.2-0.3
	c1.1-0.5,2.1-1.3,2.8-2.3l0.3,0.2l-0.2,0.2C47.3,180.3,48.2,181,49.2,181.4L49.2,181.4z M45.7,184v-1.4h-1.1v1.4H45.7z M47.7,181.6
	H45v-0.3h2.7L47.7,181.6z M49.1,186.8l-0.3,0.2c-0.4-0.5-0.9-0.9-1.3-1.4c-0.3,0.5-0.7,0.9-1.1,1.3l-0.3-0.2
	c0.8-0.6,1.4-1.5,1.7-2.5h-1v-2h1.7v2h-0.7l0.3,0.1c-0.1,0.3-0.3,0.6-0.4,0.9C48.2,185.8,48.6,186.3,49.1,186.8L49.1,186.8z
	 M48.2,184v-1.4h-1v1.4H48.2z"/>
<path class="st1" d="M50.8,184.3c0,0.7-0.1,1.5-0.3,2.2l-0.3-0.1c0.2-0.7,0.3-1.4,0.3-2.1L50.8,184.3z M53.5,179.8h-1.1v1h0.9v0.3
	h-0.9v1h0.9v0.3h-0.9v1h0.9v0.1c0.1,1.1,0,2.1-0.2,3.1c-0.1,0.2-0.4,0.4-0.8,0.4H52l-0.1-0.4c0.2,0,0.3,0,0.5,0c0.1,0,0.3,0,0.4-0.1
	c0.1-0.1,0.1-0.4,0.2-1.1s0-1.1,0-1.5v-0.4h-2.2v-4.2h2.7L53.5,179.8z M52,180.8v-1h-0.9v1H52z M52,182v-1h-0.9v1H52z M52,183.3v-1
	h-0.9v1H52z M51.1,186.3c0-0.2,0-0.4,0-0.6c0-0.5,0-1-0.1-1.5h0.3c0.1,0.6,0.1,1.3,0.1,1.9v0.2L51.1,186.3z M52.1,185.9l-0.3,0.1
	c0-0.6-0.1-1.2-0.2-1.8h0.3C52,184.7,52.1,185.3,52.1,185.9L52.1,185.9z M52.7,185.4l-0.3,0.1c-0.1-0.5-0.2-0.9-0.3-1.4l0.3-0.1
	C52.6,184.5,52.7,185,52.7,185.4L52.7,185.4z M55.7,186.1l-0.3,0.2c-0.2-0.3-0.5-0.6-0.8-0.9c-0.3,0.6-0.6,1.1-1.1,1.5l-0.3-0.2
	c0.8-0.6,1.3-1.5,1.5-2.5h-0.9v-2h1.7v2h-0.7l0.3,0.1c-0.1,0.3-0.2,0.5-0.3,0.8C55.1,185.5,55.4,185.8,55.7,186.1L55.7,186.1z
	 M58.1,181.4l-0.2,0.3c-0.8-0.5-1.6-1.1-2.2-1.9c-0.6,0.8-1.3,1.4-2.1,1.9l-0.3-0.3c1-0.5,1.9-1.3,2.5-2.3l0.3,0.2l-0.2,0.2
	C56.4,180.3,57.2,181,58.1,181.4L58.1,181.4z M55.1,183.9v-1.3h-1v1.4L55.1,183.9z M56.9,181.5h-2.3v-0.3h2.3L56.9,181.5z M58,186.8
	l-0.3,0.2c-0.3-0.5-0.7-0.9-1.1-1.3c-0.3,0.5-0.6,1-1,1.3l-0.3-0.2c0.7-0.6,1.3-1.5,1.5-2.5H56v-2h1.7v2h-0.7l0.3,0.1
	c-0.1,0.3-0.2,0.7-0.3,1C57.3,185.8,57.7,186.3,58,186.8L58,186.8z M57.3,184v-1.4h-1v1.4H57.3z"/>
<path class="st1" d="M119.7,213.6c0,0.3-0.1,0.7-0.2,1c0,0.2-0.1,0.4-0.3,0.6c-0.1,0.1-0.2,0.1-0.3,0.1c-0.3,0-0.6-0.2-0.9-0.7
	c-0.3-0.4-0.5-0.7-0.6-1.2c-0.6,0.7-1.4,1.3-2.2,1.9l-0.2-0.3c0.8-0.5,1.6-1.2,2.3-1.9c-0.3-1.2-0.5-2.5-0.6-3.7h-3.4v1.4h2.4
	c0,0.6,0,1.3-0.1,1.9c0,0.4-0.1,0.7-0.2,1.1c-0.1,0.1-0.2,0.2-0.3,0.3c-0.3,0.1-0.5,0.2-0.8,0.1h-0.5l-0.1-0.4h0.5
	c0.2,0,0.4,0,0.6-0.1c0.1,0,0.2-0.1,0.2-0.2c0.1-0.3,0.2-0.6,0.2-0.9c0.1-0.5,0.1-1.1,0.1-1.6h-2v0.8c0,1.3-0.4,2.5-1.1,3.5
	l-0.3-0.3c0.7-1,1-2.1,1-3.3v-2.7h3.8c0-0.5,0-1,0-1.5h0.3v1.5h2.6v0.3H117c0,1.1,0.2,2.3,0.5,3.4c0.6-0.8,1-1.6,1.3-2.5l0.3,0.1
	c-0.3,1-0.9,2-1.5,2.8c0.1,0.5,0.4,0.9,0.7,1.3c0.3,0.3,0.4,0.5,0.6,0.5c0,0,0.1,0,0.1,0c0.1-0.2,0.1-0.3,0.2-0.5
	c0.1-0.3,0.1-0.7,0.2-1L119.7,213.6z M119.1,208.6l-0.3,0.2c-0.3-0.4-0.6-0.7-1-1l0.3-0.2C118.5,208,118.8,208.3,119.1,208.6
	L119.1,208.6z"/>
<path class="st1" d="M128.7,215.1l-0.2,0.3c-1.4-0.3-2.6-0.9-3.7-1.7c-1.1,0.8-2.4,1.4-3.7,1.7l-0.2-0.3c1.3-0.3,2.5-0.8,3.6-1.6
	c-0.7-0.6-1.2-1.3-1.6-2.2l0.3-0.2c0.3,0.8,0.9,1.5,1.5,2.1c0.7-0.6,1.2-1.3,1.6-2.1l0.3,0.2c-0.4,0.8-1,1.5-1.7,2.2
	C126.1,214.2,127.4,214.8,128.7,215.1z M128.6,209H121v-0.3h3.8c-0.1-0.3-0.3-0.7-0.5-1l0.3-0.1c0.2,0.4,0.4,0.7,0.5,1.1h3.4
	L128.6,209z M123.8,209.7c-0.7,0.9-1.6,1.7-2.6,2.4l-0.2-0.3c0.9-0.7,1.8-1.5,2.5-2.4L123.8,209.7z M128.5,211.9l-0.3,0.2
	c-0.7-0.9-1.6-1.7-2.5-2.4l0.3-0.3C127,210.2,127.8,211,128.5,211.9z"/>
<path class="st1" d="M194.8,195.1l-0.1,0.3h-3c-0.7,0-1.3-0.1-2-0.3c-0.5-0.2-1-0.4-1.4-0.8c-0.3,0.4-0.7,0.8-1.1,1.1l-0.3-0.2
	c0.9-0.7,1.6-1.8,1.8-2.9h-1.5V192c0.5-0.6,1-1.3,1.5-2h-1.7v-0.3h2.1v0.3c-0.5,0.7-0.9,1.4-1.5,2h1.5v0.3c-0.1,0.6-0.3,1.2-0.7,1.8
	c0.5,0.4,1.1,0.7,1.8,0.9c1.2,0.1,2.4,0.2,3.6,0.1L194.8,195.1z M188.8,189l-0.2,0.3c-0.4-0.5-0.8-0.9-1.3-1.3l0.2-0.3
	C187.9,188.1,188.3,188.5,188.8,189L188.8,189z M194.3,193.7c0,0.3-0.2,0.6-0.5,0.7c-0.1,0-0.1,0-0.2,0h-0.8l-0.1-0.4h0.9
	c0.2,0,0.3-0.1,0.3-0.3V191h-3.9v3.4h-0.4v-3.8h0.6V188h3.4v2.6h0.6L194.3,193.7z M193.3,189.2v-0.9h-2.6v2.3h1.1v-1.4H193.3z
	 M193,193.5h-2v-1.7h2L193,193.5z M192.7,193.2v-1h-1.3v1H192.7z M193.3,190.6v-1.1h-1.2v1.1H193.3z"/>
<path class="st1" d="M203.3,188.1c-1,0.2-2,0.4-3,0.5c-1.1,0.1-2,0.2-2.8,0.2v1.3h5.8v2.7h-5.9c-0.1,1-0.6,2-1.3,2.8l-0.3-0.3
	c0.4-0.5,0.8-1,1-1.6c0.2-0.8,0.3-1.7,0.3-2.5v-2.8c2,0,4-0.2,6-0.6L203.3,188.1z M202.9,192.5v-2h-5.4c0,0.8,0,1.5-0.1,2H202.9z"/>
</svg>
