<svg id="圖層_1" data-name="圖層 1" xmlns="http://www.w3.org/2000/svg" viewBox="0 0 238.43 250.15"><defs><style>.cls-1{fill:#333;}</style></defs><title>_</title><path d="M134.39,108.42l0-.09c-1-2.06-3.31-2.55-6.78-1.47l-.06,0c-2.22.86-5.54,2.32-8,3.41a1.32,1.32,0,0,0-.07-.32,3.58,3.58,0,0,0-2.16-2.07c-2-.93-6.79-3.07-9.48-4.26a7.66,7.66,0,0,0-5.06-.39l-2.34.61a3.79,3.79,0,0,0-3.73-3.12h-5a2.06,2.06,0,0,0-2.06,2.06v18.09A2.06,2.06,0,0,0,91.7,123h6.75a2.07,2.07,0,0,0,2.06-2.06v-.65l7,2.81a6.56,6.56,0,0,0,5.09-.09c2.84-1.27,7.15-3.36,11.31-5.39,2.83-1.38,5.51-2.68,7.46-3.59h0C134,112.71,135.18,110.53,134.39,108.42ZM98.64,120.89a.2.2,0,0,1-.19.19H91.7a.19.19,0,0,1-.19-.19V102.8a.19.19,0,0,1,.19-.19h5a1.93,1.93,0,0,1,1.93,1.92Zm32-8.6c-2,.91-4.64,2.22-7.48,3.6-4.15,2-8.44,4.11-11.25,5.36a4.67,4.67,0,0,1-3.63.06l-7.73-3.09V105.78l2.75-.73a5.9,5.9,0,0,1,3.82.3c2.69,1.19,7.49,3.32,9.44,4.24,1,.48,1.15.83,1.17.89a.73.73,0,0,1-.17.46h0c-.12.16-.23.31-.34.43l-.65.3a2,2,0,0,1-.77-.18,8.92,8.92,0,0,1-1.28-.73,7,7,0,0,0-4.2-1.5,1.93,1.93,0,0,0-1.73,1c-.6,1.13.22,2.61.4,2.89a1,1,0,0,0,1.26.11.77.77,0,0,0,.34-1.07,2.43,2.43,0,0,1-.35-1l.19,0a5.39,5.39,0,0,1,3.08,1.2,9.52,9.52,0,0,0,1.6.9,3.9,3.9,0,0,0,1.45.31,2.64,2.64,0,0,0,1.67-.58c2-.94,7-3.2,10-4.33,3.56-1.11,4.27,0,4.5.48C133.27,110.88,131.07,112.06,130.6,112.29Z"/><path d="M105.48,97l6.83-6.83a1.58,1.58,0,0,0,0-2.21l-1.4-1.4a1.58,1.58,0,0,0-1.08-.47,1.32,1.32,0,0,0-1.07.47l-1.87,1.87V79a1.62,1.62,0,0,0-1.61-1.61h-1.94a1.56,1.56,0,0,0-1.47,1.6v9.38l-1.81-1.81a1.61,1.61,0,0,0-1.14-.47,1.56,1.56,0,0,0-1.14.47l-1.4,1.4A1.58,1.58,0,0,0,95.91,89a1.32,1.32,0,0,0,.47,1.07l6.83,6.83a1.56,1.56,0,0,0,1.14.46A1.24,1.24,0,0,0,105.48,97Zm-1.34-.82-6.86-6.86c-.13-.14-.13-.2,0-.34l1.42-1.41a.23.23,0,0,1,.2-.07.24.24,0,0,1,.2.07l3,3a.61.61,0,0,0,.74.13.63.63,0,0,0,.4-.6V79c0-.14.07-.27.14-.27h2a.28.28,0,0,1,.27.27V90.15a.59.59,0,0,0,.4.61.75.75,0,0,0,.74-.14l3-3a.22.22,0,0,1,.14-.07c.07,0,.07,0,.13.07L111.41,89a.22.22,0,0,1,0,.33l-6.86,6.86a.26.26,0,0,1-.21.07C104.28,96.2,104.21,96.2,104.14,96.14Z"/><path d="M122.27,77.77l-6.83,6.82a1.58,1.58,0,0,0,0,2.21l1.41,1.41a1.56,1.56,0,0,0,1.07.47,1.35,1.35,0,0,0,1.07-.47l1.87-1.88v9.44a1.62,1.62,0,0,0,1.61,1.61h1.94a1.56,1.56,0,0,0,1.47-1.61V86.4l1.81,1.81a1.62,1.62,0,0,0,2.28,0l1.4-1.41a1.56,1.56,0,0,0,.47-1.07,1.32,1.32,0,0,0-.47-1.07l-6.82-6.83a1.6,1.6,0,0,0-1.14-.47A1.3,1.3,0,0,0,122.27,77.77Zm1.34.82,6.86,6.86c.13.13.13.2,0,.34l-1.41,1.41a.26.26,0,0,1-.21.07.25.25,0,0,1-.2-.07l-3-3a.61.61,0,0,0-.74-.13.64.64,0,0,0-.4.6v11c0,.13-.07.27-.13.27h-2a.27.27,0,0,1-.27-.27V84.58a.6.6,0,0,0-.41-.61.72.72,0,0,0-.74.14l-3,3a.22.22,0,0,1-.14.07c-.06,0-.06,0-.13-.07l-1.41-1.41a.22.22,0,0,1,0-.34l6.86-6.86a.25.25,0,0,1,.2-.06C123.48,78.52,123.54,78.52,123.61,78.59Z"/><path d="M145.13,186.31l-9.68-9.67a1,1,0,0,0-1.44,1.44l9,9-5.24,5.23a.41.41,0,0,1-.58,0l-10.33-10.34a.39.39,0,0,1,0-.58l3.49-3.49a1,1,0,0,0,.12-1.35,1,1,0,0,0-1.55-.12l-3.51,3.52a2.44,2.44,0,0,0-.52,2.69l-1.19,1.19h-8.31l-1.49-1.5a2.47,2.47,0,0,0-.67-2.42l-3.38-3.38a1,1,0,0,0-1.45,0,1,1,0,0,0,0,1.44l3.42,3.42a.41.41,0,0,1,0,.58l-.28.29-10.06,10.05h0a.44.44,0,0,1-.28.11.44.44,0,0,1-.29-.12L95.62,187l9-9.05a1,1,0,0,0,.12-1.35,1,1,0,0,0-1.54-.12l-9.8,9.8a1,1,0,0,0,0,1.45l6,6a2.43,2.43,0,0,0,1.73.72,2.45,2.45,0,0,0,.85-.15l3.36,3.35a3.35,3.35,0,0,0-.41,1.64,3.49,3.49,0,0,0,3.49,3.49h0a3.5,3.5,0,0,0,3.48,3.49h0a3.49,3.49,0,0,0,5.13,3.08l1.2,1.21a3.18,3.18,0,0,0,2,.94,3.1,3.1,0,0,0,3.35-3,3.15,3.15,0,0,0,2.08-.92,3.1,3.1,0,0,0,.92-2.27h0a3.36,3.36,0,0,0,2.31-1.1,3.43,3.43,0,0,0,.91-2.33,3.35,3.35,0,0,0,3.24-3.35,3.48,3.48,0,0,0-.36-1.49L136,194a2.46,2.46,0,0,0,3.14-.28l6-6A1,1,0,0,0,145.13,186.31ZM108.4,200.68a1.45,1.45,0,1,1,1.45-1.44A1.44,1.44,0,0,1,108.4,200.68Zm4.58,3-.12.12a1.44,1.44,0,0,1-1,.37,1.45,1.45,0,1,1,1.45-1.45A1.44,1.44,0,0,1,113,203.69Zm3.44,3.54h0v0a1.45,1.45,0,0,1-2.46-1,1.44,1.44,0,0,1,.37-1l.12-.12a1.44,1.44,0,0,1,1-.37,1.45,1.45,0,0,1,1,2.46Zm14.12-7.81a1.32,1.32,0,0,1-1.83,0l-2.11-2.12a1,1,0,0,0-1.44,0,1,1,0,0,0,0,1.44l2.11,2.12h0a1.39,1.39,0,0,1-.93,2.36,1.36,1.36,0,0,1-1-.38l-2-1.93a1,1,0,0,0-1.4,1.48l2.22,2.1a1.12,1.12,0,0,1,0,1.59,1.12,1.12,0,0,1-1.57,0l-1-1a1,1,0,0,0-1.44,0,1,1,0,0,0,0,1.44l1.07,1.07a1,1,0,0,1,.31.74,1,1,0,0,1-1,1,1.09,1.09,0,0,1-.75-.3l-1.24-1.25a3.46,3.46,0,0,0,.41-1.63,3.49,3.49,0,0,0-3.47-3.48h0a3.48,3.48,0,0,0-3.48-3.48h0a3.49,3.49,0,0,0-5.11-3.07L103.62,193l9-9,1.56,1.57a1,1,0,0,0,.72.29h1.32l-4,4a3.25,3.25,0,0,0,4.6,4.6l3.41-3.41,3.73,0,6.59,6.51a1.24,1.24,0,0,1,.38.91A1.31,1.31,0,0,1,130.54,199.42Zm.87-3.81-6.3-6.21h0a1,1,0,0,0-.84-.29l-4.5,0a1.05,1.05,0,0,0-.74.3l-3.75,3.75a1.27,1.27,0,0,1-.65.36,1.23,1.23,0,0,1-1.1-2.1l5.52-5.53h5a1,1,0,0,0,.72-.3l1.38-1.38,8.5,8.5Z"/><circle cx="137.87" cy="187.48" r="1.02"/><circle cx="100.54" cy="187.58" r="1.02"/><circle cx="106.5" cy="174.86" r="1.02"/><circle cx="131.99" cy="174.77" r="1.02"/><path d="M39.76,144h1.48v1.47H39.76Z"/><path d="M53,144h1.47v1.47H53Z"/><path d="M69.94,143.58l-3.66-.91v-.93a3.68,3.68,0,0,0,1.47-2.94v-1.45H70v-1.47H67.74a3.68,3.68,0,0,0-1.07-2.61,3.75,3.75,0,0,0-1.87-1v-1.56a2.16,2.16,0,0,0-.64-1.55,2.14,2.14,0,0,0-1.51-.65,2.26,2.26,0,0,0-2.27,2.27v8a3.68,3.68,0,0,0,1.48,2.94v.9l-3.67.91a3,3,0,0,0-.84.37,3.57,3.57,0,0,0-.66-1.44h0a2.22,2.22,0,0,0,2.21-2.2,2.25,2.25,0,0,0-2.25-2.22H55.21l-.37-2a2.93,2.93,0,0,0-2.9-2.41H42.37a3,3,0,0,0-2.9,2.42l-.36,2H37.64a2.27,2.27,0,0,0-2.26,2.13,2.22,2.22,0,0,0,2.21,2.29h0a3.74,3.74,0,0,0-.74,2.21v2.21a1.47,1.47,0,0,0,1.47,1.47H39v1.47H33.87V130.72a2.16,2.16,0,0,0-.64-1.55,2.11,2.11,0,0,0-1.64-.65,2.28,2.28,0,0,0-2.13,2.27v39h-.95a.47.47,0,0,0-.45.35l-.88,3.5a.46.46,0,0,0,.45.57h8.08a.46.46,0,0,0,.45-.57l-.88-3.5a.47.47,0,0,0-.45-.35h-1v-14h25v18.41H69.22V153.55h1.47a1.48,1.48,0,0,0,1.48-1.47v-5.64A2.94,2.94,0,0,0,69.94,143.58Zm-3.66-4.76a2.24,2.24,0,0,1-1.11,1.92,2.21,2.21,0,0,1-3.31-1.91v-1.48h4.42Zm0-2.94H61.89a2.21,2.21,0,0,1,2.21-2.21,2.22,2.22,0,0,1,2.21,2.21Zm-4.45-5.16a.73.73,0,0,1,1.26-.54.68.68,0,0,1,.21.51v1.55a3.74,3.74,0,0,0-1.47.68ZM58.55,145l4.78-1.2v-1.42a3.65,3.65,0,0,0,.74.08,4.53,4.53,0,0,0,.73-.08v1.42L69.58,145a1.47,1.47,0,0,1,1.11,1.43v2.7H69.22v-2.94H67.75v2.94H66.28v-2.94H61.86v2.94H60.38v-2.94H58.91v2.94H57.44v-2.69A1.49,1.49,0,0,1,58.55,145Zm5.52,4.7a2,2,0,0,0-.74-.44v-1.61H64.8v1.6A2.22,2.22,0,0,0,64.07,149.71Zm-6.63,2.37v-1.47h5.15a.74.74,0,0,1,.74.79.77.77,0,0,1-.76.68Zm-1.38-5.62v.47H51.84L53,142.51h.84a3.73,3.73,0,0,1,1.05.23l.06,0A2.18,2.18,0,0,1,56,144.69v1.77Zm-5.79.47H44.06L43,142.51h8.43Zm-6.09,1.47h5.89v1.47H44.18Zm7.37,0h2.21v1.47H51.55Zm3.68,0H56v1.47h-.74Zm1.48-8.84a.73.73,0,0,1,.54,1.26.69.69,0,0,1-.52.21h-1l-.27-1.47Zm-15.79-3.21a1.48,1.48,0,0,1,1.45-1.21H52a1.48,1.48,0,0,1,1.45,1.21l.86,4.72a3.57,3.57,0,0,0-.46,0H40.52l-.46,0Zm-3.85,4.46a.72.72,0,0,1-.21-.57.77.77,0,0,1,.76-.68h1.24L38.59,141h-1A.69.69,0,0,1,37.07,140.81Zm1.22,3.91a2.22,2.22,0,0,1,1.07-1.9l.09,0a2.27,2.27,0,0,1,1-.26h.9l1.11,4.42H38.29Zm2.21,3.68h2.21v1.47H40.5Zm-6.65,24.3h-4.3a.47.47,0,0,1-.45-.57l.14-.55a.46.46,0,0,1,.45-.35h4a.46.46,0,0,1,.45.35l.14.55A.47.47,0,0,1,33.85,172.7Zm-2.92-2.95v-39a.73.73,0,0,1,1.26-.54.68.68,0,0,1,.21.51v39Zm2.94-15.46v-2.95H56v.74a1.47,1.47,0,0,0,1.47,1.47h1.47v.74Zm26.51,2.94h2.95V172.7H60.38ZM64.8,172.7V157.23h3V172.7Zm3-16.94H60.38v-2.21h2.21a2.23,2.23,0,0,0,1.48-.57,2.19,2.19,0,0,0,1.47.57h2.21Zm-2.19-3.68a.75.75,0,0,1-.75-.65.71.71,0,0,1,.21-.61.7.7,0,0,1,.52-.21h5.15v1.47Z"/><path d="M50.3,167l1,1,.94-.95v.36a5.16,5.16,0,1,1-5.15-5.08v-1.47a6.63,6.63,0,1,0,6.63,6.63v-.44l.94.95,1-1L53,164.26Z"/><path d="M46.42,167.21l-1.68-1.68-1,1,2.73,2.73,9.36-9.36-1-1Z"/><path d="M176.5,66.32a5,5,0,1,0-5-5A5,5,0,0,0,176.5,66.32Zm0-8.95a3.94,3.94,0,1,1-3.94,3.93A3.93,3.93,0,0,1,176.5,57.37Z"/><path d="M176.5,63a.51.51,0,0,1-.51-.51.54.54,0,0,0-1.08,0,1.57,1.57,0,0,0,.93,1.45v.23a.55.55,0,0,0,.55.55.55.55,0,0,0,.54-.55h0V64a1.59,1.59,0,0,0-.43-3.12.5.5,0,0,1-.51-.5.51.51,0,1,1,1,0h0a.54.54,0,1,0,1.08,0A1.6,1.6,0,0,0,177,58.88v-.23a.54.54,0,0,0-.54-.54.55.55,0,0,0-.55.54v.25A1.59,1.59,0,0,0,176.5,62a.5.5,0,0,1,.51.5A.51.51,0,0,1,176.5,63Z"/><path d="M184.68,77.47a.53.53,0,0,0,.38.16h0a.55.55,0,0,0,.38-.16l2.5-2.5a.54.54,0,1,0-.76-.77h0l-2.11,2.11-1-1a.54.54,0,0,0-.77.77Z"/><path d="M197.45,61H186.14V59.83h4.44a.5.5,0,0,0,.53-.5V56.46a3.05,3.05,0,0,0-3-3.05H170a2.9,2.9,0,0,0-2.92,2.89l0,4.7h-7.62a.55.55,0,0,0-.52.57V91.88a.55.55,0,0,0,.52.57h13.24l-1.37,4.88h-2.4a.54.54,0,0,0,0,1.08H188a.54.54,0,0,0,0-1.08h-2.4l-1.38-4.88h13.24a.56.56,0,0,0,.53-.57V61.57A.55.55,0,0,0,197.45,61Zm-11.31-4.53a1.94,1.94,0,0,1,1.92-2h0a2,2,0,0,1,2,2v2.27h-3.89Zm-17.94-.16A1.82,1.82,0,0,1,170,54.5h15.7a3,3,0,0,0-.68,2V69.74a5.31,5.31,0,0,0-1.36.28h0a7.23,7.23,0,0,0-1.83.93,4.88,4.88,0,0,0-1.16,1.18,5.65,5.65,0,0,0-.62,1.09c-.06.13-.11.26-.16.38a7.52,7.52,0,0,0-.42,2.34,6,6,0,0,0,.32,1.88H168.08Zm22.45,19.53a5,5,0,1,1-5-5A5,5,0,0,1,190.65,75.84Zm-6.19,21.49h-12l1.37-4.88h9.25Zm12.44-6H160V86.12H196.9Zm0-6.32H160v-23h7.06L167,78.34a.51.51,0,0,0,.16.39.54.54,0,0,0,.38.17H180.3a6.14,6.14,0,1,0,5.85-9.17V62.09H196.9Z"/><path d="M173.47,75.93a1,1,0,1,0-1-1A1,1,0,0,0,173.47,75.93Zm0-1.52a.56.56,0,1,1-.55.55A.56.56,0,0,1,173.47,74.41Z"/><path d="M179.16,75.18a.4.4,0,0,1-.06-.22.42.42,0,0,1,.13-.3,6.33,6.33,0,0,1,.17-.78,1.09,1.09,0,0,0-.26,2.11v-.3C179.14,75.52,179.15,75.35,179.16,75.18Z"/><path d="M178,75a1.54,1.54,0,0,1,1.54-1.53h0a6.58,6.58,0,0,1,.29-.66,1.84,1.84,0,0,0-.33,0,2.21,2.21,0,0,0-.29,4.4c0-.23-.06-.46-.08-.7A1.54,1.54,0,0,1,178,75Z"/><path d="M181.2,71l-.38-.13a.75.75,0,0,1-.37-.33l-.86-1.82a1.79,1.79,0,0,0-1.5-1h-4.3a2.52,2.52,0,0,0-1.65.72l-1.92,2a1.49,1.49,0,0,0-.38,1v2.62A1.17,1.17,0,0,0,171,75.31h.26a2.22,2.22,0,0,0,4.39,0h1.14a.34.34,0,0,0,.34-.34.35.35,0,0,0-.34-.35h-1.14a2.22,2.22,0,0,0-4.39,0H171a.49.49,0,0,1-.49-.49V71.52a.9.9,0,0,1,.19-.49l1.92-2a1.9,1.9,0,0,1,1.15-.49h4.31a1.09,1.09,0,0,1,.87.56l.86,1.81a1.43,1.43,0,0,0,.78.69l.07,0A5.39,5.39,0,0,1,181.2,71Zm-7.69,2.39A1.54,1.54,0,1,1,172,75,1.54,1.54,0,0,1,173.51,73.43Z"/><path d="M179.64,71.11l-.85-1.84a1,1,0,0,0-.75-.47h-2.81a.34.34,0,0,0-.34.34v1.78h-2.82l1.12-1.2a1.08,1.08,0,0,1,.55-.23h.66a.35.35,0,0,0,.34-.35.34.34,0,0,0-.34-.34h-.66a1.75,1.75,0,0,0-1.05.45L171,71a.34.34,0,0,0,.24.58h8.06a.34.34,0,0,0,.29-.15h0A.32.32,0,0,0,179.64,71.11Zm-4.06-.19V69.49H178a.34.34,0,0,1,.14.09l.63,1.34Z"/><path d="M125.07,10.53a.88.88,0,1,0,0,1.76.88.88,0,1,0,0-1.76Z"/><path d="M132.08,7h-9.63l-2.79-5.57A2.61,2.61,0,0,0,117.31,0H107.17a2.62,2.62,0,0,0-2.35,1.46L102,7h-1.76V6.15a2.64,2.64,0,0,0-2.64-2.63H95.87a2.63,2.63,0,0,0-2.63,2.63V7h-.88a2.64,2.64,0,0,0-2.64,2.64V34.28a2.64,2.64,0,0,0,2.64,2.63h39.72a2.64,2.64,0,0,0,2.64-2.63V9.67A2.64,2.64,0,0,0,132.08,7ZM107.17,1.76h10.14a.88.88,0,0,1,.78.48L120.49,7H104l2.4-4.79A.88.88,0,0,1,107.17,1.76ZM95.87,5.27h1.76a.88.88,0,0,1,.88.88V7H95V6.15A.89.89,0,0,1,95.87,5.27ZM91.48,15.82h11.1a11.46,11.46,0,0,0,0,12.3H91.48Zm20.76-3.53A9.67,9.67,0,1,1,102.57,22,9.67,9.67,0,0,1,112.24,12.29Zm19.84,22.87H92.36a.88.88,0,0,1-.88-.88v-4.4H104a11.4,11.4,0,0,0,16.48,0H133v4.4A.88.88,0,0,1,132.08,35.16Zm.88-7H121.85a11.41,11.41,0,0,0,0-12.3H133Zm0-14.06h-12.5a11.43,11.43,0,0,0-16.48,0H91.48V9.67a.87.87,0,0,1,.88-.88h39.72a.87.87,0,0,1,.88.88Z"/><path d="M114.88,3.52h-5.25a.9.9,0,0,0-.9.74.89.89,0,0,0,.87,1h5.25a.9.9,0,0,0,.9-.75A.88.88,0,0,0,114.88,3.52Z"/><path d="M112.24,14.05A7.91,7.91,0,1,0,120.15,22,7.92,7.92,0,0,0,112.24,14.05Zm0,14.06A6.15,6.15,0,1,1,118.39,22,6.16,6.16,0,0,1,112.24,28.11Z"/><path d="M112.24,17.56a4.4,4.4,0,0,0-4.39,4.4.88.88,0,1,0,1.75,0,2.64,2.64,0,0,1,2.64-2.64.88.88,0,1,0,0-1.76Z"/><path d="M130.35,10.55h-1.73a.89.89,0,0,0-.9.75.87.87,0,0,0,.87,1h1.73a.9.9,0,0,0,.9-.74A.89.89,0,0,0,130.35,10.55Z"/><path d="M32.41,191.65a.69.69,0,0,0,0-1.37.69.69,0,0,0,0,1.37Z"/><path d="M20.08,127.5c-10.7,21-2.79,46.75,11.84,63.95.57.67,1.54-.3,1-1-14.21-16.7-22-41.88-11.63-62.28.4-.79-.78-1.49-1.18-.7Z"/><path d="M217.18,92.72c-12.38,17.93-33.6,29.07-53.4,36.83-17.47,6.85-37.25,12.79-56.22,11.93-.88,0-.88,1.33,0,1.37,19.87.91,40.67-5.49,58.85-12.88,19.37-7.87,39.8-18.94,52-36.56.5-.73-.69-1.41-1.19-.69Z"/><path d="M217.78,93.75a.69.69,0,0,0,0-1.37.69.69,0,0,0,0,1.37Z"/><path d="M118.45,52.78a245.39,245.39,0,0,1,36-10.23c15.87-3.17,34.08-5.53,49.65.22,8.62,3.19,15.17,9.36,18.21,18.09.29.83,1.62.48,1.33-.36C212,27,162.17,38.31,137,45.38q-9.55,2.67-18.89,6.08c-.82.3-.47,1.63.36,1.32Z"/><path d="M68.43,47.13c8.34,14,27,14.49,40.95,9.53.82-.29.47-1.62-.37-1.32-13.35,4.74-31.37,4.6-39.4-8.91a.69.69,0,0,0-1.18.7Z"/><path d="M220.89,88.1a.66.66,0,0,1-.44-.16.69.69,0,0,1-.09-1c5.56-6.66,3.36-21.41,3.34-21.56a.69.69,0,0,1,1.36-.21c.09.63,2.3,15.52-3.64,22.65A.69.69,0,0,1,220.89,88.1Z"/><path d="M90,142.2c-.4,0-9.75-.13-18.45-11.41-20.47-26.55-41.93-12.58-42.83-12a.7.7,0,0,1-1-.18.69.69,0,0,1,.19-.95c.23-.16,23.41-15.32,44.69,12.27C80.9,140.66,89.91,140.83,90,140.83a.69.69,0,0,1,0,1.37Z"/><path d="M37.06,196.3a.67.67,0,0,1-.49-.2l-1.16-1.16a.69.69,0,1,1,1-1l1.16,1.16a.68.68,0,0,1,0,1A.63.63,0,0,1,37.06,196.3Z"/><path d="M112.69,55.52a.69.69,0,0,1-.31-1.3l2.33-1.16a.69.69,0,1,1,.61,1.23L113,55.45A.66.66,0,0,1,112.69,55.52Z"/><path d="M40.2,198.54c21.51,15.72,47.71,25.25,73.9,29.37,24.61,3.88,51.77,3.36,74.45-8.06A64.65,64.65,0,0,0,216,194a.69.69,0,0,0-1.19-.69c-26.13,46.25-94.39,39.48-136.5,23.82A154.53,154.53,0,0,1,40.9,197.35c-.72-.52-1.4.67-.7,1.19Z"/><path d="M216.82,200.37a.69.69,0,0,1-.68-.57l-1-6.06L209,196.81a.69.69,0,0,1-.61-1.23l7-3.49a.69.69,0,0,1,.61,0,.67.67,0,0,1,.37.49l1.16,7a.69.69,0,0,1-.56.79Z"/><path d="M220.91,164l-1.57-6.19a.94.94,0,0,0,.75-.92v-.95a3.94,3.94,0,0,0-4-3.93h-7.09v-2a1.94,1.94,0,0,0-2-1.93H170a1,1,0,0,0-1,1v18.14a.47.47,0,0,0,.15.35,1,1,0,0,0,1.73-.6v-17a0,0,0,0,1,0,0h36.2a.06.06,0,0,1,.06.06v16.94a1,1,0,0,0,.8.95.93.93,0,0,0,1.08-.92v-1h11.17a3.09,3.09,0,0,1,2.94,2.1h-2.95a.94.94,0,0,0-.94.93v2a2.94,2.94,0,0,0,2.95,2.93h1v4.09h-2.51a6,6,0,0,0-11.25,0h-.45v-7a1,1,0,0,0-.8-1,1,1,0,0,0-1.08.93v7H187.63a6,6,0,0,0-11.27,0h-5.42a.06.06,0,0,1-.06-.06v-2h4a1,1,0,0,0,1-.8.94.94,0,0,0-.93-1.07h-9a1,1,0,0,0-1,.8.94.94,0,0,0,.93,1.07H169v2a1.94,1.94,0,0,0,1.95,1.94h4.82v.06a6,6,0,0,0,12,0v-.06h21.34v.06a6,6,0,0,0,12,0v-.06h3.1a.94.94,0,0,0,.94-.94v-10A5,5,0,0,0,220.91,164Zm-11.86-10.12h7.09a2.06,2.06,0,0,1,2.07,2v.05h-9.16Zm0,10V157.8h8.31l1.52,6.07Zm-27.05,20a4.06,4.06,0,1,1,4.08-4A4.07,4.07,0,0,1,182,183.88Zm33.14,0a4.06,4.06,0,1,1,4.08-4A4.07,4.07,0,0,1,215.14,183.88Zm8.12-11.95h-1a1.07,1.07,0,0,1-1.07-1.06v-1h2.11v2.1Z"/><path d="M182,177.89a1.94,1.94,0,1,0,1.94,1.94A1.94,1.94,0,0,0,182,177.89Z"/><path d="M215.14,177.89a1.94,1.94,0,1,0,2,1.94A1.94,1.94,0,0,0,215.14,177.89Z"/><path d="M204.08,173.91h-14a1,1,0,0,0-1,.8.94.94,0,0,0,.93,1.07h14a1,1,0,0,0,1-.8A.94.94,0,0,0,204.08,173.91Z"/><path d="M180,169.94H168a1,1,0,0,0-1,.8.94.94,0,0,0,.93,1.07h12a1,1,0,0,0,1-.8A.94.94,0,0,0,180,169.94Z"/><path d="M197.73,157.21a.94.94,0,0,0-1.33,0L188,165.53l-4.35-4.33a.94.94,0,0,0-1.33,0,.92.92,0,0,0,0,1.32l5,5a.9.9,0,0,0,.66.28.92.92,0,0,0,.67-.28l9-9A.92.92,0,0,0,197.73,157.21Z"/><path class="cls-1" d="M232.42,119.89a.36.36,0,0,1-.36-.36V115.6a.36.36,0,0,1,.71,0v3.93A.36.36,0,0,1,232.42,119.89Z"/><path class="cls-1" d="M232.42,127.28a.36.36,0,0,1-.36-.36V123a.36.36,0,0,1,.71,0v3.93A.36.36,0,0,1,232.42,127.28Z"/><path class="cls-1" d="M238.08,121.62h-3.93a.36.36,0,1,1,0-.71h3.93a.36.36,0,0,1,0,.71Z"/><path class="cls-1" d="M230.69,121.62h-3.93a.36.36,0,1,1,0-.71h3.93a.36.36,0,0,1,0,.71Z"/><path class="cls-1" d="M147.51,82.15a.35.35,0,0,1-.35-.35V77.87a.36.36,0,1,1,.71,0V81.8A.36.36,0,0,1,147.51,82.15Z"/><path class="cls-1" d="M147.51,89.54a.35.35,0,0,1-.35-.35V85.26a.36.36,0,1,1,.71,0v3.93A.36.36,0,0,1,147.51,89.54Z"/><path class="cls-1" d="M153.18,83.88h-3.94a.36.36,0,0,1,0-.71h3.94a.36.36,0,0,1,0,.71Z"/><path class="cls-1" d="M145.79,83.88h-3.94a.36.36,0,0,1,0-.71h3.94a.36.36,0,0,1,0,.71Z"/><path class="cls-1" d="M147.51,17.06a.35.35,0,0,1-.35-.35V12.78a.36.36,0,1,1,.71,0v3.93A.36.36,0,0,1,147.51,17.06Z"/><path class="cls-1" d="M147.51,24.45a.35.35,0,0,1-.35-.35V20.17a.36.36,0,1,1,.71,0V24.1A.36.36,0,0,1,147.51,24.45Z"/><path class="cls-1" d="M153.18,18.79h-3.94a.36.36,0,0,1,0-.71h3.94a.36.36,0,0,1,0,.71Z"/><path class="cls-1" d="M145.79,18.79h-3.94a.36.36,0,0,1,0-.71h3.94a.36.36,0,0,1,0,.71Z"/><path class="cls-1" d="M6,101a.35.35,0,0,1-.35-.35V96.73a.36.36,0,0,1,.71,0v3.94A.36.36,0,0,1,6,101Z"/><path class="cls-1" d="M6,108.41a.36.36,0,0,1-.35-.36v-3.93a.36.36,0,0,1,.71,0v3.93A.36.36,0,0,1,6,108.41Z"/><path class="cls-1" d="M11.67,102.75H7.74a.36.36,0,0,1,0-.71h3.93a.36.36,0,1,1,0,.71Z"/><path class="cls-1" d="M4.28,102.75H.35a.36.36,0,0,1,0-.71H4.28a.36.36,0,1,1,0,.71Z"/><path class="cls-1" d="M147.51,242.52a.35.35,0,0,1-.35-.35v-3.93a.36.36,0,1,1,.71,0v3.93A.36.36,0,0,1,147.51,242.52Z"/><path class="cls-1" d="M147.51,249.91a.35.35,0,0,1-.35-.35v-3.94a.36.36,0,0,1,.71,0v3.94A.36.36,0,0,1,147.51,249.91Z"/><path class="cls-1" d="M153.18,244.25h-3.94a.36.36,0,0,1,0-.71h3.94a.36.36,0,0,1,0,.71Z"/><path class="cls-1" d="M145.79,244.25h-3.94a.36.36,0,0,1,0-.71h3.94a.36.36,0,0,1,0,.71Z"/><path d="M107.55,43.78l-1.3.46v2.65a.68.68,0,0,1-.09.35.47.47,0,0,1-.23.19,1.81,1.81,0,0,1-.58.06h-.43l-.1-.35.69,0c.26,0,.39-.09.39-.28V44.36l-1.27.38-.12-.35c.48-.12.94-.25,1.39-.38V41.84h-1.31V41.5h1.31V39.7h.35v1.8h1.21v.34h-1.21V43.9c.34-.11.75-.25,1.22-.43Zm4.41,3.7h-.36v-.65h-3.3v.65h-.36v-6.4h1.19a8.48,8.48,0,0,0,.63-1.44l.34.12a8.45,8.45,0,0,1-.58,1.32H112Zm-.36-3.73V41.41h-3.3v2.34Zm0,2.75V44.08h-3.3V46.5Z"/><path d="M115.17,45.72a7.92,7.92,0,0,1-1.34,1.78l-.29-.24a8.06,8.06,0,0,0,1.34-1.75Zm1-.69H114V40.11h2.22Zm-.36-2.73V40.45h-1.5V42.3Zm0,2.39V42.63h-1.5v2.06Zm1,2.74-.38.07a9.46,9.46,0,0,0-.42-1.78l.35-.1A12.92,12.92,0,0,1,116.86,47.43Zm4-7.44c0,.5-.06,1-.12,1.38a2.52,2.52,0,0,1-.17.79.55.55,0,0,1-.26.24,1.32,1.32,0,0,1-.57.09,6.39,6.39,0,0,1-.68,0l-.12-.34c.22,0,.45,0,.68,0a1.26,1.26,0,0,0,.51-.06.33.33,0,0,0,.16-.17,2.59,2.59,0,0,0,.12-.64,8.49,8.49,0,0,0,.08-1h-1.64a3,3,0,0,1-2,2.39l-.23-.27a2.82,2.82,0,0,0,1.84-2.12h-1.69V40Zm-.21,5.13h-3.46V43h3.46Zm-.36-.33V43.33h-2.74v1.46Zm-1.17,2.62-.34.13a7.31,7.31,0,0,0-.76-1.82l.34-.12A8.54,8.54,0,0,1,119.08,47.41Zm2.21,0-.31.18a8,8,0,0,0-1-1.86l.31-.17A7.36,7.36,0,0,1,121.29,47.36Z"/><path d="M177.84,110h-7.77v-.33h3.4v-7.19h.35v2.85h3.64v.33h-3.64v4h4Z"/><path d="M181.83,108.33a10.84,10.84,0,0,1-2.58,1.74l-.27-.29a9,9,0,0,0,2.56-1.7Zm5-.87h-3.74v2.85h-.36v-2.85H179v-.33h3.76v-.86h.36v.86h3.74Zm-4.15-4a15.5,15.5,0,0,1-.13,1.59,3,3,0,0,1-.24,1,.64.64,0,0,1-.37.3,2.31,2.31,0,0,1-.77.09h-.3l-.1-.34.56,0a1.07,1.07,0,0,0,.47-.08.53.53,0,0,0,.24-.23,2.62,2.62,0,0,0,.18-.75,8.28,8.28,0,0,0,.09-1.23h-1.48a3.66,3.66,0,0,1-1.55,2.64l-.29-.28a2.93,2.93,0,0,0,1.47-2.36h-1.42v-.34h1.45c0-.39.06-.69.07-.91H181c0,.28,0,.58,0,.91Zm3.49,2.66h-2.55v-3h2.55Zm-.36-.33v-2.31H184v2.31Zm1,4.07-.28.28a12.8,12.8,0,0,0-2.51-1.78l.25-.25A15.3,15.3,0,0,1,186.89,109.83Z"/><path d="M106.24,129.34h-2.48V129h1.17a5.59,5.59,0,0,0-.4-.86l.35-.14a7.93,7.93,0,0,1,.45,1h.91Zm-.15,1.29H104v-.33h2.11Zm0,1.33H104v-.33h2.11Zm-.1,3.74h-.35v-.52h-1.21v.69h-.35V133H106Zm-.35-.88V133.3h-1.21v1.52Zm5.93,0c-.12.74-.39,1.1-.8,1.1s-.67-.28-.89-.85a7.15,7.15,0,0,1-1.39.78l-.16-.29a5.42,5.42,0,0,0,1.44-.81,7.45,7.45,0,0,1-.27-1.59H108V134c.4-.1.74-.21,1-.31l.07.29-1.1.33v1c0,.35-.2.53-.59.53h-.59l-.14-.35.55,0a1.07,1.07,0,0,0,.35,0,.17.17,0,0,0,.08-.16v-1c-.38.11-.78.21-1.2.31l-.1-.3c.48-.11.91-.21,1.3-.32v-1h-1.22v-.32h1.22v-.71a8.54,8.54,0,0,1-1.1.11l-.12-.31a8.38,8.38,0,0,0,2.31-.35l.19.26a7.62,7.62,0,0,1-.94.23v.77h1.46c0-.4,0-.79,0-1.18h.33c0,.39,0,.79,0,1.18h1.73v.32h-1.71a7,7,0,0,0,.22,1.36,4.76,4.76,0,0,0,.86-1l.26.18a5.11,5.11,0,0,1-1,1.17c.17.51.38.76.62.76s.21-.1.3-.3a2.84,2.84,0,0,0,.2-.68Zm-.07-3.49h-5V131h2.33v-.65h-2V130h2v-.64h-2.16V129h4.74v.32h-2.24V130h2v.33h-2V131h2.37Zm-3.08-2.62-.31.21a3.69,3.69,0,0,0-.66-.65l.29-.2A3.46,3.46,0,0,1,108.42,128.67Zm2.1-.41a6.82,6.82,0,0,1-.79.63l-.27-.23a4,4,0,0,0,.81-.63Zm.66,4.09-.3.19a3.28,3.28,0,0,0-.53-.71l.28-.18A2.27,2.27,0,0,1,111.18,132.35Z"/><path d="M114.67,128.16q-.19.68-.57,1.68v6h-.35v-5.23a11.62,11.62,0,0,1-.92,1.52l-.25-.29a10.79,10.79,0,0,0,1.73-3.85Zm5.22,6.44h-3l.22.25a9.32,9.32,0,0,1-2.28,1.06l-.18-.31a6.52,6.52,0,0,0,2.14-1H115.4v-3.12h4.49Zm.62-6H118.6v.69h1.56v1.51h-5v-1.51h1.56v-.69h-1.92v-.32h5.74Zm-3.82,1.89v-.88h-1.21v.88Zm2.84,1.89v-.62h-3.77v.62Zm0,.93v-.62h-3.77v.62Zm0,.95v-.64h-3.77v.64Zm-1.29-5v-.69H117v.69Zm0,1.2v-.88H117v.88Zm2.27,5.06-.17.32a9.39,9.39,0,0,0-2.1-.76l.15-.32A9.47,9.47,0,0,1,120.51,135.58Zm-.71-5.06v-.88h-1.2v.88Z"/><path d="M44,183.59l-.28.24a13,13,0,0,0-.87-1.53V187h-.36v-5.09a8.44,8.44,0,0,1-1,2.56l-.26-.27a10.89,10.89,0,0,0,1.19-3.09H41.29v-.33h1.16v-1.55h.36v1.55h.81v.33h-.81v.68A12.87,12.87,0,0,1,44,183.59Zm2.34,2.61-.25.23a6.38,6.38,0,0,0-1-1A5.87,5.87,0,0,1,43.77,187l-.26-.24a5.57,5.57,0,0,0,1.68-2.49h-.93v-2H46v2h-.75l.27.15a8.15,8.15,0,0,1-.33.75A6.9,6.9,0,0,1,46.3,186.2Zm2.84-4.78-.26.28a9.78,9.78,0,0,1-2.52-1.89,8.37,8.37,0,0,1-2.5,1.89l-.23-.28a7.37,7.37,0,0,0,2.83-2.25l.28.16-.17.22A8.62,8.62,0,0,0,49.14,181.42ZM45.66,184V182.6H44.6V184Zm2-2.44H45v-.33h2.65Zm1.41,5.29-.28.23a10.65,10.65,0,0,0-1.34-1.35A5.42,5.42,0,0,1,46.32,187l-.25-.24a5.18,5.18,0,0,0,1.66-2.49h-.95v-2h1.74v2h-.74l.28.15a5.92,5.92,0,0,1-.42.95A12.93,12.93,0,0,1,49.09,186.82ZM48.18,184V182.6h-1V184Z"/><path d="M50.85,184.27a10.94,10.94,0,0,1-.28,2.21l-.31-.09a10.46,10.46,0,0,0,.28-2.13Zm2.62-4.49h-1.1v1h.93v.31h-.93v1h.93v.32h-.93v1h.91v.15a15.58,15.58,0,0,1-.16,3.15q-.16.36-.78.36H52l-.12-.35a3.91,3.91,0,0,0,.49,0,.83.83,0,0,0,.42-.08c.08-.06.13-.41.15-1.08s0-1.15,0-1.48v-.38H50.75v-4.23h2.72Zm-1.45,1v-1h-.93v1ZM52,182v-1h-.93v1Zm0,1.32v-1h-.93v1Zm-.86,3c0-.21,0-.42,0-.64,0-.49,0-1-.08-1.49l.27,0a14.77,14.77,0,0,1,.12,1.92v.2Zm1-.47-.3.08a10.21,10.21,0,0,0-.23-1.76l.27,0A10,10,0,0,1,52.16,185.91Zm.59-.44-.27.08a11.26,11.26,0,0,0-.3-1.4l.25-.08A12.08,12.08,0,0,1,52.75,185.47Zm2.94.69-.27.24a7.41,7.41,0,0,0-.77-.85A4.15,4.15,0,0,1,53.51,187l-.26-.24a4,4,0,0,0,1.46-2.49h-.9v-2h1.65v2h-.67l.25.12a6.94,6.94,0,0,1-.25.81A6.47,6.47,0,0,1,55.69,186.16Zm2.42-4.74-.23.28a8.27,8.27,0,0,1-2.22-1.86,7,7,0,0,1-2.13,1.86l-.25-.25a6.57,6.57,0,0,0,2.46-2.28l.28.16-.17.24A6.72,6.72,0,0,0,58.11,181.42Zm-3,2.55V182.6h-1V184Zm1.78-2.44H54.56v-.33H56.9Zm1.18,5.29-.28.23a11.12,11.12,0,0,0-1.11-1.34,4.66,4.66,0,0,1-1,1.33l-.27-.24a4.42,4.42,0,0,0,1.45-2.49H56v-2h1.65v2h-.72l.25.12a5.78,5.78,0,0,1-.35,1A11.24,11.24,0,0,1,58.08,186.82ZM57.31,184V182.6h-1V184Z"/><path d="M118.7,221.64a5.94,5.94,0,0,1-.22,1,1.28,1.28,0,0,1-.27.58.55.55,0,0,1-.33.11q-.45,0-.9-.66a5.13,5.13,0,0,1-.64-1.16,10.69,10.69,0,0,1-2.19,1.85l-.2-.28a10.75,10.75,0,0,0,2.26-1.94,15.4,15.4,0,0,1-.55-3.74h-3.4v1.35h2.38c0,.65,0,1.28-.09,1.88a3.69,3.69,0,0,1-.19,1.07,1.64,1.64,0,0,1-.28.31,1.6,1.6,0,0,1-.8.13h-.46l-.12-.36.48,0a1.84,1.84,0,0,0,.6-.06.6.6,0,0,0,.22-.16,2.69,2.69,0,0,0,.18-.89,13.78,13.78,0,0,0,.09-1.6h-2v.78a6.35,6.35,0,0,1-1.07,3.52l-.29-.26a5.79,5.79,0,0,0,1-3.29V217.1h3.75c0-.5,0-1,0-1.51H116v1.51h2.55v.34H116a14.5,14.5,0,0,0,.5,3.39,9.21,9.21,0,0,0,1.31-2.54l.32.12a10,10,0,0,1-1.51,2.81,4.33,4.33,0,0,0,.66,1.33c.26.32.45.47.59.47A.15.15,0,0,0,118,223a2,2,0,0,0,.18-.52,6.92,6.92,0,0,0,.16-1Zm-.56-5-.29.24a4.13,4.13,0,0,0-1-1l.26-.22A6,6,0,0,1,118.14,216.66Z"/><path d="M127.68,223.07l-.18.32a9.46,9.46,0,0,1-3.73-1.69,10.17,10.17,0,0,1-3.68,1.69l-.2-.32a9.42,9.42,0,0,0,3.61-1.61,7,7,0,0,1-1.57-2.16l.34-.16a6.07,6.07,0,0,0,1.5,2.1,7.2,7.2,0,0,0,1.63-2.1l.35.16a8.43,8.43,0,0,1-1.7,2.16A9.49,9.49,0,0,0,127.68,223.07Zm-.09-6.1H120v-.33h3.83a7.48,7.48,0,0,0-.46-1l.35-.11a6.69,6.69,0,0,1,.5,1.11h3.39Zm-4.77.71a13.28,13.28,0,0,1-2.57,2.42l-.24-.29a12.54,12.54,0,0,0,2.51-2.35Zm4.72,2.18-.27.24a16,16,0,0,0-2.49-2.39l.26-.25A16.25,16.25,0,0,1,127.54,219.86Z"/><path d="M194.75,195.07l-.14.32h-3a6.93,6.93,0,0,1-2-.25,4.1,4.1,0,0,1-1.41-.79,6,6,0,0,1-1.06,1.08l-.27-.22a5,5,0,0,0,1.82-2.91h-1.54V192a17.69,17.69,0,0,0,1.48-2h-1.7v-.33H189V190a24.38,24.38,0,0,1-1.47,2H189v.33a5.37,5.37,0,0,1-.66,1.77,3.56,3.56,0,0,0,1.76.85,28,28,0,0,0,3.65.15Zm-6-6.09-.24.26a10.66,10.66,0,0,0-1.26-1.26l.21-.27A11.73,11.73,0,0,1,188.71,189Zm5.56,4.76a.6.6,0,0,1-.69.67h-.75l-.14-.36.9,0c.22,0,.32-.1.32-.3V191h-3.85v3.44h-.36v-3.77h.61V188h3.37v2.65h.59Zm-1-4.51v-.91h-2.65v2.32h1.05v-1.41Zm-.3,4.29H191v-1.7H193Zm-.35-.32v-1h-1.34v1Zm.65-2.56v-1.08h-1.24v1.08Z"/><path d="M203.29,188.1a23.37,23.37,0,0,1-3,.49c-1.09.11-2,.17-2.78.17v1.32h5.76v2.73h-5.85a5.24,5.24,0,0,1-1.25,2.8l-.29-.28a4.37,4.37,0,0,0,1-1.61,8.4,8.4,0,0,0,.3-2.52v-2.77a27.49,27.49,0,0,0,6-.65Zm-.39,4.37v-2h-5.39q0,1.24-.06,2Z"/></svg>