<?xml version="1.0" encoding="utf-8"?>
<!-- Generator: Adobe Illustrator 23.0.0, SVG Export Plug-In . SVG Version: 6.00 Build 0)  -->
<svg version="1.1" id="Layer_1" xmlns="http://www.w3.org/2000/svg" xmlns:xlink="http://www.w3.org/1999/xlink" x="0px" y="0px"
	 viewBox="0 0 512 512" style="enable-background:new 0 0 512 512;" xml:space="preserve">
<g>
	<g>
		<g>
			<path d="M113.8,236L341.6,8.2c5.3-5.3,12.3-8.2,19.8-8.2c7.5,0,14.5,2.9,19.8,8.2L398,25c10.9,10.9,10.9,28.7,0,39.6L206.7,255.9
				l191.5,191.5c5.3,5.3,8.2,12.3,8.2,19.8c0,7.5-2.9,14.5-8.2,19.8l-16.8,16.8c-5.3,5.3-12.3,8.2-19.8,8.2s-14.5-2.9-19.8-8.2
				L113.8,275.8c-5.3-5.3-8.2-12.4-8.2-19.9C105.6,248.4,108.5,241.3,113.8,236z"/>
		</g>
	</g>
</g>
</svg>
