<svg id="圖層_1" data-name="圖層 1" xmlns="http://www.w3.org/2000/svg" viewBox="0 0 25.51 25.51"><defs><style>.cls-1{fill:#2196f3;}.cls-2{fill:#fafafa;}.cls-3{fill:#47aae0;}.cls-4{fill:#fff;}</style></defs><title>icon</title><g id="true"><path class="cls-1" d="M12.76.26a12.5,12.5,0,1,0,12.5,12.5A12.5,12.5,0,0,0,12.76.26Z"/><path class="cls-2" d="M19.09,10.11l-6.77,6.77a1.05,1.05,0,0,1-1.47,0L7.46,13.49A1,1,0,1,1,8.93,12l2.65,2.65,6-6a1,1,0,0,1,1.47,1.48Z"/></g><rect class="cls-3" x="0.2" y="0.25" width="25.31" height="25.31" rx="12.66"/><rect class="cls-4" x="11.96" y="6.02" width="1.78" height="13.08" transform="translate(0.29 25.41) rotate(-90)"/><rect class="cls-4" x="11.96" y="6.02" width="1.78" height="13.08"/></svg>